<svg width="46" height="47" viewBox="0 0 46 47" fill="none" xmlns="http://www.w3.org/2000/svg">
<rect width="46" height="47" fill="black"/>
<path d="M10.3033 27.7383L13.1318 30.5668L18.4351 25.2635L23.7384 30.5668L26.5668 27.7383L21.2635 22.435L26.5668 17.1317L23.7384 14.3033L18.4351 19.6066L13.1318 14.3033L10.3033 17.1317L15.6066 22.435L10.3033 27.7383Z" fill="white"/>
<path d="M10.3033 27.7383L13.1318 30.5668L18.4351 25.2635L23.7384 30.5668L26.5668 27.7383L21.2635 22.435L26.5668 17.1317L23.7384 14.3033L18.4351 19.6066L13.1318 14.3033L10.3033 17.1317L15.6066 22.435L10.3033 27.7383Z" fill="white"/>
<path d="M10.3033 27.7383L13.1318 30.5668L18.4351 25.2635L23.7384 30.5668L26.5668 27.7383L21.2635 22.435L26.5668 17.1317L23.7384 14.3033L18.4351 19.6066L13.1318 14.3033L10.3033 17.1317L15.6066 22.435L10.3033 27.7383Z" fill="white"/>
</svg>
