<svg width="46" height="47" viewBox="0 0 46 47" fill="none" xmlns="http://www.w3.org/2000/svg">
<path fill-rule="evenodd" clip-rule="evenodd" d="M23 0V0.373077L0 14.2106V47H46V0H23Z" fill="black"/>
<path d="M15.3033 29.7383L18.1318 32.5668L23.4351 27.2635L28.7384 32.5668L31.5668 29.7383L26.2635 24.435L31.5668 19.1317L28.7384 16.3033L23.4351 21.6066L18.1318 16.3033L15.3033 19.1317L20.6066 24.435L15.3033 29.7383Z" fill="white"/>
<path d="M15.3033 29.7383L18.1318 32.5668L23.4351 27.2635L28.7384 32.5668L31.5668 29.7383L26.2635 24.435L31.5668 19.1317L28.7384 16.3033L23.4351 21.6066L18.1318 16.3033L15.3033 19.1317L20.6066 24.435L15.3033 29.7383Z" fill="white"/>
<path d="M15.3033 29.7383L18.1318 32.5668L23.4351 27.2635L28.7384 32.5668L31.5668 29.7383L26.2635 24.435L31.5668 19.1317L28.7384 16.3033L23.4351 21.6066L18.1318 16.3033L15.3033 19.1317L20.6066 24.435L15.3033 29.7383Z" fill="white"/>
</svg>
