<svg width="124" height="75" viewBox="0 0 124 75" fill="none" xmlns="http://www.w3.org/2000/svg">
<path d="M124 0.0904541L123.85 0L0 74.5116L0.25 74.662H124V0.0904541Z" fill="black"/>
<path d="M88.3033 52.7383L91.1318 55.5668L96.4351 50.2635L101.738 55.5668L104.567 52.7383L99.2635 47.435L104.567 42.1317L101.738 39.3033L96.4351 44.6066L91.1318 39.3033L88.3033 42.1317L93.6066 47.435L88.3033 52.7383Z" fill="white"/>
<path d="M88.3033 52.7383L91.1318 55.5668L96.4351 50.2635L101.738 55.5668L104.567 52.7383L99.2635 47.435L104.567 42.1317L101.738 39.3033L96.4351 44.6066L91.1318 39.3033L88.3033 42.1317L93.6066 47.435L88.3033 52.7383Z" fill="white"/>
<path d="M88.3033 52.7383L91.1318 55.5668L96.4351 50.2635L101.738 55.5668L104.567 52.7383L99.2635 47.435L104.567 42.1317L101.738 39.3033L96.4351 44.6066L91.1318 39.3033L88.3033 42.1317L93.6066 47.435L88.3033 52.7383Z" fill="white"/>
</svg>
