<svg width="323" height="358" viewBox="0 0 323 358" fill="none" xmlns="http://www.w3.org/2000/svg">
<rect width="323" height="348" fill="white"/>
<path d="M25.9817 82.7954V88.8787H35.7921V94.5336H25.9817V101.131H37.0773V107H18.6561V76.9264H37.0773V82.7954H25.9817ZM52.586 100.146L57.7696 83.0953H65.5665L57.0842 107H48.0449L39.5626 83.0953H47.4023L52.586 100.146ZM91.1838 94.6621C91.1838 95.3475 91.1409 96.0615 91.0552 96.8041H74.4762C74.5904 98.2892 75.0617 99.4316 75.8899 100.231C76.7467 101.002 77.7891 101.388 79.0172 101.388C80.8451 101.388 82.116 100.617 82.83 99.0746H90.6269C90.227 100.645 89.4987 102.059 88.442 103.316C87.4139 104.572 86.1144 105.558 84.5436 106.272C82.9728 106.986 81.2163 107.343 79.2743 107.343C76.9323 107.343 74.8475 106.843 73.0196 105.843C71.1918 104.844 69.7638 103.416 68.7356 101.559C67.7075 99.7029 67.1934 97.5324 67.1934 95.0477C67.1934 92.5629 67.6932 90.3924 68.6928 88.536C69.721 86.6796 71.149 85.2516 72.9768 84.252C74.8046 83.2524 76.9038 82.7526 79.2743 82.7526C81.5876 82.7526 83.6439 83.2381 85.4432 84.2092C87.2425 85.1802 88.6419 86.5653 89.6415 88.3646C90.6697 90.1639 91.1838 92.2631 91.1838 94.6621ZM83.6868 92.7343C83.6868 91.4777 83.2584 90.4781 82.4016 89.7355C81.5448 88.9929 80.4738 88.6217 79.1886 88.6217C77.9605 88.6217 76.9181 88.9787 76.0613 89.6927C75.233 90.4067 74.719 91.4205 74.519 92.7343H83.6868ZM102.374 87.0794C103.231 85.7657 104.302 84.7375 105.587 83.995C106.872 83.2238 108.3 82.8383 109.871 82.8383V90.5923H107.858C106.03 90.5923 104.659 90.9921 103.745 91.7918C102.831 92.5629 102.374 93.9338 102.374 95.9045V107H95.0484V83.0953H102.374V87.0794ZM137.791 83.0953L122.797 118.353H114.915L120.398 106.186L110.674 83.0953H118.856L124.382 98.0465L129.866 83.0953H137.791ZM138.984 95.0048C138.984 92.5487 139.441 90.3924 140.355 88.536C141.297 86.6796 142.568 85.2516 144.167 84.252C145.767 83.2524 147.552 82.7526 149.522 82.7526C151.093 82.7526 152.521 83.081 153.806 83.7379C155.12 84.3948 156.148 85.2801 156.891 86.394V75.2984H164.217V107H156.891V103.573C156.205 104.715 155.22 105.629 153.935 106.315C152.678 107 151.207 107.343 149.522 107.343C147.552 107.343 145.767 106.843 144.167 105.843C142.568 104.815 141.297 103.373 140.355 101.516C139.441 99.6315 138.984 97.461 138.984 95.0048ZM156.891 95.0477C156.891 93.2198 156.377 91.7775 155.349 90.7208C154.349 89.6641 153.121 89.1357 151.664 89.1357C150.208 89.1357 148.965 89.6641 147.937 90.7208C146.938 91.749 146.438 93.177 146.438 95.0048C146.438 96.8327 146.938 98.2892 147.937 99.3745C148.965 100.431 150.208 100.96 151.664 100.96C153.121 100.96 154.349 100.431 155.349 99.3745C156.377 98.3178 156.891 96.8755 156.891 95.0477ZM168.06 95.0048C168.06 92.5487 168.517 90.3924 169.431 88.536C170.373 86.6796 171.644 85.2516 173.243 84.252C174.843 83.2524 176.628 82.7526 178.598 82.7526C180.283 82.7526 181.754 83.0953 183.011 83.7807C184.296 84.4662 185.281 85.3658 185.967 86.4797V83.0953H193.292V107H185.967V103.616C185.253 104.729 184.253 105.629 182.968 106.315C181.711 107 180.241 107.343 178.555 107.343C176.613 107.343 174.843 106.843 173.243 105.843C171.644 104.815 170.373 103.373 169.431 101.516C168.517 99.6315 168.06 97.461 168.06 95.0048ZM185.967 95.0477C185.967 93.2198 185.453 91.7775 184.425 90.7208C183.425 89.6641 182.197 89.1357 180.74 89.1357C179.284 89.1357 178.041 89.6641 177.013 90.7208C176.014 91.749 175.514 93.177 175.514 95.0048C175.514 96.8327 176.014 98.2892 177.013 99.3745C178.041 100.431 179.284 100.96 180.74 100.96C182.197 100.96 183.425 100.431 184.425 99.3745C185.453 98.3178 185.967 96.8755 185.967 95.0477ZM223.011 83.0953L208.017 118.353H200.134L205.618 106.186L195.893 83.0953H204.076L209.602 98.0465L215.086 83.0953H223.011Z" fill="black"/>
<path d="M100.531 142.036H89.3074L87.5081 147.349H79.8397L90.7211 117.275H99.2034L110.085 147.349H102.331L100.531 142.036ZM98.6465 136.382L94.9194 125.372L91.2352 136.382H98.6465ZM137.001 123.444V147.349H129.676V144.093C128.933 145.149 127.919 146.006 126.634 146.663C125.377 147.291 123.978 147.606 122.436 147.606C120.608 147.606 118.994 147.206 117.595 146.406C116.195 145.578 115.11 144.393 114.339 142.85C113.568 141.308 113.182 139.495 113.182 137.41V123.444H120.465V136.424C120.465 138.024 120.879 139.266 121.707 140.151C122.536 141.037 123.649 141.479 125.049 141.479C126.477 141.479 127.605 141.037 128.433 140.151C129.262 139.266 129.676 138.024 129.676 136.424V123.444H137.001ZM151.988 147.691C149.903 147.691 148.047 147.334 146.419 146.62C144.791 145.906 143.506 144.935 142.563 143.707C141.621 142.451 141.092 141.051 140.978 139.509H148.218C148.304 140.337 148.689 141.008 149.375 141.522C150.06 142.036 150.903 142.293 151.902 142.293C152.816 142.293 153.516 142.122 154.001 141.779C154.515 141.408 154.772 140.937 154.772 140.366C154.772 139.68 154.415 139.18 153.701 138.866C152.987 138.524 151.831 138.152 150.231 137.752C148.518 137.353 147.09 136.938 145.947 136.51C144.805 136.053 143.82 135.353 142.992 134.411C142.163 133.44 141.749 132.14 141.749 130.512C141.749 129.142 142.12 127.899 142.863 126.785C143.634 125.643 144.748 124.743 146.204 124.086C147.69 123.43 149.446 123.101 151.474 123.101C154.473 123.101 156.829 123.844 158.542 125.329C160.285 126.814 161.284 128.785 161.541 131.241H154.772C154.658 130.413 154.287 129.756 153.659 129.27C153.059 128.785 152.259 128.542 151.26 128.542C150.403 128.542 149.746 128.713 149.289 129.056C148.832 129.37 148.604 129.813 148.604 130.384C148.604 131.069 148.961 131.583 149.675 131.926C150.417 132.269 151.559 132.612 153.102 132.954C154.872 133.411 156.315 133.868 157.429 134.325C158.542 134.754 159.513 135.468 160.342 136.467C161.198 137.438 161.641 138.752 161.67 140.409C161.67 141.808 161.27 143.065 160.47 144.178C159.699 145.264 158.571 146.12 157.086 146.749C155.629 147.377 153.93 147.691 151.988 147.691ZM179.475 141.137V147.349H175.748C173.092 147.349 171.021 146.706 169.536 145.421C168.051 144.107 167.308 141.979 167.308 139.038V129.527H164.395V123.444H167.308V117.618H174.634V123.444H179.432V129.527H174.634V139.123C174.634 139.837 174.805 140.351 175.148 140.666C175.491 140.98 176.062 141.137 176.862 141.137H179.475ZM190.881 127.428C191.738 126.114 192.809 125.086 194.094 124.344C195.379 123.572 196.807 123.187 198.378 123.187V130.941H196.364C194.537 130.941 193.166 131.341 192.252 132.14C191.338 132.912 190.881 134.282 190.881 136.253V147.349H183.555V123.444H190.881V127.428ZM200.423 135.353C200.423 132.897 200.88 130.741 201.794 128.885C202.736 127.028 204.007 125.6 205.606 124.601C207.206 123.601 208.991 123.101 210.961 123.101C212.646 123.101 214.117 123.444 215.374 124.129C216.659 124.815 217.644 125.714 218.33 126.828V123.444H225.656V147.349H218.33V143.964C217.616 145.078 216.616 145.978 215.331 146.663C214.074 147.349 212.604 147.691 210.919 147.691C208.977 147.691 207.206 147.191 205.606 146.192C204.007 145.164 202.736 143.721 201.794 141.865C200.88 139.98 200.423 137.81 200.423 135.353ZM218.33 135.396C218.33 133.568 217.816 132.126 216.788 131.069C215.788 130.013 214.56 129.484 213.103 129.484C211.647 129.484 210.404 130.013 209.376 131.069C208.377 132.098 207.877 133.526 207.877 135.353C207.877 137.181 208.377 138.638 209.376 139.723C210.404 140.78 211.647 141.308 213.103 141.308C214.56 141.308 215.788 140.78 216.788 139.723C217.816 138.666 218.33 137.224 218.33 135.396ZM238.281 115.647V147.349H230.955V115.647H238.281ZM247.274 120.959C245.989 120.959 244.932 120.588 244.104 119.845C243.304 119.074 242.904 118.132 242.904 117.018C242.904 115.875 243.304 114.933 244.104 114.19C244.932 113.419 245.989 113.034 247.274 113.034C248.531 113.034 249.559 113.419 250.358 114.19C251.187 114.933 251.601 115.875 251.601 117.018C251.601 118.132 251.187 119.074 250.358 119.845C249.559 120.588 248.531 120.959 247.274 120.959ZM250.915 123.444V147.349H243.59V123.444H250.915ZM254.768 135.353C254.768 132.897 255.225 130.741 256.138 128.885C257.081 127.028 258.352 125.6 259.951 124.601C261.551 123.601 263.336 123.101 265.306 123.101C266.991 123.101 268.462 123.444 269.719 124.129C271.004 124.815 271.989 125.714 272.675 126.828V123.444H280V147.349H272.675V143.964C271.961 145.078 270.961 145.978 269.676 146.663C268.419 147.349 266.948 147.691 265.263 147.691C263.321 147.691 261.551 147.191 259.951 146.192C258.352 145.164 257.081 143.721 256.138 141.865C255.225 139.98 254.768 137.81 254.768 135.353ZM272.675 135.396C272.675 133.568 272.161 132.126 271.132 131.069C270.133 130.013 268.905 129.484 267.448 129.484C265.992 129.484 264.749 130.013 263.721 131.069C262.722 132.098 262.222 133.526 262.222 135.353C262.222 137.181 262.722 138.638 263.721 139.723C264.749 140.78 265.992 141.308 267.448 141.308C268.905 141.308 270.133 140.78 271.132 139.723C272.161 138.666 272.675 137.224 272.675 135.396ZM299.866 123.187C302.665 123.187 304.892 124.101 306.549 125.929C308.234 127.728 309.076 130.213 309.076 133.383V147.349H301.793V134.368C301.793 132.769 301.379 131.526 300.551 130.641C299.723 129.756 298.609 129.313 297.21 129.313C295.81 129.313 294.696 129.756 293.868 130.641C293.04 131.526 292.626 132.769 292.626 134.368V147.349H285.3V123.444H292.626V126.614C293.368 125.557 294.368 124.729 295.625 124.129C296.881 123.501 298.295 123.187 299.866 123.187Z" fill="black"/>
<path d="M29.923 157.219C33.0931 157.219 35.8635 157.847 38.2339 159.104C40.6044 160.36 42.4322 162.131 43.7174 164.416C45.0312 166.672 45.6881 169.285 45.6881 172.255C45.6881 175.197 45.0312 177.81 43.7174 180.095C42.4322 182.38 40.5901 184.151 38.1911 185.407C35.8206 186.664 33.0646 187.292 29.923 187.292H18.6561V157.219H29.923ZM29.4517 180.952C32.2221 180.952 34.3783 180.195 35.9206 178.681C37.4628 177.168 38.2339 175.026 38.2339 172.255C38.2339 169.485 37.4628 167.329 35.9206 165.787C34.3783 164.244 32.2221 163.473 29.4517 163.473H25.9817V180.952H29.4517ZM72.3158 174.954C72.3158 175.64 72.2729 176.354 72.1873 177.096H55.6082C55.7224 178.582 56.1937 179.724 57.0219 180.524C57.8787 181.295 58.9212 181.68 60.1492 181.68C61.9771 181.68 63.248 180.909 63.962 179.367H71.7589C71.359 180.938 70.6307 182.351 69.574 183.608C68.5459 184.865 67.2464 185.85 65.6756 186.564C64.1048 187.278 62.3484 187.635 60.4063 187.635C58.0644 187.635 55.9795 187.135 54.1516 186.136C52.3238 185.136 50.8958 183.708 49.8677 181.852C48.8395 179.995 48.3254 177.825 48.3254 175.34C48.3254 172.855 48.8252 170.685 49.8248 168.828C50.853 166.972 52.281 165.544 54.1088 164.544C55.9366 163.545 58.0358 163.045 60.4063 163.045C62.7196 163.045 64.776 163.53 66.5752 164.501C68.3745 165.472 69.7739 166.858 70.7735 168.657C71.8017 170.456 72.3158 172.555 72.3158 174.954ZM64.8188 173.027C64.8188 171.77 64.3904 170.77 63.5336 170.028C62.6768 169.285 61.6058 168.914 60.3206 168.914C59.0925 168.914 58.0501 169.271 57.1933 169.985C56.365 170.699 55.851 171.713 55.651 173.027H64.8188ZM85.9051 187.635C83.8202 187.635 81.9638 187.278 80.3359 186.564C78.708 185.85 77.4228 184.879 76.4803 183.651C75.5378 182.394 75.0095 180.995 74.8952 179.453H82.1352C82.2208 180.281 82.6064 180.952 83.2918 181.466C83.9773 181.98 84.8198 182.237 85.8194 182.237C86.7333 182.237 87.433 182.066 87.9186 181.723C88.4326 181.352 88.6897 180.881 88.6897 180.309C88.6897 179.624 88.3327 179.124 87.6187 178.81C86.9047 178.467 85.748 178.096 84.1486 177.696C82.435 177.296 81.007 176.882 79.8646 176.454C78.7223 175.997 77.7369 175.297 76.9087 174.355C76.0805 173.384 75.6663 172.084 75.6663 170.456C75.6663 169.085 76.0376 167.843 76.7802 166.729C77.5513 165.587 78.6651 164.687 80.1217 164.03C81.6068 163.373 83.3632 163.045 85.391 163.045C88.3898 163.045 90.746 163.787 92.4596 165.273C94.2018 166.758 95.2013 168.728 95.4584 171.184H88.6897C88.5754 170.356 88.2042 169.699 87.5758 169.214C86.9761 168.728 86.1764 168.486 85.1768 168.486C84.32 168.486 83.6631 168.657 83.2062 169C82.7492 169.314 82.5207 169.756 82.5207 170.328C82.5207 171.013 82.8777 171.527 83.5917 171.87C84.3343 172.213 85.4767 172.555 87.0189 172.898C88.7896 173.355 90.2319 173.812 91.3458 174.269C92.4596 174.697 93.4306 175.411 94.2589 176.411C95.1157 177.382 95.5583 178.696 95.5869 180.352C95.5869 181.752 95.1871 183.008 94.3874 184.122C93.6163 185.207 92.4882 186.064 91.003 186.693C89.5465 187.321 87.8472 187.635 85.9051 187.635ZM103.753 160.903C102.468 160.903 101.411 160.532 100.583 159.789C99.7831 159.018 99.3833 158.075 99.3833 156.962C99.3833 155.819 99.7831 154.877 100.583 154.134C101.411 153.363 102.468 152.978 103.753 152.978C105.01 152.978 106.038 153.363 106.837 154.134C107.666 154.877 108.08 155.819 108.08 156.962C108.08 158.075 107.666 159.018 106.837 159.789C106.038 160.532 105.01 160.903 103.753 160.903ZM107.394 163.388V187.292H100.069V163.388H107.394ZM121.785 163.045C123.47 163.045 124.941 163.388 126.198 164.073C127.483 164.758 128.468 165.658 129.154 166.772V163.388H136.479V187.249C136.479 189.449 136.037 191.433 135.151 193.204C134.294 195.003 132.966 196.431 131.167 197.488C129.396 198.545 127.183 199.073 124.527 199.073C120.986 199.073 118.115 198.231 115.916 196.546C113.717 194.889 112.46 192.633 112.146 189.777H119.386C119.615 190.691 120.157 191.405 121.014 191.919C121.871 192.462 122.928 192.733 124.184 192.733C125.698 192.733 126.897 192.29 127.783 191.405C128.697 190.548 129.154 189.163 129.154 187.249V183.865C128.44 184.979 127.454 185.893 126.198 186.607C124.941 187.292 123.47 187.635 121.785 187.635C119.815 187.635 118.03 187.135 116.43 186.136C114.831 185.107 113.56 183.665 112.617 181.809C111.704 179.924 111.247 177.753 111.247 175.297C111.247 172.841 111.704 170.685 112.617 168.828C113.56 166.972 114.831 165.544 116.43 164.544C118.03 163.545 119.815 163.045 121.785 163.045ZM129.154 175.34C129.154 173.512 128.64 172.07 127.611 171.013C126.612 169.956 125.384 169.428 123.927 169.428C122.471 169.428 121.228 169.956 120.2 171.013C119.201 172.041 118.701 173.469 118.701 175.297C118.701 177.125 119.201 178.582 120.2 179.667C121.228 180.724 122.471 181.252 123.927 181.252C125.384 181.252 126.612 180.724 127.611 179.667C128.64 178.61 129.154 177.168 129.154 175.34ZM156.345 163.131C159.144 163.131 161.371 164.044 163.028 165.872C164.713 167.672 165.555 170.156 165.555 173.326V187.292H158.272V174.312C158.272 172.712 157.858 171.47 157.03 170.585C156.202 169.699 155.088 169.257 153.689 169.257C152.289 169.257 151.175 169.699 150.347 170.585C149.519 171.47 149.105 172.712 149.105 174.312V187.292H141.779V163.388H149.105V166.558C149.847 165.501 150.847 164.673 152.104 164.073C153.36 163.445 154.774 163.131 156.345 163.131Z" fill="black"/>
<path d="M41.8083 120.219V143.16L18.8677 131.69L41.8083 120.219Z" fill="#CABD96"/>
<path d="M44.6758 143.16L44.6758 120.219L67.6165 131.69L44.6758 143.16Z" fill="black"/>
<path d="M196.658 163.233V186.174L173.717 174.703L196.658 163.233Z" fill="#F6CD51"/>
<path d="M199.525 186.174L199.525 163.233L222.466 174.703L199.525 186.174Z" fill="#EC773E"/>
<line x1="7" y1="357.5" x2="317" y2="357.5" stroke="#EDEDED"/>
<path d="M235.684 311.889C235.716 311.889 235.748 311.856 235.748 311.791C235.368 310.353 235.146 308.131 235.146 305.484V297.837C235.146 291.203 231.95 288.294 224.765 288.294C218.466 288.294 214.447 291.301 214.067 296.366C214.067 296.399 214.099 296.431 214.13 296.431H221.157C221.283 294.209 222.549 293.033 224.733 293.033C226.949 293.033 228.025 294.176 228.025 296.824V297.608L222.613 298.392C219.226 298.85 217.074 299.601 215.618 300.647C214.099 301.758 213.339 303.458 213.339 305.614C213.339 309.699 216.409 312.444 220.998 312.444C224.48 312.444 227.329 310.843 228.436 308.261C228.468 309.536 228.563 310.745 228.784 311.856C228.784 311.889 228.816 311.922 228.848 311.922H235.684V311.889ZM228.215 303.098C228.215 305.876 226.379 307.739 223.657 307.739C221.79 307.739 220.524 306.693 220.524 305.059C220.524 303.359 221.726 302.379 224.353 301.889L228.12 301.268C228.151 301.268 228.183 301.301 228.183 301.333L228.215 303.098Z" fill="black"/>
<path d="M238.596 311.889H245.591C245.622 311.889 245.654 311.856 245.654 311.824V298.719C245.654 295.647 246.857 293.915 249.041 293.915C251.003 293.915 251.984 295.353 251.984 298.327V311.791C251.984 311.824 252.016 311.856 252.047 311.856H259.042C259.074 311.856 259.105 311.824 259.105 311.791V298.686C259.105 295.614 260.277 293.948 262.46 293.948C264.454 293.948 265.404 295.32 265.404 298.425V311.856C265.404 311.889 265.436 311.922 265.467 311.922H272.557C272.588 311.922 272.62 311.889 272.62 311.856V296.824C272.62 291.431 270.088 288.294 265.752 288.294C262.587 288.294 260.276 289.765 258.694 292.902C258.662 292.967 258.599 292.935 258.567 292.902C257.396 289.732 255.402 288.294 252.237 288.294C249.072 288.294 246.92 289.732 245.527 292.706C245.496 292.771 245.401 292.739 245.401 292.673V288.915C245.401 288.882 245.369 288.85 245.338 288.85H238.596C238.564 288.85 238.533 288.882 238.533 288.915V311.824C238.533 311.856 238.564 311.889 238.596 311.889Z" fill="black"/>
<path d="M203.116 296.039C203.084 296.039 203.053 296.007 203.053 295.974C203.306 293.654 201.85 292.542 199.983 292.542C198.084 292.542 197.102 293.327 197.102 294.634C197.102 295.81 198.622 296.627 201.439 297.052C205.521 297.641 210.997 298.882 210.997 304.373C210.997 309.83 207.231 312.444 199.919 312.444C193.399 312.444 189.411 309.438 189.411 305.516C189.411 305.026 189.411 304.405 189.665 303.686C189.665 303.654 189.696 303.654 189.728 303.654L196.881 303.425C196.913 303.425 196.944 303.458 196.944 303.49C196.564 306.595 198.305 307.935 200.426 307.935C202.483 307.935 203.812 307.02 203.812 305.386C203.812 303.556 201.154 302.837 198.59 302.412C194.729 301.758 190.234 300.484 190.234 295.353C190.203 291.039 193.399 288.294 199.856 288.294C205.68 288.294 210.206 290.222 210.206 293.686C210.206 294.275 210.111 294.928 209.857 295.647C209.857 295.68 209.826 295.68 209.794 295.68L203.116 296.039Z" fill="black"/>
<path d="M271.829 321.203H272.557V318.327C272.557 317.51 272.177 317.118 271.449 317.118C270.879 317.118 270.373 317.477 270.151 317.869C270.025 317.444 269.676 317.118 269.107 317.118C268.537 317.118 268.031 317.543 267.872 317.771V317.216H267.144V321.203H267.872V318.36C268.062 318.065 268.442 317.771 268.822 317.771C269.297 317.771 269.487 318.065 269.487 318.523V321.17H270.215V318.327C270.404 318.033 270.784 317.771 271.164 317.771C271.639 317.771 271.829 318.065 271.829 318.523V321.203ZM265.435 321.203H266.163V317.216H265.435V320.092C265.214 320.386 264.802 320.647 264.359 320.647C263.853 320.647 263.536 320.451 263.536 319.797V317.216H262.808V320.026C262.808 320.876 263.22 321.301 264.043 321.301C264.644 321.301 265.119 320.974 265.404 320.647V321.203H265.435ZM260.15 317.706C260.973 317.706 261.321 318.36 261.321 318.882H258.947C258.979 318.36 259.358 317.706 260.15 317.706ZM258.187 319.176C258.187 320.418 259.042 321.268 260.181 321.268C260.814 321.268 261.352 321.072 261.732 320.68L261.384 320.19C261.099 320.484 260.656 320.647 260.245 320.647C259.453 320.647 258.979 320.092 258.947 319.405H261.985V319.209C261.985 318 261.257 317.052 260.118 317.052C259.01 317.118 258.187 318.033 258.187 319.176ZM254.453 320.68C254.832 321.105 255.402 321.301 256.067 321.301C257.08 321.301 257.618 320.778 257.618 320.092C257.618 319.176 256.826 318.98 256.162 318.817C255.687 318.686 255.276 318.588 255.276 318.229C255.276 317.902 255.592 317.706 256.067 317.706C256.542 317.706 256.985 317.902 257.206 318.196L257.523 317.673C257.206 317.346 256.7 317.118 256.067 317.118C255.117 317.118 254.611 317.673 254.611 318.294C254.611 319.144 255.371 319.34 256.035 319.503C256.542 319.634 256.985 319.765 256.985 320.157C256.985 320.484 256.7 320.712 256.162 320.712C255.655 320.712 255.117 320.451 254.864 320.157L254.453 320.68ZM252.965 321.203H253.693V317.216H252.965V320.092C252.744 320.386 252.332 320.647 251.889 320.647C251.383 320.647 251.066 320.451 251.066 319.797V317.216H250.338V320.026C250.338 320.876 250.75 321.301 251.572 321.301C252.174 321.301 252.649 320.974 252.933 320.647L252.965 321.203ZM248.597 321.203H249.389V315.68H248.249L246.698 319.634L245.147 315.68H244.008V321.17H244.799V316.824L246.54 321.203H246.888L248.629 316.824L248.597 321.203ZM240.527 321.301C240.906 321.301 241.128 321.203 241.286 321.039L241.096 320.484C241.033 320.582 240.875 320.647 240.716 320.647C240.463 320.647 240.337 320.451 240.337 320.157V317.869H241.128V317.216H240.337V316.105H239.609V317.183H238.976V317.837H239.609V320.288C239.609 320.941 239.925 321.301 240.527 321.301ZM236.57 321.203H237.298V318.425C237.456 318.131 237.963 317.837 238.311 317.837C238.406 317.837 238.501 317.837 238.564 317.869V317.118C238.058 317.118 237.583 317.412 237.298 317.804V317.183H236.57V321.203ZM233.437 316.399L234.513 319.307H232.361L233.437 316.399ZM235.178 321.203H236.064L233.943 315.68H232.93L230.81 321.17H231.696L232.139 320.026H234.766L235.178 321.203ZM227.645 321.203H228.056V318.392C228.056 317.477 227.613 317.085 226.854 317.085C226.284 317.085 225.746 317.444 225.461 317.771V317.183H225.05V321.17H225.461V318.163C225.714 317.804 226.221 317.477 226.727 317.477C227.297 317.477 227.676 317.706 227.676 318.49V321.203H227.645ZM222.328 320.909C221.441 320.909 220.935 320.092 220.935 319.209C220.935 318.327 221.441 317.51 222.328 317.51C223.245 317.51 223.752 318.327 223.752 319.209C223.72 320.092 223.214 320.909 222.328 320.909ZM222.328 321.301C223.467 321.301 224.195 320.353 224.195 319.209C224.195 318.033 223.467 317.118 222.328 317.118C221.188 317.118 220.46 318.033 220.46 319.209C220.46 320.353 221.188 321.301 222.328 321.301ZM219.447 321.301C219.764 321.301 219.954 321.203 220.112 321.039L219.954 320.712C219.859 320.81 219.701 320.909 219.511 320.909C219.226 320.909 219.099 320.68 219.099 320.353V317.575H219.89V317.183H219.099V316.105H218.688V317.183H218.055V317.575H218.688V320.418C218.688 320.974 218.941 321.301 219.447 321.301ZM215.776 321.203H216.219V318.294C216.409 317.935 216.915 317.575 217.327 317.575C217.422 317.575 217.453 317.575 217.548 317.608V317.15C217.01 317.15 216.567 317.477 216.251 317.902V317.216H215.839L215.776 321.203ZM214.225 320.418C213.94 320.778 213.529 320.974 213.054 320.974C212.421 320.974 212.01 320.549 212.01 319.993C212.01 319.438 212.421 319.013 213.054 319.013C213.529 319.013 213.94 319.209 214.225 319.569V320.418ZM214.225 321.203H214.637V318.392C214.637 317.51 214.004 317.118 213.212 317.118C212.579 317.118 212.136 317.346 211.725 317.804L211.946 318.098C212.294 317.673 212.674 317.51 213.149 317.51C213.719 317.51 214.193 317.837 214.193 318.425V319.242C213.845 318.85 213.402 318.686 212.896 318.686C212.231 318.686 211.535 319.144 211.535 319.993C211.535 320.843 212.231 321.333 212.896 321.333C213.434 321.333 213.877 321.137 214.193 320.778L214.225 321.203ZM210.332 319.176C210.332 320.157 209.857 320.876 208.971 320.876C208.433 320.876 207.927 320.516 207.705 320.157V318.196C207.927 317.804 208.433 317.477 208.971 317.477C209.857 317.477 210.332 318.229 210.332 319.176ZM207.737 322.706V320.549C208.053 321.007 208.528 321.301 209.066 321.301C210.111 321.301 210.807 320.484 210.807 319.209C210.807 317.935 210.111 317.118 209.066 317.118C208.496 317.118 207.99 317.444 207.737 317.837V317.216H207.325V322.706H207.737ZM205.901 319.176C205.901 320.157 205.426 320.876 204.54 320.876C204.002 320.876 203.496 320.516 203.274 320.157V318.196C203.496 317.804 204.002 317.477 204.54 317.477C205.426 317.477 205.901 318.229 205.901 319.176ZM203.274 322.706V320.549C203.591 321.007 204.065 321.301 204.603 321.301C205.648 321.301 206.344 320.484 206.344 319.209C206.344 317.935 205.648 317.118 204.603 317.118C204.034 317.118 203.527 317.444 203.274 317.837V317.216H202.863V322.706H203.274ZM200.077 317.477C201.059 317.477 201.47 318.327 201.47 318.98H198.653C198.716 318.294 199.191 317.477 200.077 317.477ZM198.242 319.176C198.242 320.418 199.065 321.268 200.172 321.268C200.805 321.268 201.312 321.039 201.692 320.614L201.47 320.353C201.122 320.712 200.679 320.909 200.204 320.909C199.286 320.909 198.748 320.19 198.716 319.307H201.945V319.176C201.945 318.033 201.312 317.052 200.109 317.052C199.033 317.118 198.242 318.033 198.242 319.176ZM196.881 321.203H197.292V318.392C197.292 317.477 196.849 317.118 196.089 317.118C195.52 317.118 194.982 317.477 194.697 317.804V315.68H194.285V321.17H194.697V318.163C194.95 317.804 195.456 317.477 195.963 317.477C196.533 317.477 196.912 317.706 196.912 318.458L196.881 321.203ZM189.443 320.418C189.854 320.941 190.519 321.301 191.405 321.301C192.829 321.301 193.304 320.451 193.304 319.765C193.304 318.654 192.355 318.36 191.5 318.098C190.772 317.902 190.108 317.706 190.108 317.052C190.108 316.464 190.646 316.039 191.342 316.039C191.943 316.039 192.481 316.268 192.861 316.726L193.178 316.366C192.766 315.876 192.165 315.582 191.374 315.582C190.392 315.582 189.633 316.137 189.633 317.052C189.633 318.065 190.519 318.327 191.374 318.556C192.101 318.752 192.829 318.98 192.829 319.765C192.829 320.222 192.513 320.876 191.437 320.876C190.677 320.876 190.108 320.484 189.759 320.059L189.443 320.418Z" fill="black"/>
<path d="M52.016 265.524V268.32H55.064V269.22H52.016V272.1H55.424V273H50.924V264.624H55.424V265.524H52.016ZM60.5083 273L58.9483 270.552L57.4483 273H56.3083L58.4323 269.736L56.3083 266.424H57.5443L59.1043 268.86L60.5923 266.424H61.7323L59.6203 269.676L61.7443 273H60.5083ZM66.0825 266.304C66.5785 266.304 67.0265 266.412 67.4265 266.628C67.8265 266.836 68.1385 267.152 68.3625 267.576C68.5945 268 68.7105 268.516 68.7105 269.124V273H67.6305V269.28C67.6305 268.624 67.4665 268.124 67.1385 267.78C66.8105 267.428 66.3625 267.252 65.7945 267.252C65.2185 267.252 64.7585 267.432 64.4145 267.792C64.0785 268.152 63.9105 268.676 63.9105 269.364V273H62.8185V264.12H63.9105V267.36C64.1265 267.024 64.4225 266.764 64.7985 266.58C65.1825 266.396 65.6105 266.304 66.0825 266.304ZM71.0583 265.356C70.8503 265.356 70.6743 265.284 70.5303 265.14C70.3863 264.996 70.3143 264.82 70.3143 264.612C70.3143 264.404 70.3863 264.228 70.5303 264.084C70.6743 263.94 70.8503 263.868 71.0583 263.868C71.2583 263.868 71.4263 263.94 71.5623 264.084C71.7063 264.228 71.7783 264.404 71.7783 264.612C71.7783 264.82 71.7063 264.996 71.5623 265.14C71.4263 265.284 71.2583 265.356 71.0583 265.356ZM71.5863 266.424V273H70.4943V266.424H71.5863ZM74.5394 267.648C74.7634 267.256 75.0914 266.936 75.5234 266.688C75.9554 266.44 76.4474 266.316 76.9994 266.316C77.5914 266.316 78.1234 266.456 78.5954 266.736C79.0674 267.016 79.4394 267.412 79.7114 267.924C79.9834 268.428 80.1194 269.016 80.1194 269.688C80.1194 270.352 79.9834 270.944 79.7114 271.464C79.4394 271.984 79.0634 272.388 78.5834 272.676C78.1114 272.964 77.5834 273.108 76.9994 273.108C76.4314 273.108 75.9314 272.984 75.4994 272.736C75.0754 272.488 74.7554 272.172 74.5394 271.788V273H73.4474V264.12H74.5394V267.648ZM79.0034 269.688C79.0034 269.192 78.9034 268.76 78.7034 268.392C78.5034 268.024 78.2314 267.744 77.8874 267.552C77.5514 267.36 77.1794 267.264 76.7714 267.264C76.3714 267.264 75.9994 267.364 75.6554 267.564C75.3194 267.756 75.0474 268.04 74.8394 268.416C74.6394 268.784 74.5394 269.212 74.5394 269.7C74.5394 270.196 74.6394 270.632 74.8394 271.008C75.0474 271.376 75.3194 271.66 75.6554 271.86C75.9994 272.052 76.3714 272.148 76.7714 272.148C77.1794 272.148 77.5514 272.052 77.8874 271.86C78.2314 271.66 78.5034 271.376 78.7034 271.008C78.9034 270.632 79.0034 270.192 79.0034 269.688ZM82.1208 265.356C81.9128 265.356 81.7368 265.284 81.5928 265.14C81.4488 264.996 81.3768 264.82 81.3768 264.612C81.3768 264.404 81.4488 264.228 81.5928 264.084C81.7368 263.94 81.9128 263.868 82.1208 263.868C82.3208 263.868 82.4888 263.94 82.6248 264.084C82.7688 264.228 82.8408 264.404 82.8408 264.612C82.8408 264.82 82.7688 264.996 82.6248 265.14C82.4888 265.284 82.3208 265.356 82.1208 265.356ZM82.6488 266.424V273H81.5568V266.424H82.6488ZM85.8419 267.324V271.2C85.8419 271.52 85.9099 271.748 86.0459 271.884C86.1819 272.012 86.4179 272.076 86.7539 272.076H87.5579V273H86.5739C85.9659 273 85.5099 272.86 85.2059 272.58C84.9019 272.3 84.7499 271.84 84.7499 271.2V267.324H83.8979V266.424H84.7499V264.768H85.8419V266.424H87.5579V267.324H85.8419ZM89.445 265.356C89.237 265.356 89.061 265.284 88.917 265.14C88.773 264.996 88.701 264.82 88.701 264.612C88.701 264.404 88.773 264.228 88.917 264.084C89.061 263.94 89.237 263.868 89.445 263.868C89.645 263.868 89.813 263.94 89.949 264.084C90.093 264.228 90.165 264.404 90.165 264.612C90.165 264.82 90.093 264.996 89.949 265.14C89.813 265.284 89.645 265.356 89.445 265.356ZM89.973 266.424V273H88.881V266.424H89.973ZM94.7022 273.108C94.0862 273.108 93.5262 272.968 93.0222 272.688C92.5262 272.408 92.1342 272.012 91.8462 271.5C91.5662 270.98 91.4262 270.38 91.4262 269.7C91.4262 269.028 91.5702 268.436 91.8582 267.924C92.1542 267.404 92.5542 267.008 93.0582 266.736C93.5622 266.456 94.1262 266.316 94.7502 266.316C95.3742 266.316 95.9382 266.456 96.4422 266.736C96.9462 267.008 97.3422 267.4 97.6302 267.912C97.9262 268.424 98.0742 269.02 98.0742 269.7C98.0742 270.38 97.9222 270.98 97.6182 271.5C97.3222 272.012 96.9182 272.408 96.4062 272.688C95.8942 272.968 95.3262 273.108 94.7022 273.108ZM94.7022 272.148C95.0942 272.148 95.4622 272.056 95.8062 271.872C96.1502 271.688 96.4262 271.412 96.6342 271.044C96.8502 270.676 96.9582 270.228 96.9582 269.7C96.9582 269.172 96.8542 268.724 96.6462 268.356C96.4382 267.988 96.1662 267.716 95.8302 267.54C95.4942 267.356 95.1302 267.264 94.7382 267.264C94.3382 267.264 93.9702 267.356 93.6342 267.54C93.3062 267.716 93.0422 267.988 92.8422 268.356C92.6422 268.724 92.5422 269.172 92.5422 269.7C92.5422 270.236 92.6382 270.688 92.8302 271.056C93.0302 271.424 93.2942 271.7 93.6222 271.884C93.9502 272.06 94.3102 272.148 94.7022 272.148ZM102.714 266.304C103.514 266.304 104.162 266.548 104.658 267.036C105.154 267.516 105.402 268.212 105.402 269.124V273H104.322V269.28C104.322 268.624 104.158 268.124 103.83 267.78C103.502 267.428 103.054 267.252 102.486 267.252C101.91 267.252 101.45 267.432 101.106 267.792C100.77 268.152 100.602 268.676 100.602 269.364V273H99.5099V266.424H100.602V267.36C100.818 267.024 101.11 266.764 101.478 266.58C101.854 266.396 102.266 266.304 102.714 266.304ZM115.977 267.084C115.977 267.78 115.737 268.36 115.257 268.824C114.785 269.28 114.061 269.508 113.085 269.508H111.477V273H110.385V264.636H113.085C114.029 264.636 114.745 264.864 115.233 265.32C115.729 265.776 115.977 266.364 115.977 267.084ZM113.085 268.608C113.693 268.608 114.141 268.476 114.429 268.212C114.717 267.948 114.861 267.572 114.861 267.084C114.861 266.052 114.269 265.536 113.085 265.536H111.477V268.608H113.085ZM116.926 269.688C116.926 269.016 117.062 268.428 117.334 267.924C117.606 267.412 117.978 267.016 118.45 266.736C118.93 266.456 119.462 266.316 120.046 266.316C120.622 266.316 121.122 266.44 121.546 266.688C121.97 266.936 122.286 267.248 122.494 267.624V266.424H123.598V273H122.494V271.776C122.278 272.16 121.954 272.48 121.522 272.736C121.098 272.984 120.602 273.108 120.034 273.108C119.45 273.108 118.922 272.964 118.45 272.676C117.978 272.388 117.606 271.984 117.334 271.464C117.062 270.944 116.926 270.352 116.926 269.688ZM122.494 269.7C122.494 269.204 122.394 268.772 122.194 268.404C121.994 268.036 121.722 267.756 121.378 267.564C121.042 267.364 120.67 267.264 120.262 267.264C119.854 267.264 119.482 267.36 119.146 267.552C118.81 267.744 118.542 268.024 118.342 268.392C118.142 268.76 118.042 269.192 118.042 269.688C118.042 270.192 118.142 270.632 118.342 271.008C118.542 271.376 118.81 271.66 119.146 271.86C119.482 272.052 119.854 272.148 120.262 272.148C120.67 272.148 121.042 272.052 121.378 271.86C121.722 271.66 121.994 271.376 122.194 271.008C122.394 270.632 122.494 270.196 122.494 269.7ZM126.536 267.492C126.728 267.116 127 266.824 127.352 266.616C127.712 266.408 128.148 266.304 128.66 266.304V267.432H128.372C127.148 267.432 126.536 268.096 126.536 269.424V273H125.444V266.424H126.536V267.492ZM131.252 267.324V271.2C131.252 271.52 131.32 271.748 131.456 271.884C131.592 272.012 131.828 272.076 132.164 272.076H132.968V273H131.984C131.376 273 130.92 272.86 130.616 272.58C130.312 272.3 130.16 271.84 130.16 271.2V267.324H129.308V266.424H130.16V264.768H131.252V266.424H132.968V267.324H131.252ZM137.495 266.304C138.295 266.304 138.943 266.548 139.439 267.036C139.935 267.516 140.183 268.212 140.183 269.124V273H139.103V269.28C139.103 268.624 138.939 268.124 138.611 267.78C138.283 267.428 137.835 267.252 137.267 267.252C136.691 267.252 136.231 267.432 135.887 267.792C135.551 268.152 135.383 268.676 135.383 269.364V273H134.291V266.424H135.383V267.36C135.599 267.024 135.891 266.764 136.259 266.58C136.635 266.396 137.047 266.304 137.495 266.304ZM147.967 269.46C147.967 269.668 147.955 269.888 147.931 270.12H142.675C142.715 270.768 142.935 271.276 143.335 271.644C143.743 272.004 144.235 272.184 144.811 272.184C145.283 272.184 145.675 272.076 145.987 271.86C146.307 271.636 146.531 271.34 146.659 270.972H147.835C147.659 271.604 147.307 272.12 146.779 272.52C146.251 272.912 145.595 273.108 144.811 273.108C144.187 273.108 143.627 272.968 143.131 272.688C142.643 272.408 142.259 272.012 141.979 271.5C141.699 270.98 141.559 270.38 141.559 269.7C141.559 269.02 141.695 268.424 141.967 267.912C142.239 267.4 142.619 267.008 143.107 266.736C143.603 266.456 144.171 266.316 144.811 266.316C145.435 266.316 145.987 266.452 146.467 266.724C146.947 266.996 147.315 267.372 147.571 267.852C147.835 268.324 147.967 268.86 147.967 269.46ZM146.839 269.232C146.839 268.816 146.747 268.46 146.563 268.164C146.379 267.86 146.127 267.632 145.807 267.48C145.495 267.32 145.147 267.24 144.763 267.24C144.211 267.24 143.739 267.416 143.347 267.768C142.963 268.12 142.743 268.608 142.687 269.232H146.839ZM150.5 267.492C150.692 267.116 150.964 266.824 151.316 266.616C151.676 266.408 152.112 266.304 152.624 266.304V267.432H152.336C151.112 267.432 150.5 268.096 150.5 269.424V273H149.408V266.424H150.5V267.492ZM156.213 273.108C155.709 273.108 155.257 273.024 154.857 272.856C154.457 272.68 154.141 272.44 153.909 272.136C153.677 271.824 153.549 271.468 153.525 271.068H154.653C154.685 271.396 154.837 271.664 155.109 271.872C155.389 272.08 155.753 272.184 156.201 272.184C156.617 272.184 156.945 272.092 157.185 271.908C157.425 271.724 157.545 271.492 157.545 271.212C157.545 270.924 157.417 270.712 157.161 270.576C156.905 270.432 156.509 270.292 155.973 270.156C155.485 270.028 155.085 269.9 154.773 269.772C154.469 269.636 154.205 269.44 153.981 269.184C153.765 268.92 153.657 268.576 153.657 268.152C153.657 267.816 153.757 267.508 153.957 267.228C154.157 266.948 154.441 266.728 154.809 266.568C155.177 266.4 155.597 266.316 156.069 266.316C156.797 266.316 157.385 266.5 157.833 266.868C158.281 267.236 158.521 267.74 158.553 268.38H157.461C157.437 268.036 157.297 267.76 157.041 267.552C156.793 267.344 156.457 267.24 156.033 267.24C155.641 267.24 155.329 267.324 155.097 267.492C154.865 267.66 154.749 267.88 154.749 268.152C154.749 268.368 154.817 268.548 154.953 268.692C155.097 268.828 155.273 268.94 155.481 269.028C155.697 269.108 155.993 269.2 156.369 269.304C156.841 269.432 157.225 269.56 157.521 269.688C157.817 269.808 158.069 269.992 158.277 270.24C158.493 270.488 158.605 270.812 158.613 271.212C158.613 271.572 158.513 271.896 158.313 272.184C158.113 272.472 157.829 272.7 157.461 272.868C157.101 273.028 156.685 273.108 156.213 273.108Z" fill="#D1CECE"/>
<path d="M80.3901 305.599V313.431C80.3901 317.124 82.0469 319.011 85.3062 319.011C88.676 319.011 90.3882 317.151 90.3882 313.431V305.599H89.4495V313.431C89.4495 316.652 88.1235 318.15 85.3062 318.15C82.0469 318.15 81.3565 315.596 81.3565 313.431V305.599H80.3901ZM102.044 306.322V307.599H102.873V306.322H102.79H102.044ZM136.461 306.322V307.599H137.316V306.322H137.233H136.461ZM140.079 306.322V309.21H138.366V309.987H140.079V316.401V316.567C140.079 317.289 140.243 317.817 140.63 318.178C141.183 318.734 142.123 318.734 142.868 318.706H142.951V317.956H142.868C142.095 317.984 141.598 317.928 141.294 317.622C141.045 317.4 140.934 317.011 140.934 316.401V309.987H143.283C143.311 310.098 146.846 318.512 146.873 318.567C146.459 319.761 146.211 320.427 145.935 320.705C145.493 321.149 145.05 321.289 144.056 321.289H143.973V322.038H144.056C145.078 322.038 145.74 322.009 146.265 321.593C146.652 321.288 146.955 320.622 147.37 319.65L151.375 309.237H150.464V309.21C150.464 309.21 147.48 317.206 147.342 317.567C147.204 317.206 143.945 309.21 143.945 309.21H140.934V306.322H140.851L140.079 306.322ZM96.5748 308.987C95.1108 308.987 93.8411 309.764 93.3163 310.986V309.21H92.4606V318.679H93.3163V313.568C93.3163 311.263 94.586 309.764 96.5748 309.764C99.1159 309.764 99.1172 311.986 99.1172 312.736V318.706H99.9729V312.875C99.9453 311.792 99.9445 308.987 96.5748 308.987V308.987ZM116.794 308.987C115.689 308.987 114.749 309.376 114.031 310.098C113.12 311.014 112.623 312.486 112.623 314.096C112.595 315.596 113.064 316.873 113.921 317.761C114.639 318.511 115.661 318.899 116.794 318.899C119.058 318.899 120.495 317.678 120.881 315.457L120.909 315.374H120.053V315.429C119.722 317.123 118.534 318.123 116.821 318.123C115.937 318.123 115.192 317.818 114.612 317.235C113.894 316.513 113.507 315.374 113.507 314.124V314.096H120.992V314.013V313.652C120.992 312.208 120.55 310.959 119.777 310.126C119.004 309.404 118.009 308.987 116.793 308.987L116.794 308.987ZM130.964 308.987C130.163 308.987 127.538 309.154 127.538 311.458C127.538 313.513 129.417 313.902 130.798 314.18L131.047 314.235C132.511 314.541 133.92 314.818 133.92 316.234C133.92 317.955 131.931 318.123 131.075 318.123C129.362 318.123 128.202 317.095 128.091 315.485V315.401H127.263V315.485C127.318 317.567 128.782 318.872 131.102 318.872C131.958 318.872 134.803 318.677 134.803 316.206C134.72 314.234 133.2 313.792 131.377 313.431L131.102 313.375C129.694 313.07 128.368 312.791 128.368 311.458C128.368 310.209 129.693 309.736 130.964 309.736C131.958 309.736 133.616 310.043 133.616 312.042V312.126H134.471V312.042C134.471 310.071 133.229 308.987 130.964 308.987V308.987ZM126.821 309.154C125.301 309.099 123.809 309.931 123.312 311.097V309.21H122.456V318.679H123.312V313.513C123.395 312.096 123.7 311.569 124.335 310.875C125.329 309.903 126.489 309.959 126.821 309.987H126.904V309.154H126.821ZM102.044 309.21V318.679H102.873V309.21H102.79H102.044ZM103.895 309.21L107.679 318.679H108.645L112.209 309.21H112.099H111.269C111.269 309.21 108.287 317.345 108.177 317.622C108.066 317.345 104.861 309.21 104.861 309.21H103.895ZM136.461 309.21V318.679H137.316V309.21H137.233H136.461ZM116.794 309.764C118.893 309.764 120.026 311.57 120.109 313.375H113.507C113.673 311.57 114.832 309.764 116.794 309.764Z" fill="black"/>
<path d="M102.182 289.966C97.597 289.827 95.0844 293.409 94.9739 296.575C94.8911 300.601 98.04 303.489 101.796 303.573C105.028 303.684 108.756 301.351 108.866 296.881C108.949 292.438 105.386 290.022 102.182 289.966V289.966ZM139.057 290.022C137.206 290.022 135.052 291.132 135.052 293.464C135.052 295.047 135.991 296.048 137.869 296.992C139.72 297.936 141.128 298.324 141.128 300.184C141.128 301.128 140.576 302.794 138.504 302.794C137.675 302.794 137.013 302.517 136.488 302.073C135.245 300.907 135.273 299.963 135.19 299.602H134.997V302.518C135.881 303.045 137.178 303.6 138.587 303.6H138.67C140.714 303.573 142.896 302.045 142.896 299.63C142.896 297.019 141.074 296.408 139.251 295.464C137.4 294.548 136.625 294.076 136.625 292.854C136.625 292.021 137.123 290.799 138.781 290.799C139.305 290.799 139.775 290.938 140.162 291.132C141.487 291.882 141.571 292.937 141.736 293.603H141.93L141.819 290.661C140.963 290.3 140.299 290.133 139.83 290.077C139.554 290.05 139.278 290.022 139.057 290.022V290.022ZM79.6436 290.161V290.355C80.0579 290.383 80.2797 290.411 80.4178 290.578C80.4455 290.633 80.5008 290.715 80.5284 290.771C80.5561 290.826 80.5547 290.91 80.5547 290.993V291.243V301.962C80.5547 303.017 80.3617 303.183 79.616 303.211V303.406H82.4335V303.211C81.6877 303.156 81.4948 303.017 81.4948 301.962V292.771C81.4948 292.604 81.4671 292.27 81.4671 292.27L81.633 292.771L86.1896 303.35H86.4662L91.1072 292.465L91.244 292.02C91.244 292.02 91.2177 292.243 91.2177 292.437V301.962C91.2177 303.017 91.0234 303.183 90.2776 303.211V303.406H94.0338V303.211C93.288 303.156 93.0951 303.017 93.0951 301.962V291.243C93.0951 290.466 93.288 290.411 94.0338 290.355V290.161H91.1071L86.9085 300.156L82.6547 290.161H79.6436ZM109.862 290.161V290.355C110.58 290.383 110.801 290.466 110.801 291.243V301.962C110.801 303.017 110.608 303.183 109.862 303.211V303.406H112.706V303.211C111.96 303.156 111.767 303.017 111.767 301.962V292.326C111.767 292.493 119.086 301.462 120.688 303.406H120.992V291.243C120.992 290.466 121.185 290.411 121.931 290.355V290.161H119.142V290.355C119.861 290.383 120.081 290.466 120.081 291.243V299.657L112.348 290.161H109.862ZM128.064 290.161C127.401 291.744 124.308 299.074 123.258 301.6C123.065 302.045 122.76 302.739 122.539 302.989C122.373 303.183 122.207 303.183 122.041 303.211V303.406H124.556V303.211C124.363 303.211 123.92 303.211 123.893 302.822C123.893 302.711 123.92 302.573 123.976 302.434C124.058 302.212 124.555 300.907 125.191 299.463H130.19C130.687 300.685 131.129 301.74 131.35 302.212C131.405 302.351 131.543 302.683 131.543 302.822C131.543 303.183 131.212 303.211 130.853 303.211V303.406H134.361V303.211C133.919 303.183 133.781 303.073 133.477 302.351L128.312 290.161H128.064ZM144.609 290.161V290.355C145.355 290.411 145.548 290.55 145.548 291.605V301.934C145.548 302.989 145.355 303.156 144.609 303.183V303.378H148.365V303.183C147.619 303.128 147.425 302.989 147.425 301.934V297.02H154.165V301.962C154.165 303.017 153.972 303.183 153.226 303.211V303.406H156.982V303.211C156.236 303.156 156.043 303.017 156.043 301.962V291.633C156.043 290.55 156.236 290.411 156.982 290.355V290.161H153.226V290.355C153.972 290.411 154.165 290.55 154.165 291.605V296.213H147.425V291.605C147.425 290.55 147.619 290.383 148.365 290.355V290.161H144.609ZM101.933 290.826C104.833 290.826 106.768 293.215 106.74 296.992C106.74 300.49 104.833 302.712 101.961 302.712C99.5855 302.712 97.0725 300.795 97.0725 296.519C97.0725 292.937 99.0607 290.826 101.933 290.826V290.826ZM127.649 293.188C127.649 293.188 128.837 296.187 129.832 298.63H125.495C126.351 296.52 127.649 293.188 127.649 293.188V293.188Z" fill="black"/>
<path d="M67.3801 296.519H67.1592V291.854C67.3525 292.326 67.3801 292.799 67.3801 293.187V296.519ZM58.5967 294.659C58.8729 294.742 59.1767 294.798 59.5082 294.826V294.603C59.232 294.576 58.9281 294.52 58.6519 294.437C58.2928 294.354 57.9614 294.27 57.6299 294.27C57.4642 294.27 57.2985 294.298 57.1604 294.354V294.603C57.2709 294.548 57.4366 294.52 57.6299 294.52C57.9338 294.492 58.2652 294.576 58.5967 294.659V294.659ZM55.9174 294.492C56.1108 294.492 56.2765 294.52 56.387 294.576V294.326C56.2489 294.27 56.0832 294.242 55.9174 294.242C55.586 294.242 55.2545 294.326 54.8955 294.409C54.6192 294.492 54.343 294.548 54.0392 294.576V294.798C54.343 294.77 54.6469 294.714 54.9507 294.631C55.3098 294.576 55.6136 294.492 55.9174 294.492V294.492ZM55.9174 293.937C56.1108 293.937 56.2765 293.992 56.387 294.02V293.77C56.2489 293.715 56.0832 293.715 55.9174 293.687C55.586 293.687 55.2545 293.77 54.8955 293.854C54.6192 293.937 54.343 293.993 54.0392 294.02V294.242C54.3707 294.215 54.6469 294.159 54.9507 294.076C55.3098 293.993 55.6136 293.909 55.9174 293.937V293.937ZM55.9174 295.075C56.1108 295.075 56.2765 295.103 56.387 295.159V294.909C56.2489 294.853 56.0832 294.853 55.9174 294.826C55.586 294.826 55.2545 294.909 54.8955 294.992C54.6192 295.075 54.343 295.131 54.0392 295.159V295.381C54.3707 295.353 54.6469 295.27 54.9507 295.214C55.3098 295.131 55.6136 295.048 55.9174 295.075ZM55.9174 293.354C56.1108 293.354 56.2765 293.409 56.387 293.437V293.187C56.2489 293.132 56.0832 293.104 55.9174 293.104C55.586 293.104 55.2545 293.187 54.8955 293.271C54.6192 293.354 54.343 293.409 54.0392 293.437V293.659C54.343 293.632 54.6469 293.576 54.9507 293.493C55.3098 293.437 55.6136 293.354 55.9174 293.354ZM54.4259 310.348C51.6914 305.822 51.7467 301.407 51.7467 300.851V290.161H72.4624V300.851C72.4624 301.407 72.5176 305.822 69.7832 310.348C67.3525 314.457 63.6789 316.262 62.1045 316.818C60.5578 316.262 56.8842 314.457 54.4259 310.348ZM59.9501 309.515L59.3977 309.07L59.7015 308.404L58.9834 308.543L58.6795 307.904L58.3481 308.543L57.6576 308.404L57.9614 309.07L57.409 309.515L58.0995 309.681V310.403L58.6795 309.959L59.232 310.403V309.681L59.9501 309.515ZM62.9055 314.041L63.5961 313.708L62.9055 313.402L63.1541 312.68L62.436 312.958L62.1322 312.264L61.8283 312.93L61.1102 312.652L61.3864 313.374L60.6959 313.68L61.3864 314.013L61.1102 314.735L61.8283 314.457L62.1322 315.152L62.436 314.457L63.1541 314.735L62.9055 314.041ZM61.3864 305.766L60.834 306.238L61.5245 306.405V307.127L62.0769 306.682L62.6569 307.127L62.6846 306.405L63.3751 306.238L62.8227 305.766L63.1265 305.1L62.4084 305.238L62.1046 304.6L61.8007 305.238L61.0826 305.1L61.3864 305.766ZM63.817 310.32L64.2313 309.876L63.6237 309.765L63.3475 309.209L63.0713 309.765L62.4636 309.876L62.9055 310.32L62.7951 310.931L63.3475 310.653L63.8999 310.931L63.817 310.32ZM65.861 308.126L66.1924 307.571H65.5572L65.2533 307.016L64.9495 307.571H64.3142L64.6457 308.126L64.3142 308.682H64.9495L65.2533 309.237L65.5572 308.682H66.1924L65.861 308.126ZM70.7223 294.742C70.5566 294.826 70.4184 294.964 70.3356 295.131C70.2527 295.27 70.2251 295.409 70.2251 295.548C70.2251 295.575 70.2251 295.603 70.2251 295.659C70.308 295.603 70.3908 295.548 70.4737 295.492C70.5289 295.436 70.5842 295.353 70.6394 295.298C70.6946 295.187 70.7223 295.02 70.7223 294.881C70.7223 294.826 70.7223 294.77 70.7223 294.742ZM68.5678 297.936C68.7336 298.019 68.9269 298.047 69.1203 298.019C69.3136 297.991 69.4517 297.908 69.5898 297.769C69.4241 297.686 69.2584 297.658 69.065 297.686C68.8717 297.713 68.7059 297.824 68.5678 297.936ZM68.5678 297.63C68.6507 297.491 68.7059 297.325 68.7059 297.158C68.7059 297.13 68.7059 297.13 68.7059 297.103C68.5402 297.186 68.4021 297.297 68.2916 297.436C68.2088 297.575 68.1535 297.741 68.1535 297.908C68.1535 297.936 68.1535 297.936 68.1535 297.963C68.3469 297.908 68.485 297.797 68.5678 297.63V297.63ZM68.7888 297.575C68.7888 297.575 68.7888 297.602 68.7888 297.575C68.844 297.575 68.8717 297.575 68.8993 297.547C69.0098 297.463 69.065 297.352 69.1203 297.214C69.1479 297.13 69.1755 297.019 69.1755 296.936C69.1755 296.853 69.1478 296.769 69.1203 296.686C69.0098 296.769 68.9269 296.853 68.8717 296.964C68.8717 297.214 68.844 297.408 68.7888 297.575V297.575ZM69.3136 297.13C69.3136 297.158 69.3136 297.158 69.3136 297.13C69.3688 297.13 69.3965 297.103 69.4241 297.075C69.507 296.964 69.5346 296.853 69.5622 296.714C69.5622 296.686 69.5622 296.658 69.5622 296.631C69.5622 296.492 69.507 296.325 69.4241 296.186C69.3412 296.297 69.2584 296.408 69.2307 296.519C69.3136 296.769 69.3412 296.936 69.3136 297.13V297.13ZM69.7003 296.575C69.7003 296.603 69.7003 296.603 69.7003 296.575C69.7555 296.575 69.7832 296.547 69.8108 296.492C69.8384 296.408 69.866 296.325 69.866 296.214C69.866 296.186 69.866 296.131 69.866 296.103C69.8383 295.936 69.7555 295.77 69.6174 295.631C69.5622 295.742 69.5345 295.881 69.5345 295.992C69.6174 296.214 69.6726 296.381 69.7003 296.575H69.7003ZM69.9765 295.936C69.9765 295.964 69.9765 295.964 69.9765 295.936C70.0317 295.909 70.0317 295.881 70.0594 295.825C70.0594 295.797 70.0594 295.797 70.0594 295.77C70.0594 295.659 70.0317 295.548 70.0042 295.437C69.9489 295.27 69.8108 295.159 69.6451 295.048C69.6174 295.103 69.6174 295.187 69.6174 295.242C69.6174 295.298 69.6174 295.353 69.6451 295.409C69.8108 295.603 69.9213 295.77 69.9765 295.936L69.9765 295.936ZM70.087 295.27C70.1146 295.242 70.1422 295.187 70.1422 295.159C70.1146 295.02 70.087 294.909 70.0041 294.798C69.8936 294.659 69.7555 294.548 69.5622 294.492C69.5622 294.631 69.5898 294.77 69.645 294.881C69.8384 294.964 69.9765 295.103 70.087 295.27H70.087ZM70.0593 294.465C70.0041 294.326 69.9489 294.215 69.8384 294.131C69.7003 294.02 69.5622 293.965 69.3688 293.937C69.3965 294.076 69.4517 294.187 69.5345 294.27C69.7279 294.326 69.8936 294.437 70.0317 294.548H70.0594C70.0594 294.548 70.0594 294.52 70.0594 294.465H70.0593ZM69.8384 293.937C69.8384 293.882 69.8107 293.854 69.8107 293.798C69.7279 293.687 69.645 293.604 69.5345 293.548C69.3688 293.465 69.2031 293.437 69.0097 293.465C69.0926 293.576 69.1478 293.687 69.2583 293.77C69.4793 293.77 69.6726 293.826 69.8384 293.937H69.8384ZM69.7279 297.491C69.8936 297.436 70.0317 297.297 70.1422 297.13C69.9489 297.103 69.7555 297.103 69.5898 297.158C69.4517 297.214 69.3136 297.352 69.2031 297.491C69.286 297.491 69.3964 297.519 69.4793 297.547C69.5622 297.547 69.645 297.547 69.7279 297.491V297.491ZM70.1975 296.853C70.3356 296.742 70.446 296.575 70.5289 296.381C70.3356 296.381 70.1422 296.436 70.0041 296.547C69.866 296.658 69.7555 296.797 69.7003 296.964C69.7831 296.936 69.8936 296.936 69.9765 296.936C70.0594 296.936 70.1422 296.908 70.1975 296.853V296.853ZM70.6946 295.575C70.5289 295.631 70.3632 295.714 70.2251 295.853C70.1146 295.992 70.0594 296.158 70.0317 296.353C70.1146 296.325 70.1975 296.297 70.3079 296.27C70.3908 296.214 70.446 296.158 70.5013 296.103C70.6394 295.964 70.6946 295.77 70.6946 295.575V295.575ZM70.5289 293.909C70.3908 294.048 70.2803 294.187 70.2251 294.381C70.1974 294.437 70.1974 294.52 70.1974 294.603C70.1974 294.715 70.2251 294.826 70.2526 294.909C70.3079 294.826 70.3907 294.77 70.446 294.715C70.5012 294.631 70.5289 294.548 70.5565 294.465C70.5841 294.409 70.5841 294.326 70.5841 294.27C70.6118 294.159 70.5841 294.048 70.5289 293.909ZM69.9765 293.687C69.9765 293.854 70.0317 294.02 70.1422 294.187C70.1699 294.104 70.2251 294.02 70.2803 293.937C70.308 293.854 70.3355 293.77 70.3355 293.687C70.3355 293.493 70.2803 293.326 70.1698 293.16C70.0593 293.326 69.9765 293.493 69.9765 293.687H69.9765ZM69.5346 292.882C69.5346 292.937 69.5346 293.021 69.5622 293.076C69.5898 293.243 69.7003 293.382 69.8384 293.521C69.8661 293.437 69.8936 293.326 69.9213 293.243C69.9213 293.215 69.9213 293.215 69.9213 293.187C69.9213 293.132 69.9213 293.076 69.8936 292.993C69.8384 292.826 69.7555 292.66 69.5898 292.521C69.5621 292.632 69.5346 292.743 69.5346 292.882L69.5346 292.882ZM69.4517 293.215C69.3412 293.132 69.2307 293.076 69.1202 293.021C68.9545 292.965 68.7612 292.993 68.5954 293.048C68.6783 293.16 68.7888 293.243 68.8993 293.298C69.0926 293.271 69.3136 293.271 69.4793 293.326H69.507C69.4793 293.298 69.4793 293.271 69.4517 293.215L69.4517 293.215ZM68.9269 292.16C68.9269 292.299 68.9545 292.438 69.0097 292.576C69.0926 292.743 69.2307 292.854 69.3964 292.937C69.3964 292.826 69.3964 292.743 69.4241 292.632C69.3964 292.549 69.3964 292.465 69.3412 292.41C69.2584 292.243 69.1203 292.104 68.9545 292.021C68.9269 292.077 68.9269 292.104 68.9269 292.16ZM68.2087 292.215C68.264 292.41 68.3745 292.576 68.5126 292.66C68.6507 292.743 68.8164 292.799 68.9821 292.826C68.9269 292.771 68.8993 292.715 68.844 292.632C68.8164 292.576 68.7888 292.493 68.7612 292.438C68.7335 292.41 68.7335 292.41 68.7059 292.382C68.5955 292.271 68.4297 292.215 68.2088 292.215L68.2087 292.215ZM66.0543 296.575C66.0543 296.714 66.1648 296.88 66.4134 296.88H66.8829C66.8277 297.047 66.7725 297.297 66.7725 297.547C66.7725 297.88 66.8277 298.158 66.9382 298.352C66.5791 298.297 66.3305 298.213 66.0819 298.074H66.0543L65.9991 298.213H66.0267C66.2477 298.324 66.441 298.38 66.6896 298.463C66.6896 298.463 66.883 298.491 67.0211 298.519C66.9934 298.546 66.9659 298.602 66.9659 298.657C66.9659 298.769 67.0487 298.852 67.1592 298.852C67.2697 298.852 67.3525 298.769 67.3525 298.657C67.3525 298.602 67.3249 298.546 67.2973 298.519C67.4354 298.491 67.6012 298.463 67.6012 298.463C67.8498 298.408 68.0707 298.352 68.2917 298.213H68.3193L68.2641 298.047H68.2365C67.9879 298.185 67.7393 298.269 67.3802 298.324C67.4631 298.13 67.546 297.852 67.546 297.519C67.546 297.269 67.5183 297.019 67.4355 296.853H67.905C68.1536 296.853 68.2641 296.714 68.2641 296.547C68.2641 296.436 68.1812 296.325 68.0431 296.325C67.9326 296.325 67.8222 296.408 67.8222 296.547C67.8222 296.575 67.8222 296.603 67.8498 296.63C67.8775 296.658 67.8775 296.714 67.7946 296.714H67.5184V293.187C67.5184 292.715 67.4907 292.132 67.2146 291.577L67.1317 291.41L67.0488 291.577C66.7726 292.132 66.745 292.715 66.745 293.187V296.714H66.4688C66.3859 296.714 66.4136 296.658 66.4136 296.63C66.4136 296.603 66.4412 296.575 66.4412 296.547C66.4412 296.436 66.3584 296.325 66.2479 296.325C66.165 296.353 66.0545 296.464 66.0545 296.575H66.0543ZM65.4743 296.991C65.4191 296.88 65.3362 296.797 65.2257 296.714C65.198 296.797 65.1705 296.88 65.1705 296.964C65.1705 297.047 65.1981 297.158 65.2257 297.241C65.2533 297.38 65.3362 297.463 65.419 297.575C65.4467 297.575 65.5019 297.602 65.5295 297.602V297.575C65.4743 297.408 65.4466 297.214 65.4743 296.991H65.4743ZM65.3085 293.465C65.1428 293.437 64.9495 293.465 64.7837 293.548C64.6733 293.604 64.5628 293.687 64.5075 293.798C64.5075 293.854 64.5075 293.881 64.4799 293.937H64.5075C64.6733 293.826 64.8666 293.77 65.0876 293.77C65.1704 293.687 65.2533 293.576 65.3085 293.465ZM65.1152 296.547C65.0876 296.436 65.0047 296.325 64.9218 296.214C64.839 296.353 64.7837 296.492 64.7837 296.658C64.7837 296.686 64.7837 296.714 64.7837 296.742C64.7837 296.88 64.839 296.991 64.9218 297.103C64.9495 297.13 65.0047 297.158 65.0323 297.186V297.158C65.0047 296.936 65.0323 296.769 65.1152 296.547V296.547ZM64.4799 296.242C64.4799 296.325 64.5076 296.408 64.5351 296.519C64.5628 296.547 64.5903 296.575 64.618 296.603C64.618 296.603 64.618 296.575 64.6456 296.575C64.6733 296.381 64.7285 296.186 64.839 296.02C64.839 295.881 64.7838 295.77 64.7285 295.659C64.5904 295.797 64.5075 295.964 64.4799 296.131C64.4799 296.158 64.4799 296.214 64.4799 296.242V296.242ZM64.7009 295.464C64.7285 295.409 64.7285 295.353 64.7285 295.298C64.7285 295.242 64.7009 295.159 64.7009 295.103C64.5352 295.214 64.4247 295.325 64.3418 295.492C64.2866 295.603 64.2866 295.714 64.2866 295.825C64.2866 295.853 64.2866 295.853 64.2866 295.881C64.3142 295.908 64.3418 295.964 64.3418 295.992C64.3418 295.992 64.3695 295.992 64.3695 295.964C64.4247 295.77 64.5352 295.603 64.7009 295.464L64.7009 295.464ZM64.2866 294.465C64.2866 294.492 64.2866 294.548 64.2866 294.576H64.3142C64.4523 294.437 64.618 294.354 64.8114 294.298C64.8943 294.187 64.9495 294.076 64.9771 293.965C64.7838 293.993 64.618 294.048 64.4799 294.159C64.3971 294.215 64.3142 294.354 64.2866 294.465H64.2866ZM64.2037 295.159C64.2313 295.187 64.2313 295.242 64.2313 295.298C64.2313 295.298 64.2313 295.298 64.259 295.298C64.3695 295.131 64.5076 294.992 64.7009 294.909C64.7561 294.798 64.7838 294.659 64.7838 294.52C64.5904 294.576 64.4523 294.687 64.3419 294.826C64.259 294.909 64.2038 295.02 64.2038 295.159H64.2037ZM64.0932 295.853C63.9827 295.714 63.817 295.631 63.6237 295.575C63.6513 295.77 63.7065 295.936 63.817 296.075C63.8722 296.131 63.9551 296.186 64.0104 296.242C64.0932 296.27 64.1761 296.297 64.2589 296.325C64.2589 296.158 64.2037 295.992 64.0932 295.853V295.853ZM63.817 296.381C63.8722 296.575 63.9827 296.742 64.1208 296.853C64.1761 296.908 64.2589 296.936 64.3418 296.964C64.4523 296.964 64.5352 296.964 64.618 296.991C64.5352 296.825 64.4523 296.658 64.3142 296.575C64.2037 296.436 64.0104 296.381 63.817 296.381V296.381ZM64.2037 297.158C64.3142 297.325 64.4247 297.436 64.618 297.519C64.7009 297.547 64.7837 297.575 64.8666 297.575C64.9495 297.547 65.06 297.547 65.1428 297.519C65.0323 297.38 64.8942 297.241 64.7561 297.186C64.5904 297.103 64.3971 297.103 64.2037 297.158V297.158ZM64.7561 297.797C64.8942 297.936 65.06 298.019 65.2533 298.047C65.419 298.074 65.6124 298.019 65.7781 297.963C65.64 297.824 65.4743 297.741 65.2809 297.713C65.1152 297.658 64.9218 297.713 64.7561 297.797ZM66.1924 297.963C66.1924 297.936 66.1924 297.936 66.1924 297.908C66.1924 297.741 66.1372 297.575 66.0543 297.436C65.9438 297.297 65.8057 297.186 65.64 297.103C65.64 297.13 65.64 297.13 65.64 297.158C65.64 297.325 65.6952 297.491 65.7781 297.63C65.861 297.797 65.9991 297.908 66.1924 297.963ZM65.4743 292.632C65.4466 292.687 65.3914 292.771 65.3362 292.826C65.5019 292.826 65.6676 292.771 65.8057 292.66C65.9438 292.549 66.0543 292.382 66.1372 292.215C65.9438 292.215 65.7505 292.271 65.6124 292.382C65.5847 292.41 65.5847 292.41 65.5572 292.438C65.5295 292.493 65.5019 292.576 65.4743 292.632L65.4743 292.632ZM64.9218 292.632C64.9495 292.743 64.9495 292.826 64.9495 292.937C65.1152 292.854 65.2533 292.715 65.3086 292.576C65.3914 292.438 65.419 292.299 65.419 292.16C65.419 292.104 65.419 292.077 65.3914 292.021C65.2257 292.104 65.0876 292.243 65.0047 292.41C64.9771 292.493 64.9495 292.549 64.9218 292.632ZM64.839 293.354C64.839 293.354 64.8666 293.354 64.839 293.354C65.06 293.298 65.2533 293.298 65.4466 293.326C65.5571 293.271 65.6676 293.187 65.7505 293.076C65.5847 293.021 65.3914 292.993 65.2257 293.048C65.0876 293.076 64.9771 293.132 64.8942 293.243C64.8666 293.271 64.8666 293.298 64.839 293.354L64.839 293.354ZM64.3971 293.187C64.3971 293.215 64.3971 293.215 64.3971 293.243C64.4523 293.326 64.4799 293.437 64.4799 293.52C64.618 293.382 64.7009 293.243 64.7561 293.076C64.7838 293.021 64.7838 292.937 64.7838 292.882C64.7838 292.771 64.7561 292.632 64.7009 292.521C64.5628 292.66 64.4523 292.798 64.3971 292.993C64.4247 293.048 64.3971 293.104 64.3971 293.187L64.3971 293.187ZM64.0104 293.687C64.0104 293.77 64.038 293.854 64.0656 293.937C64.1208 294.02 64.1761 294.104 64.2037 294.187C64.2865 294.048 64.3694 293.881 64.3694 293.687C64.3694 293.52 64.2865 293.326 64.2037 293.159C64.0932 293.326 64.0103 293.493 64.0103 293.687H64.0104ZM63.7341 294.27C63.7341 294.354 63.7341 294.409 63.7618 294.465C63.7894 294.548 63.817 294.631 63.8723 294.714C63.9551 294.77 64.0104 294.826 64.0656 294.909C64.0933 294.798 64.1208 294.687 64.1208 294.603C64.1208 294.52 64.1208 294.465 64.0932 294.381C64.038 294.215 63.9275 294.048 63.7894 293.909C63.7617 294.02 63.7341 294.159 63.7341 294.27V294.27ZM63.596 294.853C63.596 294.992 63.6237 295.159 63.7065 295.27C63.7342 295.353 63.7894 295.409 63.8723 295.464C63.9551 295.492 64.038 295.548 64.1208 295.603C64.1208 295.575 64.1208 295.52 64.1208 295.492C64.1208 295.353 64.0932 295.214 64.0104 295.075C63.9275 294.909 63.7894 294.77 63.596 294.687C63.596 294.77 63.596 294.826 63.596 294.853ZM56.8841 297.047C57.0775 296.908 57.3261 296.853 57.6299 296.853C57.9614 296.853 58.2928 296.908 58.6519 297.019C59.011 297.103 59.4253 297.214 59.812 297.186C59.812 296.991 59.812 293.104 59.812 292.382C59.812 292.326 59.812 292.299 59.812 292.271C59.3977 292.299 58.9833 292.188 58.5966 292.104C58.2652 292.021 57.9337 291.938 57.6575 291.965C57.2432 291.965 57.0222 292.104 56.8841 292.215V292.382V297.047ZM53.763 297.158C54.1497 297.186 54.5364 297.103 54.9231 296.991C55.2821 296.908 55.6136 296.825 55.945 296.825C56.2489 296.825 56.4975 296.908 56.6908 297.019V292.382V292.215C56.5527 292.077 56.3317 291.965 55.9174 291.965C55.6136 291.965 55.3098 292.021 54.9783 292.104C54.5916 292.215 54.2049 292.299 53.763 292.271C53.763 292.299 53.763 292.326 53.763 292.382C53.763 293.076 53.763 296.991 53.763 297.158V297.158ZM53.0172 297.936C53.0172 297.936 56.2489 297.936 56.3593 297.936C56.4422 298.074 56.5803 298.185 56.7737 298.185C56.967 298.185 57.1327 298.074 57.188 297.936C57.2985 297.936 60.5301 297.936 60.5301 297.936V292.382H60.4196H60.1158L60.1434 292.493V292.521V297.547C59.8949 297.547 57.188 297.547 57.0499 297.547C56.9947 297.63 56.9394 297.658 56.7737 297.658C56.6356 297.658 56.5803 297.63 56.5251 297.547C56.387 297.547 53.9011 297.547 53.4039 297.547V292.521V292.493L53.4316 292.382H53.0173L53.0172 297.936ZM54.2325 309.07L62.1045 301.962L70.0041 309.098C70.5289 308.099 70.888 307.127 71.1918 306.21L62.1045 297.991L53.0448 306.183C53.321 307.099 53.7077 308.071 54.2325 309.07ZM55.9174 295.631C56.1108 295.631 56.2765 295.659 56.387 295.714V295.464C56.2489 295.409 56.0831 295.409 55.9174 295.381C55.586 295.381 55.2545 295.464 54.8954 295.548C54.6192 295.631 54.343 295.686 54.0392 295.714V295.936C54.343 295.908 54.6468 295.825 54.9507 295.77C55.3098 295.714 55.6136 295.631 55.9174 295.631ZM55.9174 296.214C56.1108 296.214 56.2765 296.242 56.387 296.297V296.047C56.2489 295.992 56.0831 295.964 55.9174 295.964C55.586 295.964 55.2545 296.047 54.8954 296.131C54.6192 296.214 54.343 296.269 54.0392 296.297V296.519C54.343 296.492 54.6468 296.408 54.9507 296.353C55.3098 296.269 55.6136 296.186 55.9174 296.214ZM55.9174 292.799C56.1108 292.799 56.2765 292.854 56.387 292.882V292.632C56.2489 292.576 56.0831 292.576 55.9174 292.549C55.586 292.549 55.2545 292.632 54.8954 292.715C54.6192 292.799 54.343 292.854 54.0392 292.882V293.104C54.343 293.076 54.6468 293.021 54.9507 292.937C55.3098 292.854 55.6136 292.799 55.9174 292.799V292.799ZM58.5966 294.104C58.8729 294.187 59.1767 294.242 59.5081 294.27V294.048C59.2319 294.02 58.9281 293.965 58.6519 293.881C58.2928 293.798 57.9614 293.715 57.6299 293.715C57.4642 293.715 57.2985 293.743 57.1604 293.798V294.048C57.2708 293.993 57.4366 293.965 57.6299 293.965C57.9337 293.909 58.2652 293.993 58.5966 294.104V294.104ZM58.5966 292.965C58.8729 293.048 59.1767 293.104 59.5081 293.132V292.91C59.2319 292.882 58.9281 292.826 58.6519 292.743C58.2928 292.66 57.9614 292.576 57.6299 292.576C57.4642 292.576 57.2985 292.604 57.1604 292.66V292.91C57.2708 292.854 57.4366 292.826 57.6299 292.826C57.9337 292.798 58.2652 292.854 58.5966 292.965V292.965ZM58.5966 295.214C58.8729 295.27 59.2043 295.353 59.5081 295.381V295.159C59.2043 295.131 58.9281 295.075 58.6519 294.992C58.2928 294.909 57.9614 294.826 57.6575 294.826C57.4918 294.826 57.3261 294.853 57.188 294.881V295.131C57.2985 295.075 57.4642 295.048 57.6575 295.048C57.9337 295.048 58.2652 295.131 58.5966 295.214V295.214ZM58.5966 293.52C58.8729 293.604 59.1767 293.659 59.5081 293.687V293.465C59.2319 293.437 58.9281 293.382 58.6519 293.298C58.2928 293.215 57.9614 293.132 57.6299 293.132C57.4642 293.132 57.2985 293.16 57.1604 293.215V293.465C57.2708 293.409 57.4366 293.382 57.6299 293.382C57.9337 293.354 58.2652 293.437 58.5966 293.52V293.52ZM58.5966 295.797C58.8729 295.881 59.1767 295.936 59.5081 295.964V295.742C59.2319 295.714 58.9281 295.631 58.6519 295.575C58.2928 295.492 57.9614 295.409 57.6299 295.409C57.4642 295.409 57.2985 295.436 57.1604 295.492V295.742C57.2708 295.686 57.4366 295.659 57.6299 295.659C57.9337 295.631 58.2652 295.714 58.5966 295.797V295.797ZM58.5966 296.353C58.8729 296.436 59.1767 296.492 59.5081 296.519V296.297C59.2319 296.269 58.9281 296.214 58.6519 296.131C58.2928 296.047 57.9614 295.964 57.6299 295.964C57.4642 295.964 57.2985 295.992 57.1604 296.047V296.297C57.2708 296.242 57.4366 296.214 57.6299 296.214C57.9337 296.186 58.2652 296.269 58.5966 296.353V296.353ZM76.2188 308.154L76.1636 308.293C75.6388 310.042 74.7549 311.792 74.1197 312.93L73.9816 313.152L73.0701 312.319C73.0424 312.375 72.9872 312.458 72.9596 312.514C70.6394 316.234 67.3801 318.928 63.4856 320.372L62.1045 320.872L60.7235 320.372C56.8566 318.956 53.5697 316.234 51.2771 312.514C51.2495 312.458 51.2219 312.375 51.1666 312.319L50.2275 313.152L50.0894 312.902C49.4541 311.736 48.5979 309.987 48.0455 308.265L48.0178 308.154L50.2551 306.127L50.5313 305.877L50.6418 306.21C50.7523 306.627 50.8904 307.016 51.0285 307.404L51.6638 306.821L51.9124 306.599L52.0229 306.932C52.4924 308.348 53.1277 309.681 53.8735 310.875C55.8346 314.013 58.569 316.29 61.8007 317.484C61.8007 317.484 62.0217 317.567 62.1321 317.595C62.2426 317.567 62.4636 317.484 62.4636 317.484C65.6952 316.29 68.4573 314.013 70.3908 310.875C71.1366 309.681 71.7719 308.348 72.2414 306.932L72.3519 306.599L73.2358 307.404C73.3739 307.016 73.512 306.627 73.6225 306.21L73.7329 305.877L76.2188 308.154ZM49.8684 311.486L49.4541 308.848L50.6694 307.738C50.5313 307.404 50.4208 307.043 50.3104 306.682C49.9513 307.016 48.7083 308.126 48.5426 308.293C48.9017 309.404 49.3712 310.514 49.8684 311.486ZM50.9456 311.93C50.6694 311.458 50.3932 310.959 50.1723 310.459L50.4761 312.375C50.5589 312.264 50.7523 312.097 50.9456 311.93V311.93ZM74.0644 310.459C73.8434 310.959 73.5672 311.458 73.291 311.93C73.4844 312.097 73.6501 312.264 73.7606 312.375L74.0644 310.459ZM74.2301 308.932C74.0368 308.765 72.8491 307.682 72.5176 307.377C72.0481 308.709 71.468 309.987 70.7499 311.125C68.7612 314.346 65.9438 316.679 62.6017 317.928L62.1045 318.095L61.635 317.928C58.2928 316.707 55.5031 314.346 53.4868 311.125C52.7686 309.987 52.1886 308.709 51.719 307.377C51.36 307.682 50.1999 308.765 50.0065 308.932C50.4485 310.098 51.0285 311.236 51.6638 312.264C53.9287 315.901 57.1327 318.539 60.9168 319.928C60.9168 319.928 62.0216 320.316 62.1321 320.372C62.2702 320.316 63.3751 319.928 63.3751 319.928C67.1591 318.539 70.3632 315.873 72.6281 312.264C73.2081 311.264 73.7882 310.126 74.2301 308.932ZM75.694 308.265C75.5283 308.099 74.2854 306.988 73.9263 306.655C73.8158 307.016 73.7053 307.377 73.5672 307.71L74.7825 308.82L74.3682 311.486C74.8378 310.514 75.335 309.404 75.694 308.265V308.265ZM51.8848 311.653L51.9124 311.764L51.8295 311.819C51.7743 311.736 51.7467 311.653 51.6914 311.542C51.6362 311.458 51.5809 311.375 51.5257 311.264L51.6086 311.236L51.6914 311.32C51.7743 311.236 51.9124 311.125 51.9676 311.014L51.7743 310.653L51.3876 310.736L51.4152 310.847L51.36 310.875C51.3324 310.792 51.2772 310.736 51.2495 310.653C51.2219 310.598 51.1943 310.542 51.1391 310.459L51.2219 310.431L51.3048 310.514C51.581 310.514 52.161 310.403 52.5201 310.348C52.5753 310.431 52.6582 310.486 52.7135 310.542L52.7411 310.653L52.382 311.097C52.1887 311.292 51.9677 311.569 51.8849 311.653L51.8848 311.653ZM52.1057 310.903L52.4372 310.542L51.94 310.653L52.1057 310.903ZM54.122 312.958L54.1773 312.902C54.122 312.847 54.0944 312.791 54.0392 312.708C53.9839 312.652 53.9563 312.569 53.9011 312.514L53.8182 312.569L53.8734 312.68C53.6801 312.819 53.2381 313.18 53.2381 313.18C53.3486 312.847 53.4867 312.458 53.6248 312.125C53.5696 312.069 53.542 312.014 53.4867 311.958C53.4591 311.903 53.4038 311.847 53.3762 311.792L53.321 311.847L53.3762 311.958C53.2934 312.042 53.2105 312.097 53.1 312.18L52.7962 312.402C52.6857 312.486 52.6028 312.541 52.4924 312.597L52.4095 312.514L52.3543 312.569C52.4095 312.625 52.4371 312.68 52.4924 312.763C52.5476 312.819 52.5752 312.902 52.6305 312.958L52.6857 312.902L52.6028 312.763C52.7962 312.625 53.0448 312.43 53.2657 312.264C53.1276 312.597 53.0172 312.958 52.879 313.347C52.9067 313.374 52.9343 313.43 52.9619 313.458C52.9896 313.485 53.0171 313.541 53.0448 313.569C53.1553 313.485 53.2657 313.374 53.4315 313.263L53.7353 313.041C53.8458 312.958 53.9563 312.902 54.0391 312.847L54.122 312.958ZM54.2325 313.985C53.9287 314.263 53.9563 314.679 54.2049 314.929C54.3706 315.096 54.5363 315.207 54.8402 315.235L54.8678 315.068C54.7021 315.04 54.564 314.985 54.4811 314.874C54.2878 314.679 54.2878 314.402 54.5088 314.18C54.7297 313.958 54.9783 314.041 55.1164 314.207C55.1993 314.291 55.2545 314.402 55.2545 314.513L55.1993 314.624L55.2545 314.707C55.3374 314.652 55.4479 314.568 55.5307 314.541C55.4755 314.374 55.3926 314.263 55.2822 314.124C54.9783 313.763 54.5364 313.708 54.2326 313.985L54.2325 313.985ZM56.9118 316.54C56.6632 316.845 56.2765 316.873 55.8898 316.568C55.5307 316.262 55.4755 315.901 55.7517 315.54C56.0003 315.235 56.4146 315.207 56.7737 315.513C57.1327 315.818 57.188 316.207 56.9118 316.54ZM56.6356 315.679C56.4422 315.513 56.1936 315.596 56.0003 315.79C55.8069 316.012 55.8069 316.262 56.0003 316.429C56.1936 316.595 56.4422 316.512 56.6356 316.318C56.8013 316.096 56.8289 315.818 56.6356 315.679V315.679ZM58.8452 317.456C58.7624 317.623 58.569 317.651 58.3757 317.567C58.4033 317.706 58.4585 318.178 58.4862 318.262L58.5138 318.317L58.4586 318.4C58.3481 318.317 58.21 318.261 58.0995 318.206C58.0995 317.984 58.0719 317.651 58.0443 317.456L57.9614 317.401L57.9062 317.512C57.8234 317.623 57.7681 317.734 57.7405 317.817L57.8234 317.901L57.7682 317.984C57.6853 317.928 57.6024 317.873 57.5196 317.817C57.4367 317.762 57.3538 317.706 57.2434 317.651L57.2986 317.567L57.4091 317.623C57.4919 317.54 57.5472 317.428 57.63 317.317L57.8234 316.984C57.9062 316.873 57.9615 316.762 58.0167 316.679L57.9338 316.595L57.9891 316.512C58.0443 316.568 58.1272 316.595 58.1824 316.651C58.2653 316.706 58.3481 316.734 58.431 316.79C58.5139 316.845 58.5967 316.873 58.6796 316.929C58.9558 317.095 58.9558 317.29 58.8453 317.456L58.8452 317.456ZM58.4309 316.984C58.3481 316.929 58.3204 316.929 58.2652 316.901C58.2376 316.956 58.1823 317.04 58.1271 317.123L58.0719 317.206C58.0995 317.234 58.1271 317.262 58.1547 317.29C58.3205 317.401 58.4586 317.401 58.5414 317.262C58.5966 317.151 58.5691 317.067 58.4309 316.984L58.4309 316.984ZM60.5301 318.484C60.5025 318.734 60.4749 319.095 60.4749 319.233L60.5578 319.289L60.5301 319.372C60.4473 319.317 60.3368 319.289 60.2539 319.233C60.171 319.178 60.0606 319.15 59.9777 319.122L60.0053 319.039L60.1158 319.067C60.1435 318.956 60.171 318.789 60.171 318.678L59.7843 318.511L59.5358 318.817L59.6186 318.872L59.591 318.956C59.5081 318.928 59.4253 318.872 59.37 318.845C59.3148 318.817 59.2319 318.789 59.1767 318.761L59.2043 318.678L59.3148 318.706C59.5358 318.539 59.9224 318.123 60.1987 317.817C60.3091 317.845 60.392 317.845 60.4749 317.873L60.5854 317.956L60.5301 318.484ZM60.2539 317.984L59.9224 318.373L60.1987 318.511L60.2539 317.984ZM64.3142 318.956C64.259 318.845 64.2037 318.761 64.1485 318.622L64.0104 318.289C63.9551 318.15 63.8999 318.067 63.8723 317.956L63.9827 317.901L63.9551 317.817C63.8722 317.873 63.7617 317.901 63.6789 317.956C63.596 317.984 63.4855 318.039 63.4027 318.067L63.4303 318.15L63.5408 318.123C63.596 318.234 63.6513 318.317 63.7065 318.456L63.8446 318.789C63.8998 318.928 63.9275 319.011 63.9827 319.122L63.8723 319.178L63.8999 319.261C63.9828 319.206 64.0932 319.178 64.1761 319.122C64.259 319.094 64.3695 319.039 64.4523 319.011L64.4247 318.928L64.3142 318.956ZM66.6896 317.678C66.6344 317.595 66.5515 317.484 66.4962 317.373L66.3029 317.04C66.22 316.929 66.1648 316.818 66.1372 316.734L66.22 316.651L66.1648 316.568C66.082 316.623 65.9991 316.679 65.9439 316.707C65.861 316.762 65.7781 316.79 65.6953 316.845C65.7505 317.012 65.861 317.678 65.8886 317.817C65.7505 317.706 65.2533 317.317 65.1428 317.179C65.06 317.234 64.9771 317.29 64.9219 317.317C64.839 317.373 64.7561 317.401 64.6733 317.456L64.7285 317.54L64.839 317.512L64.9218 317.678C65.0047 317.845 65.3085 318.345 65.3638 318.484L65.2809 318.567L65.3361 318.65C65.3913 318.622 65.4742 318.567 65.5295 318.539C65.5847 318.511 65.6676 318.456 65.7228 318.428L65.6676 318.345L65.5571 318.4C65.5019 318.317 65.419 318.206 65.3638 318.095L65.2533 317.9C65.1704 317.734 65.0876 317.623 65.06 317.567C65.5295 317.984 65.8057 318.178 65.9162 318.289L66.0819 318.178L65.861 317.067C65.8886 317.123 65.9714 317.234 66.0543 317.401L66.1648 317.595C66.2477 317.706 66.2753 317.817 66.3305 317.928L66.2477 318.012L66.2753 318.095C66.3582 318.039 66.441 317.984 66.5239 317.928C66.6068 317.873 66.7172 317.817 66.8001 317.762L66.7725 317.678L66.6896 317.678ZM67.9602 316.707C67.8773 316.623 67.7944 316.54 67.7116 316.429L67.5458 316.207C67.463 316.123 67.3801 316.012 67.3249 315.901C67.3525 315.873 67.3801 315.818 67.4354 315.79C67.5735 315.679 67.6839 315.707 67.7668 315.79C67.8497 315.901 67.8773 316.04 67.7392 316.123C67.7115 316.151 67.6839 316.179 67.6563 316.179L67.7115 316.346C67.7667 316.318 67.822 316.262 67.8772 316.234C68.1535 316.012 68.1535 315.735 68.0153 315.54C67.8772 315.374 67.6563 315.346 67.4353 315.54C67.3801 315.596 67.3248 315.651 67.242 315.707C67.1591 315.79 67.0762 315.846 67.021 315.901C66.9658 315.957 66.8829 316.012 66.8 316.068L66.8552 316.123L66.9657 316.068C67.0486 316.151 67.1314 316.234 67.2143 316.346L67.4353 316.651C67.5181 316.762 67.601 316.845 67.6562 316.929L67.5734 317.012L67.6286 317.067C67.7115 317.012 67.7943 316.929 67.8772 316.873C67.96 316.818 68.0429 316.762 68.1534 316.651L68.0982 316.595L67.9602 316.707ZM70.1422 314.707L70.1974 314.763C70.1146 314.818 70.0593 314.902 69.9765 314.985C69.8936 315.068 69.8384 315.151 69.7555 315.207L69.7003 315.152L69.7555 315.068C69.6726 315.013 69.5069 314.929 69.3964 314.874L69.0926 315.179L69.2859 315.513L69.3688 315.457L69.424 315.513C69.3688 315.568 69.3135 315.624 69.2583 315.679C69.2031 315.735 69.1478 315.79 69.1202 315.846L69.065 315.79L69.1202 315.707C69.0373 315.457 68.7611 314.929 68.5954 314.568C68.6506 314.485 68.7059 314.402 68.7335 314.319L68.844 314.263L69.3411 314.485C69.5621 314.596 69.8936 314.735 70.004 314.763L70.1422 314.707ZM69.286 314.791L68.8164 314.568L69.065 315.013L69.286 314.791ZM71.5509 312.902L71.6061 312.958C71.5232 313.069 71.4404 313.18 71.3851 313.291C71.1365 313.291 70.8051 313.263 70.6117 313.263L70.5565 313.347L70.6394 313.43C70.7499 313.513 70.8327 313.569 70.9432 313.624L71.0261 313.541L71.1089 313.596C71.0537 313.68 70.9708 313.763 70.9156 313.846C70.8604 313.93 70.8051 314.013 70.7223 314.096L70.6394 314.041L70.6946 313.93C70.6117 313.846 70.5289 313.791 70.4184 313.708L70.1146 313.485C70.0041 313.402 69.9212 313.347 69.8107 313.263L69.7279 313.347L69.645 313.291C69.7002 313.236 69.7555 313.18 69.7831 313.097C69.8383 313.013 69.8936 312.958 69.9488 312.875C70.004 312.791 70.0593 312.736 70.1146 312.652C70.3355 312.347 70.5289 312.375 70.667 312.486C70.8051 312.597 70.8327 312.791 70.7498 312.958C70.888 312.958 71.3575 312.93 71.4404 312.93L71.5509 312.902ZM70.5289 312.791C70.446 312.708 70.3356 312.736 70.2527 312.875C70.1975 312.93 70.1698 312.986 70.1422 313.013C70.1974 313.041 70.2527 313.124 70.3632 313.18L70.446 313.236C70.4737 313.208 70.5013 313.18 70.5289 313.152C70.6394 313.013 70.6394 312.902 70.5289 312.791V312.791ZM72.49 311.625C72.2414 312.042 71.8823 312.153 71.5233 311.93C71.1918 311.736 71.0813 311.347 71.3299 310.931C71.5785 310.514 71.91 310.403 72.2966 310.625C72.6281 310.792 72.7386 311.209 72.49 311.625V311.625ZM72.1033 310.931C71.8547 310.792 71.6061 310.82 71.468 311.014C71.3299 311.236 71.4404 311.458 71.689 311.625C71.9376 311.764 72.1862 311.736 72.3243 311.542C72.4624 311.32 72.3519 311.07 72.1033 310.931ZM62.1045 318.789C61.9664 318.789 61.8283 318.928 61.8283 319.095C61.8283 319.261 61.9664 319.4 62.1045 319.4C62.2702 319.4 62.4083 319.261 62.4083 319.095C62.4083 318.928 62.2702 318.789 62.1045 318.789ZM51.3323 309.542C51.4981 309.542 51.6362 309.404 51.6362 309.265C51.6362 309.098 51.4981 308.959 51.3323 308.959C51.1666 308.959 51.0561 309.098 51.0561 309.265C51.0561 309.404 51.1942 309.542 51.3323 309.542ZM72.9319 309.542C73.0977 309.542 73.2358 309.404 73.2358 309.265C73.2358 309.098 73.0977 308.959 72.9319 308.959C72.7938 308.959 72.6557 309.098 72.6557 309.265C72.6281 309.404 72.7662 309.542 72.9319 309.542Z" fill="black"/>
</svg>
