<svg width="124" height="75" viewBox="0 0 124 75" fill="none" xmlns="http://www.w3.org/2000/svg">
<path d="M0 0.0904541L0.150391 0L124 74.5116L123.75 74.662H0V0.0904541Z" fill="black"/>
<path fill-rule="evenodd" clip-rule="evenodd" d="M31.7686 46.7954C32.6597 46.7954 33.0656 45.6832 32.384 45.1092L26.5443 40.1916C26.1721 39.8782 25.6283 39.8782 25.256 40.1916L19.4164 45.1092C18.7347 45.6833 19.1406 46.7954 20.0318 46.7954V46.7954C20.5594 46.7954 20.9871 47.2232 20.9871 47.7508V53.8349C20.9871 54.3872 21.4349 54.8349 21.9871 54.8349H29.8132C30.3655 54.8349 30.8132 54.3872 30.8132 53.8349V47.7508C30.8132 47.2232 31.2409 46.7954 31.7686 46.7954V46.7954Z" fill="white"/>
</svg>
