<svg width="350" height="170" viewBox="0 0 350 170" fill="none" xmlns="http://www.w3.org/2000/svg">
<path d="M11.3798 26.4052V33.3405H22.5642V39.7875H11.3798V47.3089H24.0294V54H3.0281V19.7141H24.0294V26.4052H11.3798ZM41.7104 46.1855L47.6201 26.7471H56.509L46.8386 54H36.5333L26.8629 26.7471H35.8007L41.7104 46.1855ZM85.7144 39.934C85.7144 40.7154 85.6656 41.5294 85.5679 42.376H66.6667C66.7969 44.0691 67.3342 45.3715 68.2784 46.2832C69.2552 47.1624 70.4437 47.6019 71.8437 47.6019C73.9276 47.6019 75.3765 46.7228 76.1905 44.9645H85.0795C84.6236 46.7554 83.7933 48.3671 82.5886 49.7997C81.4164 51.2324 79.935 52.3557 78.1441 53.1697C76.3533 53.9837 74.3509 54.3907 72.1368 54.3907C69.4668 54.3907 67.0899 53.8209 65.0061 52.6813C62.9222 51.5417 61.2942 49.9137 60.1221 47.7973C58.9499 45.6809 58.3638 43.2063 58.3638 40.3735C58.3638 37.5408 58.9336 35.0662 60.0732 32.9498C61.2454 30.8334 62.8734 29.2054 64.9573 28.0658C67.0411 26.9262 69.4343 26.3564 72.1368 26.3564C74.7742 26.3564 77.1185 26.9099 79.1698 28.0169C81.2211 29.124 82.8165 30.7032 83.9561 32.7545C85.1283 34.8058 85.7144 37.1989 85.7144 39.934ZM77.1673 37.7362C77.1673 36.3035 76.6789 35.1639 75.7021 34.3173C74.7253 33.4708 73.5043 33.0475 72.0391 33.0475C70.639 33.0475 69.4506 33.4545 68.4738 34.2685C67.5295 35.0825 66.9434 36.2384 66.7155 37.7362H77.1673ZM98.472 31.2892C99.4488 29.7915 100.67 28.6193 102.135 27.7727C103.6 26.8936 105.228 26.4541 107.019 26.4541V35.2942H104.724C102.64 35.2942 101.077 35.75 100.035 36.6617C98.993 37.5408 98.472 39.1037 98.472 41.3504V54H90.1203V26.7471H98.472V31.2892ZM138.85 26.7471L121.756 66.9427H112.769L119.021 53.072L107.934 26.7471H117.263L123.563 43.7924L129.815 26.7471H138.85ZM140.21 40.3247C140.21 37.5245 140.73 35.0662 141.772 32.9498C142.847 30.8334 144.296 29.2054 146.119 28.0658C147.943 26.9262 149.978 26.3564 152.224 26.3564C154.015 26.3564 155.643 26.7308 157.108 27.4797C158.606 28.2286 159.778 29.238 160.625 30.5078V17.8582H168.976V54H160.625V50.0928C159.843 51.3952 158.72 52.4371 157.255 53.2186C155.822 54 154.145 54.3907 152.224 54.3907C149.978 54.3907 147.943 53.8209 146.119 52.6813C144.296 51.5091 142.847 49.8649 141.772 47.7484C140.73 45.5995 140.21 43.1249 140.21 40.3247ZM160.625 40.3735C160.625 38.2897 160.039 36.6454 158.867 35.4407C157.727 34.2359 156.327 33.6336 154.666 33.6336C153.006 33.6336 151.589 34.2359 150.417 35.4407C149.278 36.6128 148.708 38.2409 148.708 40.3247C148.708 42.4086 149.278 44.0691 150.417 45.3064C151.589 46.5111 153.006 47.1135 154.666 47.1135C156.327 47.1135 157.727 46.5111 158.867 45.3064C160.039 44.1017 160.625 42.4574 160.625 40.3735ZM173.358 40.3247C173.358 37.5245 173.879 35.0662 174.921 32.9498C175.995 30.8334 177.444 29.2054 179.268 28.0658C181.091 26.9262 183.126 26.3564 185.373 26.3564C187.294 26.3564 188.971 26.7471 190.403 27.5285C191.868 28.31 192.992 29.3356 193.773 30.6055V26.7471H202.125V54H193.773V50.1416C192.959 51.4115 191.82 52.4371 190.354 53.2186C188.922 54 187.245 54.3907 185.324 54.3907C183.11 54.3907 181.091 53.8209 179.268 52.6813C177.444 51.5091 175.995 49.8649 174.921 47.7484C173.879 45.5995 173.358 43.1249 173.358 40.3247ZM193.773 40.3735C193.773 38.2897 193.187 36.6454 192.015 35.4407C190.875 34.2359 189.475 33.6336 187.815 33.6336C186.154 33.6336 184.738 34.2359 183.566 35.4407C182.426 36.6128 181.856 38.2409 181.856 40.3247C181.856 42.4086 182.426 44.0691 183.566 45.3064C184.738 46.5111 186.154 47.1135 187.815 47.1135C189.475 47.1135 190.875 46.5111 192.015 45.3064C193.187 44.1017 193.773 42.4574 193.773 40.3735ZM236.006 26.7471L218.912 66.9427H209.925L216.177 53.072L205.09 26.7471H214.419L220.719 43.7924L226.971 26.7471H236.006Z" fill="black"/>
<path d="M96.3713 93.9438H83.5752L81.5239 100H72.7814L85.1869 65.7141H94.8573L107.263 100H98.4226L96.3713 93.9438ZM94.2223 87.4969L89.9732 74.9449L85.773 87.4969H94.2223ZM137.949 72.7471V100H129.598V96.2881C128.751 97.4929 127.595 98.4697 126.13 99.2186C124.697 99.9349 123.102 100.293 121.344 100.293C119.26 100.293 117.42 99.8372 115.825 98.9255C114.229 97.9813 112.992 96.63 112.113 94.8718C111.234 93.1135 110.794 91.0459 110.794 88.669V72.7471H119.097V87.5457C119.097 89.3691 119.569 90.7855 120.513 91.7948C121.458 92.8042 122.727 93.3089 124.323 93.3089C125.951 93.3089 127.237 92.8042 128.181 91.7948C129.126 90.7855 129.598 89.3691 129.598 87.5457V72.7471H137.949ZM155.035 100.391C152.658 100.391 150.542 99.9837 148.686 99.1697C146.83 98.3557 145.365 97.2487 144.29 95.8486C143.216 94.4159 142.613 92.8205 142.483 91.0622H150.737C150.835 92.0065 151.274 92.7716 152.056 93.3577C152.837 93.9438 153.798 94.2368 154.937 94.2368C155.979 94.2368 156.777 94.0415 157.331 93.6508C157.917 93.2275 158.21 92.6902 158.21 92.039C158.21 91.2576 157.803 90.6878 156.989 90.3296C156.175 89.9389 154.856 89.5156 153.033 89.0598C151.079 88.6039 149.451 88.1318 148.149 87.6434C146.846 87.1224 145.723 86.3247 144.779 85.2502C143.834 84.1432 143.362 82.6617 143.362 80.8058C143.362 79.2429 143.785 77.8265 144.632 76.5566C145.511 75.2542 146.781 74.2286 148.442 73.4797C150.135 72.7308 152.137 72.3564 154.449 72.3564C157.868 72.3564 160.554 73.2029 162.508 74.8961C164.494 76.5892 165.633 78.8359 165.926 81.636H158.21C158.079 80.6918 157.656 79.9429 156.94 79.3894C156.256 78.8359 155.344 78.5591 154.205 78.5591C153.228 78.5591 152.479 78.7545 151.958 79.1452C151.437 79.5033 151.177 80.008 151.177 80.6592C151.177 81.4407 151.584 82.0268 152.398 82.4175C153.244 82.8082 154.547 83.1989 156.305 83.5896C158.324 84.1106 159.968 84.6316 161.238 85.1525C162.508 85.6409 163.615 86.4549 164.559 87.5946C165.536 88.7016 166.04 90.1994 166.073 92.0879C166.073 93.6833 165.617 95.116 164.705 96.3858C163.826 97.6231 162.54 98.5999 160.847 99.3162C159.186 100.033 157.249 100.391 155.035 100.391ZM186.372 92.9182V100H182.123C179.095 100 176.734 99.2674 175.041 97.8022C173.348 96.3044 172.501 93.8787 172.501 90.525V79.6824H169.18V72.7471H172.501V66.1048H180.853V72.7471H186.323V79.6824H180.853V90.6227C180.853 91.4367 181.048 92.0227 181.439 92.3809C181.83 92.7391 182.481 92.9182 183.393 92.9182H186.372ZM199.376 77.2892C200.352 75.7915 201.573 74.6193 203.039 73.7727C204.504 72.8936 206.132 72.4541 207.923 72.4541V81.2942H205.627C203.543 81.2942 201.98 81.75 200.938 82.6617C199.897 83.5408 199.376 85.1037 199.376 87.3504V100H191.024V72.7471H199.376V77.2892ZM210.254 86.3247C210.254 83.5245 210.775 81.0662 211.817 78.9498C212.891 76.8334 214.34 75.2054 216.164 74.0658C217.987 72.9262 220.022 72.3564 222.269 72.3564C224.19 72.3564 225.867 72.7471 227.299 73.5285C228.764 74.31 229.888 75.3356 230.669 76.6055V72.7471H239.021V100H230.669V96.1416C229.855 97.4115 228.716 98.4371 227.25 99.2186C225.818 100 224.141 100.391 222.22 100.391C220.006 100.391 217.987 99.8209 216.164 98.6813C214.34 97.5091 212.891 95.8649 211.817 93.7484C210.775 91.5995 210.254 89.1249 210.254 86.3247ZM230.669 86.3735C230.669 84.2897 230.083 82.6454 228.911 81.4407C227.771 80.2359 226.371 79.6336 224.711 79.6336C223.05 79.6336 221.634 80.2359 220.462 81.4407C219.322 82.6128 218.752 84.2409 218.752 86.3247C218.752 88.4086 219.322 90.0691 220.462 91.3064C221.634 92.5111 223.05 93.1135 224.711 93.1135C226.371 93.1135 227.771 92.5111 228.911 91.3064C230.083 90.1017 230.669 88.4574 230.669 86.3735ZM253.415 63.8582V100H245.063V63.8582H253.415ZM263.667 69.9144C262.202 69.9144 260.997 69.4911 260.053 68.6445C259.142 67.7654 258.686 66.6909 258.686 65.421C258.686 64.1186 259.142 63.0442 260.053 62.1976C260.997 61.3185 262.202 60.8789 263.667 60.8789C265.1 60.8789 266.272 61.3185 267.184 62.1976C268.128 63.0442 268.6 64.1186 268.6 65.421C268.6 66.6909 268.128 67.7654 267.184 68.6445C266.272 69.4911 265.1 69.9144 263.667 69.9144ZM267.819 72.7471V100H259.467V72.7471H267.819ZM272.211 86.3247C272.211 83.5245 272.732 81.0662 273.774 78.9498C274.848 76.8334 276.297 75.2054 278.12 74.0658C279.944 72.9262 281.979 72.3564 284.225 72.3564C286.146 72.3564 287.823 72.7471 289.256 73.5285C290.721 74.31 291.844 75.3356 292.626 76.6055V72.7471H300.978V100H292.626V96.1416C291.812 97.4115 290.672 98.4371 289.207 99.2186C287.774 100 286.098 100.391 284.177 100.391C281.962 100.391 279.944 99.8209 278.12 98.6813C276.297 97.5091 274.848 95.8649 273.774 93.7484C272.732 91.5995 272.211 89.1249 272.211 86.3247ZM292.626 86.3735C292.626 84.2897 292.04 82.6454 290.868 81.4407C289.728 80.2359 288.328 79.6336 286.667 79.6336C285.007 79.6336 283.59 80.2359 282.418 81.4407C281.279 82.6128 280.709 84.2409 280.709 86.3247C280.709 88.4086 281.279 90.0691 282.418 91.3064C283.59 92.5111 285.007 93.1135 286.667 93.1135C288.328 93.1135 289.728 92.5111 290.868 91.3064C292.04 90.1017 292.626 88.4574 292.626 86.3735ZM323.625 72.4541C326.816 72.4541 329.356 73.496 331.244 75.5798C333.166 77.6311 334.126 80.4639 334.126 84.0781V100H325.823V85.2014C325.823 83.378 325.351 81.9616 324.407 80.9523C323.463 79.9429 322.193 79.4382 320.597 79.4382C319.002 79.4382 317.732 79.9429 316.788 80.9523C315.843 81.9616 315.371 83.378 315.371 85.2014V100H307.02V72.7471H315.371V76.3613C316.218 75.1566 317.358 74.2123 318.79 73.5285C320.223 72.8122 321.835 72.4541 323.625 72.4541Z" fill="black"/>
<path d="M15.8731 111.253C19.4873 111.253 22.6456 111.969 25.3481 113.402C28.0506 114.834 30.1345 116.853 31.5997 119.458C33.0975 122.03 33.8463 125.009 33.8463 128.396C33.8463 131.749 33.0975 134.728 31.5997 137.333C30.1345 139.938 28.0344 141.957 25.2993 143.389C22.5968 144.822 19.4547 145.538 15.8731 145.538H3.0281V111.253H15.8731ZM15.3359 138.31C18.4942 138.31 20.9525 137.447 22.7108 135.722C24.469 133.996 25.3481 131.554 25.3481 128.396C25.3481 125.237 24.469 122.779 22.7108 121.021C20.9525 119.262 18.4942 118.383 15.3359 118.383H11.3798V138.31H15.3359ZM64.2037 131.472C64.2037 132.254 64.1548 133.068 64.0571 133.914H45.1559C45.2862 135.608 45.8234 136.91 46.7677 137.822C47.7445 138.701 48.9329 139.14 50.333 139.14C52.4169 139.14 53.8658 138.261 54.6798 136.503H63.5687C63.1129 138.294 62.2826 139.906 61.0779 141.338C59.9057 142.771 58.4242 143.894 56.6334 144.708C54.8426 145.522 52.8401 145.929 50.6261 145.929C47.9561 145.929 45.5792 145.359 43.4954 144.22C41.4115 143.08 39.7835 141.452 38.6113 139.336C37.4392 137.219 36.8531 134.745 36.8531 131.912C36.8531 129.079 37.4229 126.605 38.5625 124.488C39.7347 122.372 41.3627 120.744 43.4465 119.604C45.5304 118.465 47.9236 117.895 50.6261 117.895C53.2634 117.895 55.6078 118.448 57.6591 119.555C59.7104 120.662 61.3058 122.242 62.4454 124.293C63.6176 126.344 64.2037 128.737 64.2037 131.472ZM55.6566 129.275C55.6566 127.842 55.1682 126.702 54.1914 125.856C53.2146 125.009 51.9936 124.586 50.5284 124.586C49.1283 124.586 47.9398 124.993 46.963 125.807C46.0188 126.621 45.4327 127.777 45.2048 129.275H55.6566ZM79.6964 145.929C77.3195 145.929 75.203 145.522 73.3471 144.708C71.4912 143.894 70.026 142.787 68.9515 141.387C67.877 139.954 67.2746 138.359 67.1444 136.601H75.3984C75.4961 137.545 75.9356 138.31 76.7171 138.896C77.4985 139.482 78.4591 139.775 79.5987 139.775C80.6406 139.775 81.4383 139.58 81.9918 139.189C82.5779 138.766 82.871 138.229 82.871 137.577C82.871 136.796 82.464 136.226 81.65 135.868C80.836 135.477 79.5173 135.054 77.6939 134.598C75.7403 134.142 74.1123 133.67 72.8099 133.182C71.5075 132.661 70.3841 131.863 69.4399 130.789C68.4956 129.682 68.0235 128.2 68.0235 126.344C68.0235 124.781 68.4468 123.365 69.2934 122.095C70.1725 120.793 71.4423 119.767 73.1029 119.018C74.796 118.269 76.7985 117.895 79.1103 117.895C82.5291 117.895 85.2153 118.741 87.1689 120.435C89.1551 122.128 90.2947 124.374 90.5877 127.175H82.871C82.7407 126.23 82.3175 125.481 81.6011 124.928C80.9174 124.374 80.0057 124.098 78.8661 124.098C77.8893 124.098 77.1404 124.293 76.6194 124.684C76.0984 125.042 75.838 125.546 75.838 126.198C75.838 126.979 76.245 127.565 77.059 127.956C77.9055 128.347 79.2079 128.737 80.9662 129.128C82.9849 129.649 84.6292 130.17 85.8991 130.691C87.1689 131.179 88.276 131.993 89.2202 133.133C90.197 134.24 90.7017 135.738 90.7343 137.626C90.7343 139.222 90.2784 140.654 89.3667 141.924C88.4876 143.162 87.2015 144.138 85.5084 144.855C83.8478 145.571 81.9104 145.929 79.6964 145.929ZM100.044 115.453C98.5789 115.453 97.3741 115.03 96.4299 114.183C95.5182 113.304 95.0624 112.229 95.0624 110.96C95.0624 109.657 95.5182 108.583 96.4299 107.736C97.3741 106.857 98.5789 106.417 100.044 106.417C101.477 106.417 102.649 106.857 103.561 107.736C104.505 108.583 104.977 109.657 104.977 110.96C104.977 112.229 104.505 113.304 103.561 114.183C102.649 115.03 101.477 115.453 100.044 115.453ZM104.196 118.286V145.538H95.8438V118.286H104.196ZM120.602 117.895C122.523 117.895 124.2 118.286 125.633 119.067C127.098 119.848 128.221 120.874 129.003 122.144V118.286H137.354V145.49C137.354 147.997 136.85 150.26 135.84 152.278C134.863 154.33 133.349 155.958 131.298 157.162C129.279 158.367 126.756 158.97 123.728 158.97C119.69 158.97 116.418 158.009 113.911 156.088C111.404 154.199 109.971 151.627 109.613 148.371H117.867C118.127 149.413 118.746 150.227 119.723 150.813C120.7 151.432 121.904 151.741 123.337 151.741C125.063 151.741 126.43 151.237 127.44 150.227C128.482 149.25 129.003 147.671 129.003 145.49V141.631C128.189 142.901 127.065 143.943 125.633 144.757C124.2 145.538 122.523 145.929 120.602 145.929C118.355 145.929 116.32 145.359 114.497 144.22C112.674 143.048 111.225 141.403 110.15 139.287C109.108 137.138 108.587 134.663 108.587 131.863C108.587 129.063 109.108 126.605 110.15 124.488C111.225 122.372 112.674 120.744 114.497 119.604C116.32 118.465 118.355 117.895 120.602 117.895ZM129.003 131.912C129.003 129.828 128.416 128.184 127.244 126.979C126.105 125.774 124.705 125.172 123.044 125.172C121.383 125.172 119.967 125.774 118.795 126.979C117.655 128.151 117.086 129.779 117.086 131.863C117.086 133.947 117.655 135.608 118.795 136.845C119.967 138.05 121.383 138.652 123.044 138.652C124.705 138.652 126.105 138.05 127.244 136.845C128.416 135.64 129.003 133.996 129.003 131.912ZM160.002 117.993C163.193 117.993 165.733 119.034 167.621 121.118C169.542 123.17 170.503 126.002 170.503 129.617V145.538H162.2V130.74C162.2 128.916 161.728 127.5 160.784 126.491C159.839 125.481 158.569 124.977 156.974 124.977C155.379 124.977 154.109 125.481 153.164 126.491C152.22 127.5 151.748 128.916 151.748 130.74V145.538H143.396V118.286H151.748V121.9C152.595 120.695 153.734 119.751 155.167 119.067C156.6 118.351 158.211 117.993 160.002 117.993Z" fill="black"/>
<path d="M29.4231 68.6538V94.8077L3.26929 81.7308L29.4231 68.6538Z" fill="#CABD96"/>
<path d="M32.6923 94.8077L32.6923 68.6538L58.8462 81.7308L32.6923 94.8077Z" fill="black"/>
<path d="M205.962 117.692V143.846L179.808 130.769L205.962 117.692Z" fill="#F6CD51"/>
<path d="M209.231 143.846L209.231 117.692L235.385 130.769L209.231 143.846Z" fill="#EC773E"/>
</svg>
