<svg width="46" height="47" viewBox="0 0 46 47" fill="none" xmlns="http://www.w3.org/2000/svg">
<path fill-rule="evenodd" clip-rule="evenodd" d="M23 0V0.373047L46 14.2104V47H0V0H23Z" fill="black"/>
<path fill-rule="evenodd" clip-rule="evenodd" d="M28.6941 23.8389C29.5852 23.8389 29.9911 22.7267 29.3095 22.1527L23.4698 17.2351C23.0976 16.9216 22.5538 16.9216 22.1816 17.2351L16.3419 22.1527C15.6603 22.7267 16.0662 23.8389 16.9573 23.8389V23.8389C17.4849 23.8389 17.9127 24.2666 17.9127 24.7943V30.8784C17.9127 31.4307 18.3604 31.8784 18.9127 31.8784H26.7387C27.291 31.8784 27.7387 31.4307 27.7387 30.8784V24.7943C27.7387 24.2666 28.1665 23.8389 28.6941 23.8389V23.8389Z" fill="white"/>
</svg>
