<svg width="287" height="79" viewBox="0 0 287 79" fill="none" xmlns="http://www.w3.org/2000/svg">
<path d="M8.92455 17.126C8.09655 17.126 7.35255 16.982 6.69255 16.694C6.04455 16.394 5.53455 15.986 5.16255 15.47C4.79055 14.942 4.59855 14.336 4.58655 13.652H6.33255C6.39255 14.24 6.63255 14.738 7.05255 15.146C7.48455 15.542 8.10855 15.74 8.92455 15.74C9.70455 15.74 10.3165 15.548 10.7605 15.164C11.2165 14.768 11.4445 14.264 11.4445 13.652C11.4445 13.172 11.3125 12.782 11.0485 12.482C10.7845 12.182 10.4545 11.954 10.0585 11.798C9.66255 11.642 9.12855 11.474 8.45655 11.294C7.62855 11.078 6.96255 10.862 6.45855 10.646C5.96655 10.43 5.54055 10.094 5.18055 9.638C4.83255 9.17 4.65855 8.546 4.65855 7.766C4.65855 7.082 4.83255 6.476 5.18055 5.948C5.52855 5.42 6.01455 5.012 6.63855 4.724C7.27455 4.436 8.00055 4.292 8.81655 4.292C9.99255 4.292 10.9525 4.586 11.6965 5.174C12.4525 5.762 12.8785 6.542 12.9745 7.514H11.1745C11.1145 7.034 10.8625 6.614 10.4185 6.254C9.97455 5.882 9.38655 5.696 8.65455 5.696C7.97055 5.696 7.41255 5.876 6.98055 6.236C6.54855 6.584 6.33255 7.076 6.33255 7.712C6.33255 8.168 6.45855 8.54 6.71055 8.828C6.97455 9.116 7.29255 9.338 7.66455 9.494C8.04855 9.638 8.58255 9.806 9.26655 9.998C10.0945 10.226 10.7605 10.454 11.2645 10.682C11.7685 10.898 12.2005 11.24 12.5605 11.708C12.9205 12.164 13.1005 12.788 13.1005 13.58C13.1005 14.192 12.9385 14.768 12.6145 15.308C12.2905 15.848 11.8105 16.286 11.1745 16.622C10.5385 16.958 9.78855 17.126 8.92455 17.126ZM24.511 11.69C24.511 12.002 24.493 12.332 24.457 12.68H16.573C16.633 13.652 16.963 14.414 17.563 14.966C18.175 15.506 18.913 15.776 19.777 15.776C20.485 15.776 21.073 15.614 21.541 15.29C22.021 14.954 22.357 14.51 22.549 13.958H24.313C24.049 14.906 23.521 15.68 22.729 16.28C21.937 16.868 20.953 17.162 19.777 17.162C18.841 17.162 18.001 16.952 17.257 16.532C16.525 16.112 15.949 15.518 15.529 14.75C15.109 13.97 14.899 13.07 14.899 12.05C14.899 11.03 15.103 10.136 15.511 9.368C15.919 8.6 16.489 8.012 17.221 7.604C17.965 7.184 18.817 6.974 19.777 6.974C20.713 6.974 21.541 7.178 22.261 7.586C22.981 7.994 23.533 8.558 23.917 9.278C24.313 9.986 24.511 10.79 24.511 11.69ZM22.819 11.348C22.819 10.724 22.681 10.19 22.405 9.746C22.129 9.29 21.751 8.948 21.271 8.72C20.803 8.48 20.281 8.36 19.705 8.36C18.877 8.36 18.169 8.624 17.581 9.152C17.005 9.68 16.675 10.412 16.591 11.348H22.819ZM28.3111 3.68V17H26.6731V3.68H28.3111ZM40.1028 11.69C40.1028 12.002 40.0848 12.332 40.0488 12.68H32.1648C32.2248 13.652 32.5548 14.414 33.1548 14.966C33.7668 15.506 34.5048 15.776 35.3688 15.776C36.0768 15.776 36.6648 15.614 37.1328 15.29C37.6128 14.954 37.9488 14.51 38.1408 13.958H39.9048C39.6408 14.906 39.1128 15.68 38.3208 16.28C37.5288 16.868 36.5448 17.162 35.3688 17.162C34.4328 17.162 33.5928 16.952 32.8488 16.532C32.1168 16.112 31.5408 15.518 31.1208 14.75C30.7008 13.97 30.4908 13.07 30.4908 12.05C30.4908 11.03 30.6948 10.136 31.1028 9.368C31.5108 8.6 32.0808 8.012 32.8128 7.604C33.5568 7.184 34.4088 6.974 35.3688 6.974C36.3048 6.974 37.1328 7.178 37.8528 7.586C38.5728 7.994 39.1248 8.558 39.5088 9.278C39.9048 9.986 40.1028 10.79 40.1028 11.69ZM38.4108 11.348C38.4108 10.724 38.2728 10.19 37.9968 9.746C37.7208 9.29 37.3428 8.948 36.8628 8.72C36.3948 8.48 35.8728 8.36 35.2968 8.36C34.4688 8.36 33.7608 8.624 33.1728 9.152C32.5968 9.68 32.2668 10.412 32.1828 11.348H38.4108ZM41.6529 12.05C41.6529 11.03 41.8569 10.142 42.2649 9.386C42.6729 8.618 43.2369 8.024 43.9569 7.604C44.6889 7.184 45.5229 6.974 46.4589 6.974C47.6709 6.974 48.6669 7.268 49.4469 7.856C50.2389 8.444 50.7609 9.26 51.0129 10.304H49.2489C49.0809 9.704 48.7509 9.23 48.2589 8.882C47.7789 8.534 47.1789 8.36 46.4589 8.36C45.5229 8.36 44.7669 8.684 44.1909 9.332C43.6149 9.968 43.3269 10.874 43.3269 12.05C43.3269 13.238 43.6149 14.156 44.1909 14.804C44.7669 15.452 45.5229 15.776 46.4589 15.776C47.1789 15.776 47.7789 15.608 48.2589 15.272C48.7389 14.936 49.0689 14.456 49.2489 13.832H51.0129C50.7489 14.84 50.2209 15.65 49.4289 16.262C48.6369 16.862 47.6469 17.162 46.4589 17.162C45.5229 17.162 44.6889 16.952 43.9569 16.532C43.2369 16.112 42.6729 15.518 42.2649 14.75C41.8569 13.982 41.6529 13.082 41.6529 12.05ZM55.1965 8.486V14.3C55.1965 14.78 55.2985 15.122 55.5025 15.326C55.7065 15.518 56.0605 15.614 56.5645 15.614H57.7705V17H56.2945C55.3825 17 54.6985 16.79 54.2425 16.37C53.7865 15.95 53.5585 15.26 53.5585 14.3V8.486H52.2805V7.136H53.5585V4.652H55.1965V7.136H57.7705V8.486H55.1965ZM63.942 12.032C63.942 11.024 64.146 10.142 64.554 9.386C64.962 8.618 65.52 8.024 66.228 7.604C66.948 7.184 67.746 6.974 68.622 6.974C69.486 6.974 70.236 7.16 70.872 7.532C71.508 7.904 71.982 8.372 72.294 8.936V7.136H73.95V17H72.294V15.164C71.97 15.74 71.484 16.22 70.836 16.604C70.2 16.976 69.456 17.162 68.604 17.162C67.728 17.162 66.936 16.946 66.228 16.514C65.52 16.082 64.962 15.476 64.554 14.696C64.146 13.916 63.942 13.028 63.942 12.032ZM72.294 12.05C72.294 11.306 72.144 10.658 71.844 10.106C71.544 9.554 71.136 9.134 70.62 8.846C70.116 8.546 69.558 8.396 68.946 8.396C68.334 8.396 67.776 8.54 67.272 8.828C66.768 9.116 66.366 9.536 66.066 10.088C65.766 10.64 65.616 11.288 65.616 12.032C65.616 12.788 65.766 13.448 66.066 14.012C66.366 14.564 66.768 14.99 67.272 15.29C67.776 15.578 68.334 15.722 68.946 15.722C69.558 15.722 70.116 15.578 70.62 15.29C71.136 14.99 71.544 14.564 71.844 14.012C72.144 13.448 72.294 12.794 72.294 12.05ZM80.9049 12.05C80.9049 11.03 81.1089 10.142 81.5169 9.386C81.9249 8.618 82.4889 8.024 83.2089 7.604C83.9409 7.184 84.7749 6.974 85.7109 6.974C86.9229 6.974 87.9189 7.268 88.6989 7.856C89.4909 8.444 90.0129 9.26 90.2649 10.304H88.5009C88.3329 9.704 88.0029 9.23 87.5109 8.882C87.0309 8.534 86.4309 8.36 85.7109 8.36C84.7749 8.36 84.0189 8.684 83.4429 9.332C82.8669 9.968 82.5789 10.874 82.5789 12.05C82.5789 13.238 82.8669 14.156 83.4429 14.804C84.0189 15.452 84.7749 15.776 85.7109 15.776C86.4309 15.776 87.0309 15.608 87.5109 15.272C87.9909 14.936 88.3209 14.456 88.5009 13.832H90.2649C90.0009 14.84 89.4729 15.65 88.6809 16.262C87.8889 16.862 86.8989 17.162 85.7109 17.162C84.7749 17.162 83.9409 16.952 83.2089 16.532C82.4889 16.112 81.9249 15.518 81.5169 14.75C81.1089 13.982 80.9049 13.082 80.9049 12.05ZM96.7525 17.162C95.8285 17.162 94.9885 16.952 94.2325 16.532C93.4885 16.112 92.9005 15.518 92.4685 14.75C92.0485 13.97 91.8385 13.07 91.8385 12.05C91.8385 11.042 92.0545 10.154 92.4865 9.386C92.9305 8.606 93.5305 8.012 94.2865 7.604C95.0425 7.184 95.8885 6.974 96.8245 6.974C97.7605 6.974 98.6065 7.184 99.3625 7.604C100.118 8.012 100.712 8.6 101.144 9.368C101.588 10.136 101.81 11.03 101.81 12.05C101.81 13.07 101.582 13.97 101.126 14.75C100.682 15.518 100.076 16.112 99.3085 16.532C98.5405 16.952 97.6885 17.162 96.7525 17.162ZM96.7525 15.722C97.3405 15.722 97.8925 15.584 98.4085 15.308C98.9245 15.032 99.3385 14.618 99.6505 14.066C99.9745 13.514 100.136 12.842 100.136 12.05C100.136 11.258 99.9805 10.586 99.6685 10.034C99.3565 9.482 98.9485 9.074 98.4445 8.81C97.9405 8.534 97.3945 8.396 96.8065 8.396C96.2065 8.396 95.6545 8.534 95.1505 8.81C94.6585 9.074 94.2625 9.482 93.9625 10.034C93.6625 10.586 93.5125 11.258 93.5125 12.05C93.5125 12.854 93.6565 13.532 93.9445 14.084C94.2445 14.636 94.6405 15.05 95.1325 15.326C95.6245 15.59 96.1645 15.722 96.7525 15.722ZM105.602 3.68V17H103.964V3.68H105.602ZM112.696 17.162C111.772 17.162 110.932 16.952 110.176 16.532C109.432 16.112 108.844 15.518 108.412 14.75C107.992 13.97 107.782 13.07 107.782 12.05C107.782 11.042 107.998 10.154 108.43 9.386C108.874 8.606 109.474 8.012 110.23 7.604C110.986 7.184 111.832 6.974 112.768 6.974C113.704 6.974 114.55 7.184 115.306 7.604C116.062 8.012 116.656 8.6 117.088 9.368C117.532 10.136 117.754 11.03 117.754 12.05C117.754 13.07 117.526 13.97 117.07 14.75C116.626 15.518 116.02 16.112 115.252 16.532C114.484 16.952 113.632 17.162 112.696 17.162ZM112.696 15.722C113.284 15.722 113.836 15.584 114.352 15.308C114.868 15.032 115.282 14.618 115.594 14.066C115.918 13.514 116.08 12.842 116.08 12.05C116.08 11.258 115.924 10.586 115.612 10.034C115.3 9.482 114.892 9.074 114.388 8.81C113.884 8.534 113.338 8.396 112.75 8.396C112.15 8.396 111.598 8.534 111.094 8.81C110.602 9.074 110.206 9.482 109.906 10.034C109.606 10.586 109.456 11.258 109.456 12.05C109.456 12.854 109.6 13.532 109.888 14.084C110.188 14.636 110.584 15.05 111.076 15.326C111.568 15.59 112.108 15.722 112.696 15.722ZM128.655 7.136V17H127.017V15.542C126.705 16.046 126.267 16.442 125.703 16.73C125.151 17.006 124.539 17.144 123.867 17.144C123.099 17.144 122.409 16.988 121.797 16.676C121.185 16.352 120.699 15.872 120.339 15.236C119.991 14.6 119.817 13.826 119.817 12.914V7.136H121.437V12.698C121.437 13.67 121.683 14.42 122.175 14.948C122.667 15.464 123.339 15.722 124.191 15.722C125.067 15.722 125.757 15.452 126.261 14.912C126.765 14.372 127.017 13.586 127.017 12.554V7.136H128.655ZM133.059 8.738C133.347 8.174 133.755 7.736 134.283 7.424C134.823 7.112 135.477 6.956 136.245 6.956V8.648H135.813C133.977 8.648 133.059 9.644 133.059 11.636V17H131.421V7.136H133.059V8.738ZM142.323 12.032C142.323 11.024 142.527 10.142 142.935 9.386C143.343 8.618 143.901 8.024 144.609 7.604C145.329 7.184 146.133 6.974 147.021 6.974C147.789 6.974 148.503 7.154 149.163 7.514C149.823 7.862 150.327 8.324 150.675 8.9V3.68H152.331V17H150.675V15.146C150.351 15.734 149.871 16.22 149.235 16.604C148.599 16.976 147.855 17.162 147.003 17.162C146.127 17.162 145.329 16.946 144.609 16.514C143.901 16.082 143.343 15.476 142.935 14.696C142.527 13.916 142.323 13.028 142.323 12.032ZM150.675 12.05C150.675 11.306 150.525 10.658 150.225 10.106C149.925 9.554 149.517 9.134 149.001 8.846C148.497 8.546 147.939 8.396 147.327 8.396C146.715 8.396 146.157 8.54 145.653 8.828C145.149 9.116 144.747 9.536 144.447 10.088C144.147 10.64 143.997 11.288 143.997 12.032C143.997 12.788 144.147 13.448 144.447 14.012C144.747 14.564 145.149 14.99 145.653 15.29C146.157 15.578 146.715 15.722 147.327 15.722C147.939 15.722 148.497 15.578 149.001 15.29C149.517 14.99 149.925 14.564 150.225 14.012C150.525 13.448 150.675 12.794 150.675 12.05ZM155.945 5.534C155.633 5.534 155.369 5.426 155.153 5.21C154.937 4.994 154.829 4.73 154.829 4.418C154.829 4.106 154.937 3.842 155.153 3.626C155.369 3.41 155.633 3.302 155.945 3.302C156.245 3.302 156.497 3.41 156.701 3.626C156.917 3.842 157.025 4.106 157.025 4.418C157.025 4.73 156.917 4.994 156.701 5.21C156.497 5.426 156.245 5.534 155.945 5.534ZM156.737 7.136V17H155.099V7.136H156.737ZM158.917 12.032C158.917 11.024 159.121 10.142 159.529 9.386C159.937 8.618 160.495 8.024 161.203 7.604C161.923 7.184 162.721 6.974 163.597 6.974C164.461 6.974 165.211 7.16 165.847 7.532C166.483 7.904 166.957 8.372 167.269 8.936V7.136H168.925V17H167.269V15.164C166.945 15.74 166.459 16.22 165.811 16.604C165.175 16.976 164.431 17.162 163.579 17.162C162.703 17.162 161.911 16.946 161.203 16.514C160.495 16.082 159.937 15.476 159.529 14.696C159.121 13.916 158.917 13.028 158.917 12.032ZM167.269 12.05C167.269 11.306 167.119 10.658 166.819 10.106C166.519 9.554 166.111 9.134 165.595 8.846C165.091 8.546 164.533 8.396 163.921 8.396C163.309 8.396 162.751 8.54 162.247 8.828C161.743 9.116 161.341 9.536 161.041 10.088C160.741 10.64 160.591 11.288 160.591 12.032C160.591 12.788 160.741 13.448 161.041 14.012C161.341 14.564 161.743 14.99 162.247 15.29C162.751 15.578 163.309 15.722 163.921 15.722C164.533 15.722 165.091 15.578 165.595 15.29C166.111 14.99 166.519 14.564 166.819 14.012C167.119 13.448 167.269 12.794 167.269 12.05ZM183.555 6.956C184.323 6.956 185.007 7.118 185.607 7.442C186.207 7.754 186.681 8.228 187.029 8.864C187.377 9.5 187.551 10.274 187.551 11.186V17H185.931V11.42C185.931 10.436 185.685 9.686 185.193 9.17C184.713 8.642 184.059 8.378 183.231 8.378C182.379 8.378 181.701 8.654 181.197 9.206C180.693 9.746 180.441 10.532 180.441 11.564V17H178.821V11.42C178.821 10.436 178.575 9.686 178.083 9.17C177.603 8.642 176.949 8.378 176.121 8.378C175.269 8.378 174.591 8.654 174.087 9.206C173.583 9.746 173.331 10.532 173.331 11.564V17H171.693V7.136H173.331V8.558C173.655 8.042 174.087 7.646 174.627 7.37C175.179 7.094 175.785 6.956 176.445 6.956C177.273 6.956 178.005 7.142 178.641 7.514C179.277 7.886 179.751 8.432 180.063 9.152C180.339 8.456 180.795 7.916 181.431 7.532C182.067 7.148 182.775 6.956 183.555 6.956ZM194.54 17.162C193.616 17.162 192.776 16.952 192.02 16.532C191.276 16.112 190.688 15.518 190.256 14.75C189.836 13.97 189.626 13.07 189.626 12.05C189.626 11.042 189.842 10.154 190.274 9.386C190.718 8.606 191.318 8.012 192.074 7.604C192.83 7.184 193.676 6.974 194.612 6.974C195.548 6.974 196.394 7.184 197.15 7.604C197.906 8.012 198.5 8.6 198.932 9.368C199.376 10.136 199.598 11.03 199.598 12.05C199.598 13.07 199.37 13.97 198.914 14.75C198.47 15.518 197.864 16.112 197.096 16.532C196.328 16.952 195.476 17.162 194.54 17.162ZM194.54 15.722C195.128 15.722 195.68 15.584 196.196 15.308C196.712 15.032 197.126 14.618 197.438 14.066C197.762 13.514 197.924 12.842 197.924 12.05C197.924 11.258 197.768 10.586 197.456 10.034C197.144 9.482 196.736 9.074 196.232 8.81C195.728 8.534 195.182 8.396 194.594 8.396C193.994 8.396 193.442 8.534 192.938 8.81C192.446 9.074 192.05 9.482 191.75 10.034C191.45 10.586 191.3 11.258 191.3 12.05C191.3 12.854 191.444 13.532 191.732 14.084C192.032 14.636 192.428 15.05 192.92 15.326C193.412 15.59 193.952 15.722 194.54 15.722ZM206.557 6.956C207.757 6.956 208.729 7.322 209.473 8.054C210.217 8.774 210.589 9.818 210.589 11.186V17H208.969V11.42C208.969 10.436 208.723 9.686 208.231 9.17C207.739 8.642 207.067 8.378 206.215 8.378C205.351 8.378 204.661 8.648 204.145 9.188C203.641 9.728 203.389 10.514 203.389 11.546V17H201.751V7.136H203.389V8.54C203.713 8.036 204.151 7.646 204.703 7.37C205.267 7.094 205.885 6.956 206.557 6.956ZM212.653 12.032C212.653 11.024 212.857 10.142 213.265 9.386C213.673 8.618 214.231 8.024 214.939 7.604C215.659 7.184 216.463 6.974 217.351 6.974C218.119 6.974 218.833 7.154 219.493 7.514C220.153 7.862 220.657 8.324 221.005 8.9V3.68H222.661V17H221.005V15.146C220.681 15.734 220.201 16.22 219.565 16.604C218.929 16.976 218.185 17.162 217.333 17.162C216.457 17.162 215.659 16.946 214.939 16.514C214.231 16.082 213.673 15.476 213.265 14.696C212.857 13.916 212.653 13.028 212.653 12.032ZM221.005 12.05C221.005 11.306 220.855 10.658 220.555 10.106C220.255 9.554 219.847 9.134 219.331 8.846C218.827 8.546 218.269 8.396 217.657 8.396C217.045 8.396 216.487 8.54 215.983 8.828C215.479 9.116 215.077 9.536 214.777 10.088C214.477 10.64 214.327 11.288 214.327 12.032C214.327 12.788 214.477 13.448 214.777 14.012C215.077 14.564 215.479 14.99 215.983 15.29C216.487 15.578 217.045 15.722 217.657 15.722C218.269 15.722 218.827 15.578 219.331 15.29C219.847 14.99 220.255 14.564 220.555 14.012C220.855 13.448 221.005 12.794 221.005 12.05ZM232.226 8.486V14.3C232.226 14.78 232.328 15.122 232.532 15.326C232.736 15.518 233.09 15.614 233.594 15.614H234.8V17H233.324C232.412 17 231.728 16.79 231.272 16.37C230.816 15.95 230.588 15.26 230.588 14.3V8.486H229.31V7.136H230.588V4.652H232.226V7.136H234.8V8.486H232.226ZM241.086 17.162C240.162 17.162 239.322 16.952 238.566 16.532C237.822 16.112 237.234 15.518 236.802 14.75C236.382 13.97 236.172 13.07 236.172 12.05C236.172 11.042 236.388 10.154 236.82 9.386C237.264 8.606 237.864 8.012 238.62 7.604C239.376 7.184 240.222 6.974 241.158 6.974C242.094 6.974 242.94 7.184 243.696 7.604C244.452 8.012 245.046 8.6 245.478 9.368C245.922 10.136 246.144 11.03 246.144 12.05C246.144 13.07 245.916 13.97 245.46 14.75C245.016 15.518 244.41 16.112 243.642 16.532C242.874 16.952 242.022 17.162 241.086 17.162ZM241.086 15.722C241.674 15.722 242.226 15.584 242.742 15.308C243.258 15.032 243.672 14.618 243.984 14.066C244.308 13.514 244.47 12.842 244.47 12.05C244.47 11.258 244.314 10.586 244.002 10.034C243.69 9.482 243.282 9.074 242.778 8.81C242.274 8.534 241.728 8.396 241.14 8.396C240.54 8.396 239.988 8.534 239.484 8.81C238.992 9.074 238.596 9.482 238.296 10.034C237.996 10.586 237.846 11.258 237.846 12.05C237.846 12.854 237.99 13.532 238.278 14.084C238.578 14.636 238.974 15.05 239.466 15.326C239.958 15.59 240.498 15.722 241.086 15.722ZM256.589 17.162C255.833 17.162 255.155 17.036 254.555 16.784C253.955 16.52 253.481 16.16 253.133 15.704C252.785 15.236 252.593 14.702 252.557 14.102H254.249C254.297 14.594 254.525 14.996 254.933 15.308C255.353 15.62 255.899 15.776 256.571 15.776C257.195 15.776 257.687 15.638 258.047 15.362C258.407 15.086 258.587 14.738 258.587 14.318C258.587 13.886 258.395 13.568 258.011 13.364C257.627 13.148 257.033 12.938 256.229 12.734C255.497 12.542 254.897 12.35 254.429 12.158C253.973 11.954 253.577 11.66 253.241 11.276C252.917 10.88 252.755 10.364 252.755 9.728C252.755 9.224 252.905 8.762 253.205 8.342C253.505 7.922 253.931 7.592 254.483 7.352C255.035 7.1 255.665 6.974 256.373 6.974C257.465 6.974 258.347 7.25 259.019 7.802C259.691 8.354 260.051 9.11 260.099 10.07H258.461C258.425 9.554 258.215 9.14 257.831 8.828C257.459 8.516 256.955 8.36 256.319 8.36C255.731 8.36 255.263 8.486 254.915 8.738C254.567 8.99 254.393 9.32 254.393 9.728C254.393 10.052 254.495 10.322 254.699 10.538C254.915 10.742 255.179 10.91 255.491 11.042C255.815 11.162 256.259 11.3 256.823 11.456C257.531 11.648 258.107 11.84 258.551 12.032C258.995 12.212 259.373 12.488 259.685 12.86C260.009 13.232 260.177 13.718 260.189 14.318C260.189 14.858 260.039 15.344 259.739 15.776C259.439 16.208 259.013 16.55 258.461 16.802C257.921 17.042 257.297 17.162 256.589 17.162ZM271.501 11.69C271.501 12.002 271.483 12.332 271.447 12.68H263.563C263.623 13.652 263.953 14.414 264.553 14.966C265.165 15.506 265.903 15.776 266.767 15.776C267.475 15.776 268.063 15.614 268.531 15.29C269.011 14.954 269.347 14.51 269.539 13.958H271.303C271.039 14.906 270.511 15.68 269.719 16.28C268.927 16.868 267.943 17.162 266.767 17.162C265.831 17.162 264.991 16.952 264.247 16.532C263.515 16.112 262.939 15.518 262.519 14.75C262.099 13.97 261.889 13.07 261.889 12.05C261.889 11.03 262.093 10.136 262.501 9.368C262.909 8.6 263.479 8.012 264.211 7.604C264.955 7.184 265.807 6.974 266.767 6.974C267.703 6.974 268.531 7.178 269.251 7.586C269.971 7.994 270.523 8.558 270.907 9.278C271.303 9.986 271.501 10.79 271.501 11.69ZM269.809 11.348C269.809 10.724 269.671 10.19 269.395 9.746C269.119 9.29 268.741 8.948 268.261 8.72C267.793 8.48 267.271 8.36 266.695 8.36C265.867 8.36 265.159 8.624 264.571 9.152C263.995 9.68 263.665 10.412 263.581 11.348H269.809ZM282.663 11.69C282.663 12.002 282.645 12.332 282.609 12.68H274.725C274.785 13.652 275.115 14.414 275.715 14.966C276.327 15.506 277.065 15.776 277.929 15.776C278.637 15.776 279.225 15.614 279.693 15.29C280.173 14.954 280.509 14.51 280.701 13.958H282.465C282.201 14.906 281.673 15.68 280.881 16.28C280.089 16.868 279.105 17.162 277.929 17.162C276.993 17.162 276.153 16.952 275.409 16.532C274.677 16.112 274.101 15.518 273.681 14.75C273.261 13.97 273.051 13.07 273.051 12.05C273.051 11.03 273.255 10.136 273.663 9.368C274.071 8.6 274.641 8.012 275.373 7.604C276.117 7.184 276.969 6.974 277.929 6.974C278.865 6.974 279.693 7.178 280.413 7.586C281.133 7.994 281.685 8.558 282.069 9.278C282.465 9.986 282.663 10.79 282.663 11.69ZM280.971 11.348C280.971 10.724 280.833 10.19 280.557 9.746C280.281 9.29 279.903 8.948 279.423 8.72C278.955 8.48 278.433 8.36 277.857 8.36C277.029 8.36 276.321 8.624 275.733 9.152C275.157 9.68 274.827 10.412 274.743 11.348H280.971ZM51.4524 30.486V36.3C51.4524 36.78 51.5544 37.122 51.7584 37.326C51.9624 37.518 52.3164 37.614 52.8204 37.614H54.0264V39H52.5504C51.6384 39 50.9544 38.79 50.4984 38.37C50.0424 37.95 49.8144 37.26 49.8144 36.3V30.486H48.5364V29.136H49.8144V26.652H51.4524V29.136H54.0264V30.486H51.4524ZM60.907 28.956C61.651 28.956 62.323 29.118 62.923 29.442C63.523 29.754 63.991 30.228 64.327 30.864C64.675 31.5 64.849 32.274 64.849 33.186V39H63.229V33.42C63.229 32.436 62.983 31.686 62.491 31.17C61.999 30.642 61.327 30.378 60.475 30.378C59.611 30.378 58.921 30.648 58.405 31.188C57.901 31.728 57.649 32.514 57.649 33.546V39H56.011V25.68H57.649V30.54C57.973 30.036 58.417 29.646 58.981 29.37C59.557 29.094 60.199 28.956 60.907 28.956ZM76.5247 33.69C76.5247 34.002 76.5067 34.332 76.4707 34.68H68.5867C68.6467 35.652 68.9767 36.414 69.5767 36.966C70.1887 37.506 70.9267 37.776 71.7907 37.776C72.4987 37.776 73.0867 37.614 73.5547 37.29C74.0347 36.954 74.3707 36.51 74.5627 35.958H76.3267C76.0627 36.906 75.5347 37.68 74.7427 38.28C73.9507 38.868 72.9667 39.162 71.7907 39.162C70.8547 39.162 70.0147 38.952 69.2707 38.532C68.5387 38.112 67.9627 37.518 67.5427 36.75C67.1227 35.97 66.9127 35.07 66.9127 34.05C66.9127 33.03 67.1167 32.136 67.5247 31.368C67.9327 30.6 68.5027 30.012 69.2347 29.604C69.9787 29.184 70.8307 28.974 71.7907 28.974C72.7267 28.974 73.5547 29.178 74.2747 29.586C74.9947 29.994 75.5467 30.558 75.9307 31.278C76.3267 31.986 76.5247 32.79 76.5247 33.69ZM74.8327 33.348C74.8327 32.724 74.6947 32.19 74.4187 31.746C74.1427 31.29 73.7647 30.948 73.2847 30.72C72.8167 30.48 72.2947 30.36 71.7187 30.36C70.8907 30.36 70.1827 30.624 69.5947 31.152C69.0187 31.68 68.6887 32.412 68.6047 33.348H74.8327ZM82.8736 34.032C82.8736 33.024 83.0776 32.142 83.4856 31.386C83.8936 30.618 84.4516 30.024 85.1596 29.604C85.8796 29.184 86.6836 28.974 87.5716 28.974C88.3396 28.974 89.0536 29.154 89.7136 29.514C90.3736 29.862 90.8776 30.324 91.2256 30.9V25.68H92.8816V39H91.2256V37.146C90.9016 37.734 90.4216 38.22 89.7856 38.604C89.1496 38.976 88.4056 39.162 87.5536 39.162C86.6776 39.162 85.8796 38.946 85.1596 38.514C84.4516 38.082 83.8936 37.476 83.4856 36.696C83.0776 35.916 82.8736 35.028 82.8736 34.032ZM91.2256 34.05C91.2256 33.306 91.0756 32.658 90.7756 32.106C90.4756 31.554 90.0676 31.134 89.5516 30.846C89.0476 30.546 88.4896 30.396 87.8776 30.396C87.2656 30.396 86.7076 30.54 86.2036 30.828C85.6996 31.116 85.2976 31.536 84.9976 32.088C84.6976 32.64 84.5476 33.288 84.5476 34.032C84.5476 34.788 84.6976 35.448 84.9976 36.012C85.2976 36.564 85.6996 36.99 86.2036 37.29C86.7076 37.578 87.2656 37.722 87.8776 37.722C88.4896 37.722 89.0476 37.578 89.5516 37.29C90.0676 36.99 90.4756 36.564 90.7756 36.012C91.0756 35.448 91.2256 34.794 91.2256 34.05ZM104.65 33.69C104.65 34.002 104.632 34.332 104.596 34.68H96.7117C96.7717 35.652 97.1017 36.414 97.7017 36.966C98.3137 37.506 99.0517 37.776 99.9157 37.776C100.624 37.776 101.212 37.614 101.68 37.29C102.16 36.954 102.496 36.51 102.688 35.958H104.452C104.188 36.906 103.66 37.68 102.868 38.28C102.076 38.868 101.092 39.162 99.9157 39.162C98.9797 39.162 98.1397 38.952 97.3957 38.532C96.6637 38.112 96.0877 37.518 95.6677 36.75C95.2477 35.97 95.0377 35.07 95.0377 34.05C95.0377 33.03 95.2417 32.136 95.6497 31.368C96.0577 30.6 96.6277 30.012 97.3597 29.604C98.1037 29.184 98.9557 28.974 99.9157 28.974C100.852 28.974 101.68 29.178 102.4 29.586C103.12 29.994 103.672 30.558 104.056 31.278C104.452 31.986 104.65 32.79 104.65 33.69ZM102.958 33.348C102.958 32.724 102.82 32.19 102.544 31.746C102.268 31.29 101.89 30.948 101.41 30.72C100.942 30.48 100.42 30.36 99.8437 30.36C99.0157 30.36 98.3077 30.624 97.7197 31.152C97.1437 31.68 96.8137 32.412 96.7297 33.348H102.958ZM110.304 39.162C109.548 39.162 108.87 39.036 108.27 38.784C107.67 38.52 107.196 38.16 106.848 37.704C106.5 37.236 106.308 36.702 106.272 36.102H107.964C108.012 36.594 108.24 36.996 108.648 37.308C109.068 37.62 109.614 37.776 110.286 37.776C110.91 37.776 111.402 37.638 111.762 37.362C112.122 37.086 112.302 36.738 112.302 36.318C112.302 35.886 112.11 35.568 111.726 35.364C111.342 35.148 110.748 34.938 109.944 34.734C109.212 34.542 108.612 34.35 108.144 34.158C107.688 33.954 107.292 33.66 106.956 33.276C106.632 32.88 106.47 32.364 106.47 31.728C106.47 31.224 106.62 30.762 106.92 30.342C107.22 29.922 107.646 29.592 108.198 29.352C108.75 29.1 109.38 28.974 110.088 28.974C111.18 28.974 112.062 29.25 112.734 29.802C113.406 30.354 113.766 31.11 113.814 32.07H112.176C112.14 31.554 111.93 31.14 111.546 30.828C111.174 30.516 110.67 30.36 110.034 30.36C109.446 30.36 108.978 30.486 108.63 30.738C108.282 30.99 108.108 31.32 108.108 31.728C108.108 32.052 108.21 32.322 108.414 32.538C108.63 32.742 108.894 32.91 109.206 33.042C109.53 33.162 109.974 33.3 110.538 33.456C111.246 33.648 111.822 33.84 112.266 34.032C112.71 34.212 113.088 34.488 113.4 34.86C113.724 35.232 113.892 35.718 113.904 36.318C113.904 36.858 113.754 37.344 113.454 37.776C113.154 38.208 112.728 38.55 112.176 38.802C111.636 39.042 111.012 39.162 110.304 39.162ZM117.062 27.534C116.75 27.534 116.486 27.426 116.27 27.21C116.054 26.994 115.946 26.73 115.946 26.418C115.946 26.106 116.054 25.842 116.27 25.626C116.486 25.41 116.75 25.302 117.062 25.302C117.362 25.302 117.614 25.41 117.818 25.626C118.034 25.842 118.142 26.106 118.142 26.418C118.142 26.73 118.034 26.994 117.818 27.21C117.614 27.426 117.362 27.534 117.062 27.534ZM117.854 29.136V39H116.216V29.136H117.854ZM124.714 28.974C125.566 28.974 126.31 29.16 126.946 29.532C127.594 29.904 128.074 30.372 128.386 30.936V29.136H130.042V39.216C130.042 40.116 129.85 40.914 129.466 41.61C129.082 42.318 128.53 42.87 127.81 43.266C127.102 43.662 126.274 43.86 125.326 43.86C124.03 43.86 122.95 43.554 122.086 42.942C121.222 42.33 120.712 41.496 120.556 40.44H122.176C122.356 41.04 122.728 41.52 123.292 41.88C123.856 42.252 124.534 42.438 125.326 42.438C126.226 42.438 126.958 42.156 127.522 41.592C128.098 41.028 128.386 40.236 128.386 39.216V37.146C128.062 37.722 127.582 38.202 126.946 38.586C126.31 38.97 125.566 39.162 124.714 39.162C123.838 39.162 123.04 38.946 122.32 38.514C121.612 38.082 121.054 37.476 120.646 36.696C120.238 35.916 120.034 35.028 120.034 34.032C120.034 33.024 120.238 32.142 120.646 31.386C121.054 30.618 121.612 30.024 122.32 29.604C123.04 29.184 123.838 28.974 124.714 28.974ZM128.386 34.05C128.386 33.306 128.236 32.658 127.936 32.106C127.636 31.554 127.228 31.134 126.712 30.846C126.208 30.546 125.65 30.396 125.038 30.396C124.426 30.396 123.868 30.54 123.364 30.828C122.86 31.116 122.458 31.536 122.158 32.088C121.858 32.64 121.708 33.288 121.708 34.032C121.708 34.788 121.858 35.448 122.158 36.012C122.458 36.564 122.86 36.99 123.364 37.29C123.868 37.578 124.426 37.722 125.038 37.722C125.65 37.722 126.208 37.578 126.712 37.29C127.228 36.99 127.636 36.564 127.936 36.012C128.236 35.448 128.386 34.794 128.386 34.05ZM137.616 28.956C138.816 28.956 139.788 29.322 140.532 30.054C141.276 30.774 141.648 31.818 141.648 33.186V39H140.028V33.42C140.028 32.436 139.782 31.686 139.29 31.17C138.798 30.642 138.126 30.378 137.274 30.378C136.41 30.378 135.72 30.648 135.204 31.188C134.7 31.728 134.448 32.514 134.448 33.546V39H132.81V29.136H134.448V30.54C134.772 30.036 135.21 29.646 135.762 29.37C136.326 29.094 136.944 28.956 137.616 28.956ZM148.51 34.05C148.51 33.03 148.714 32.142 149.122 31.386C149.53 30.618 150.094 30.024 150.814 29.604C151.546 29.184 152.38 28.974 153.316 28.974C154.528 28.974 155.524 29.268 156.304 29.856C157.096 30.444 157.618 31.26 157.87 32.304H156.106C155.938 31.704 155.608 31.23 155.116 30.882C154.636 30.534 154.036 30.36 153.316 30.36C152.38 30.36 151.624 30.684 151.048 31.332C150.472 31.968 150.184 32.874 150.184 34.05C150.184 35.238 150.472 36.156 151.048 36.804C151.624 37.452 152.38 37.776 153.316 37.776C154.036 37.776 154.636 37.608 155.116 37.272C155.596 36.936 155.926 36.456 156.106 35.832H157.87C157.606 36.84 157.078 37.65 156.286 38.262C155.494 38.862 154.504 39.162 153.316 39.162C152.38 39.162 151.546 38.952 150.814 38.532C150.094 38.112 149.53 37.518 149.122 36.75C148.714 35.982 148.51 35.082 148.51 34.05ZM164.358 39.162C163.434 39.162 162.594 38.952 161.838 38.532C161.094 38.112 160.506 37.518 160.074 36.75C159.654 35.97 159.444 35.07 159.444 34.05C159.444 33.042 159.66 32.154 160.092 31.386C160.536 30.606 161.136 30.012 161.892 29.604C162.648 29.184 163.494 28.974 164.43 28.974C165.366 28.974 166.212 29.184 166.968 29.604C167.724 30.012 168.318 30.6 168.75 31.368C169.194 32.136 169.416 33.03 169.416 34.05C169.416 35.07 169.188 35.97 168.732 36.75C168.288 37.518 167.682 38.112 166.914 38.532C166.146 38.952 165.294 39.162 164.358 39.162ZM164.358 37.722C164.946 37.722 165.498 37.584 166.014 37.308C166.53 37.032 166.944 36.618 167.256 36.066C167.58 35.514 167.742 34.842 167.742 34.05C167.742 33.258 167.586 32.586 167.274 32.034C166.962 31.482 166.554 31.074 166.05 30.81C165.546 30.534 165 30.396 164.412 30.396C163.812 30.396 163.26 30.534 162.756 30.81C162.264 31.074 161.868 31.482 161.568 32.034C161.268 32.586 161.118 33.258 161.118 34.05C161.118 34.854 161.262 35.532 161.55 36.084C161.85 36.636 162.246 37.05 162.738 37.326C163.23 37.59 163.77 37.722 164.358 37.722ZM173.208 25.68V39H171.57V25.68H173.208ZM177.637 25.68V39H175.999V25.68H177.637ZM189.429 33.69C189.429 34.002 189.411 34.332 189.375 34.68H181.491C181.551 35.652 181.881 36.414 182.481 36.966C183.093 37.506 183.831 37.776 184.695 37.776C185.403 37.776 185.991 37.614 186.459 37.29C186.939 36.954 187.275 36.51 187.467 35.958H189.231C188.967 36.906 188.439 37.68 187.647 38.28C186.855 38.868 185.871 39.162 184.695 39.162C183.759 39.162 182.919 38.952 182.175 38.532C181.443 38.112 180.867 37.518 180.447 36.75C180.027 35.97 179.817 35.07 179.817 34.05C179.817 33.03 180.021 32.136 180.429 31.368C180.837 30.6 181.407 30.012 182.139 29.604C182.883 29.184 183.735 28.974 184.695 28.974C185.631 28.974 186.459 29.178 187.179 29.586C187.899 29.994 188.451 30.558 188.835 31.278C189.231 31.986 189.429 32.79 189.429 33.69ZM187.737 33.348C187.737 32.724 187.599 32.19 187.323 31.746C187.047 31.29 186.669 30.948 186.189 30.72C185.721 30.48 185.199 30.36 184.623 30.36C183.795 30.36 183.087 30.624 182.499 31.152C181.923 31.68 181.593 32.412 181.509 33.348H187.737ZM190.979 34.05C190.979 33.03 191.183 32.142 191.591 31.386C191.999 30.618 192.563 30.024 193.283 29.604C194.015 29.184 194.849 28.974 195.785 28.974C196.997 28.974 197.993 29.268 198.773 29.856C199.565 30.444 200.087 31.26 200.339 32.304H198.575C198.407 31.704 198.077 31.23 197.585 30.882C197.105 30.534 196.505 30.36 195.785 30.36C194.849 30.36 194.093 30.684 193.517 31.332C192.941 31.968 192.653 32.874 192.653 34.05C192.653 35.238 192.941 36.156 193.517 36.804C194.093 37.452 194.849 37.776 195.785 37.776C196.505 37.776 197.105 37.608 197.585 37.272C198.065 36.936 198.395 36.456 198.575 35.832H200.339C200.075 36.84 199.547 37.65 198.755 38.262C197.963 38.862 196.973 39.162 195.785 39.162C194.849 39.162 194.015 38.952 193.283 38.532C192.563 38.112 191.999 37.518 191.591 36.75C191.183 35.982 190.979 35.082 190.979 34.05ZM204.523 30.486V36.3C204.523 36.78 204.625 37.122 204.829 37.326C205.033 37.518 205.387 37.614 205.891 37.614H207.097V39H205.621C204.709 39 204.025 38.79 203.569 38.37C203.113 37.95 202.885 37.26 202.885 36.3V30.486H201.607V29.136H202.885V26.652H204.523V29.136H207.097V30.486H204.523ZM209.927 27.534C209.615 27.534 209.351 27.426 209.135 27.21C208.919 26.994 208.811 26.73 208.811 26.418C208.811 26.106 208.919 25.842 209.135 25.626C209.351 25.41 209.615 25.302 209.927 25.302C210.227 25.302 210.479 25.41 210.683 25.626C210.899 25.842 211.007 26.106 211.007 26.418C211.007 26.73 210.899 26.994 210.683 27.21C210.479 27.426 210.227 27.534 209.927 27.534ZM210.719 29.136V39H209.081V29.136H210.719ZM217.813 39.162C216.889 39.162 216.049 38.952 215.293 38.532C214.549 38.112 213.961 37.518 213.529 36.75C213.109 35.97 212.899 35.07 212.899 34.05C212.899 33.042 213.115 32.154 213.547 31.386C213.991 30.606 214.591 30.012 215.347 29.604C216.103 29.184 216.949 28.974 217.885 28.974C218.821 28.974 219.667 29.184 220.423 29.604C221.179 30.012 221.773 30.6 222.205 31.368C222.649 32.136 222.871 33.03 222.871 34.05C222.871 35.07 222.643 35.97 222.187 36.75C221.743 37.518 221.137 38.112 220.369 38.532C219.601 38.952 218.749 39.162 217.813 39.162ZM217.813 37.722C218.401 37.722 218.953 37.584 219.469 37.308C219.985 37.032 220.399 36.618 220.711 36.066C221.035 35.514 221.197 34.842 221.197 34.05C221.197 33.258 221.041 32.586 220.729 32.034C220.417 31.482 220.009 31.074 219.505 30.81C219.001 30.534 218.455 30.396 217.867 30.396C217.267 30.396 216.715 30.534 216.211 30.81C215.719 31.074 215.323 31.482 215.023 32.034C214.723 32.586 214.573 33.258 214.573 34.05C214.573 34.854 214.717 35.532 215.005 36.084C215.305 36.636 215.701 37.05 216.193 37.326C216.685 37.59 217.225 37.722 217.813 37.722ZM229.831 28.956C231.031 28.956 232.003 29.322 232.747 30.054C233.491 30.774 233.863 31.818 233.863 33.186V39H232.243V33.42C232.243 32.436 231.997 31.686 231.505 31.17C231.013 30.642 230.341 30.378 229.489 30.378C228.625 30.378 227.935 30.648 227.419 31.188C226.915 31.728 226.663 32.514 226.663 33.546V39H225.025V29.136H226.663V30.54C226.987 30.036 227.425 29.646 227.977 29.37C228.541 29.094 229.159 28.956 229.831 28.956ZM237.06 39.108C236.748 39.108 236.484 39 236.268 38.784C236.052 38.568 235.944 38.304 235.944 37.992C235.944 37.68 236.052 37.416 236.268 37.2C236.484 36.984 236.748 36.876 237.06 36.876C237.36 36.876 237.612 36.984 237.816 37.2C238.032 37.416 238.14 37.68 238.14 37.992C238.14 38.304 238.032 38.568 237.816 38.784C237.612 39 237.36 39.108 237.06 39.108Z" fill="#716B6B"/>
<path fill-rule="evenodd" clip-rule="evenodd" d="M155.213 63.4853C155.994 64.2663 155.994 65.5327 155.213 66.3137L142.899 78.6274L130.586 66.3137C129.805 65.5327 129.805 64.2663 130.586 63.4853C131.367 62.7042 132.633 62.7042 133.414 63.4853L142.899 72.9706L152.385 63.4853C153.166 62.7042 154.432 62.7042 155.213 63.4853Z" fill="black"/>
</svg>
