<svg width="383" height="81" viewBox="0 0 383 81" fill="none" xmlns="http://www.w3.org/2000/svg">
<path d="M91.4919 50.126C90.6639 50.126 89.9199 49.982 89.2599 49.694C88.6119 49.394 88.1019 48.986 87.7299 48.47C87.3579 47.942 87.1659 47.336 87.1539 46.652H88.8999C88.9599 47.24 89.1999 47.738 89.6199 48.146C90.0519 48.542 90.6759 48.74 91.4919 48.74C92.2719 48.74 92.8839 48.548 93.3279 48.164C93.7839 47.768 94.0119 47.264 94.0119 46.652C94.0119 46.172 93.8799 45.782 93.6159 45.482C93.3519 45.182 93.0219 44.954 92.6259 44.798C92.2299 44.642 91.6959 44.474 91.0239 44.294C90.1959 44.078 89.5299 43.862 89.0259 43.646C88.5339 43.43 88.1079 43.094 87.7479 42.638C87.3999 42.17 87.2259 41.546 87.2259 40.766C87.2259 40.082 87.3999 39.476 87.7479 38.948C88.0959 38.42 88.5819 38.012 89.2059 37.724C89.8419 37.436 90.5679 37.292 91.3839 37.292C92.5599 37.292 93.5199 37.586 94.2639 38.174C95.0199 38.762 95.4459 39.542 95.5419 40.514H93.7419C93.6819 40.034 93.4299 39.614 92.9859 39.254C92.5419 38.882 91.9539 38.696 91.2219 38.696C90.5379 38.696 89.9799 38.876 89.5479 39.236C89.1159 39.584 88.8999 40.076 88.8999 40.712C88.8999 41.168 89.0259 41.54 89.2779 41.828C89.5419 42.116 89.8599 42.338 90.2319 42.494C90.6159 42.638 91.1499 42.806 91.8339 42.998C92.6619 43.226 93.3279 43.454 93.8319 43.682C94.3359 43.898 94.7679 44.24 95.1279 44.708C95.4879 45.164 95.6679 45.788 95.6679 46.58C95.6679 47.192 95.5059 47.768 95.1819 48.308C94.8579 48.848 94.3779 49.286 93.7419 49.622C93.1059 49.958 92.3559 50.126 91.4919 50.126ZM107.078 44.69C107.078 45.002 107.06 45.332 107.024 45.68H99.1404C99.2004 46.652 99.5304 47.414 100.13 47.966C100.742 48.506 101.48 48.776 102.344 48.776C103.052 48.776 103.64 48.614 104.108 48.29C104.588 47.954 104.924 47.51 105.116 46.958H106.88C106.616 47.906 106.088 48.68 105.296 49.28C104.504 49.868 103.52 50.162 102.344 50.162C101.408 50.162 100.568 49.952 99.8244 49.532C99.0924 49.112 98.5164 48.518 98.0964 47.75C97.6764 46.97 97.4664 46.07 97.4664 45.05C97.4664 44.03 97.6704 43.136 98.0784 42.368C98.4864 41.6 99.0564 41.012 99.7884 40.604C100.532 40.184 101.384 39.974 102.344 39.974C103.28 39.974 104.108 40.178 104.828 40.586C105.548 40.994 106.1 41.558 106.484 42.278C106.88 42.986 107.078 43.79 107.078 44.69ZM105.386 44.348C105.386 43.724 105.248 43.19 104.972 42.746C104.696 42.29 104.318 41.948 103.838 41.72C103.37 41.48 102.848 41.36 102.272 41.36C101.444 41.36 100.736 41.624 100.148 42.152C99.5724 42.68 99.2424 43.412 99.1584 44.348H105.386ZM110.878 36.68V50H109.24V36.68H110.878ZM122.67 44.69C122.67 45.002 122.652 45.332 122.616 45.68H114.732C114.792 46.652 115.122 47.414 115.722 47.966C116.334 48.506 117.072 48.776 117.936 48.776C118.644 48.776 119.232 48.614 119.7 48.29C120.18 47.954 120.516 47.51 120.708 46.958H122.472C122.208 47.906 121.68 48.68 120.888 49.28C120.096 49.868 119.112 50.162 117.936 50.162C117 50.162 116.16 49.952 115.416 49.532C114.684 49.112 114.108 48.518 113.688 47.75C113.268 46.97 113.058 46.07 113.058 45.05C113.058 44.03 113.262 43.136 113.67 42.368C114.078 41.6 114.648 41.012 115.38 40.604C116.124 40.184 116.976 39.974 117.936 39.974C118.872 39.974 119.7 40.178 120.42 40.586C121.14 40.994 121.692 41.558 122.076 42.278C122.472 42.986 122.67 43.79 122.67 44.69ZM120.978 44.348C120.978 43.724 120.84 43.19 120.564 42.746C120.288 42.29 119.91 41.948 119.43 41.72C118.962 41.48 118.44 41.36 117.864 41.36C117.036 41.36 116.328 41.624 115.74 42.152C115.164 42.68 114.834 43.412 114.75 44.348H120.978ZM124.22 45.05C124.22 44.03 124.424 43.142 124.832 42.386C125.24 41.618 125.804 41.024 126.524 40.604C127.256 40.184 128.09 39.974 129.026 39.974C130.238 39.974 131.234 40.268 132.014 40.856C132.806 41.444 133.328 42.26 133.58 43.304H131.816C131.648 42.704 131.318 42.23 130.826 41.882C130.346 41.534 129.746 41.36 129.026 41.36C128.09 41.36 127.334 41.684 126.758 42.332C126.182 42.968 125.894 43.874 125.894 45.05C125.894 46.238 126.182 47.156 126.758 47.804C127.334 48.452 128.09 48.776 129.026 48.776C129.746 48.776 130.346 48.608 130.826 48.272C131.306 47.936 131.636 47.456 131.816 46.832H133.58C133.316 47.84 132.788 48.65 131.996 49.262C131.204 49.862 130.214 50.162 129.026 50.162C128.09 50.162 127.256 49.952 126.524 49.532C125.804 49.112 125.24 48.518 124.832 47.75C124.424 46.982 124.22 46.082 124.22 45.05ZM137.764 41.486V47.3C137.764 47.78 137.866 48.122 138.07 48.326C138.274 48.518 138.628 48.614 139.132 48.614H140.338V50H138.862C137.95 50 137.266 49.79 136.81 49.37C136.354 48.95 136.126 48.26 136.126 47.3V41.486H134.848V40.136H136.126V37.652H137.764V40.136H140.338V41.486H137.764ZM146.509 45.032C146.509 44.024 146.713 43.142 147.121 42.386C147.529 41.618 148.087 41.024 148.795 40.604C149.515 40.184 150.313 39.974 151.189 39.974C152.053 39.974 152.803 40.16 153.439 40.532C154.075 40.904 154.549 41.372 154.861 41.936V40.136H156.517V50H154.861V48.164C154.537 48.74 154.051 49.22 153.403 49.604C152.767 49.976 152.023 50.162 151.171 50.162C150.295 50.162 149.503 49.946 148.795 49.514C148.087 49.082 147.529 48.476 147.121 47.696C146.713 46.916 146.509 46.028 146.509 45.032ZM154.861 45.05C154.861 44.306 154.711 43.658 154.411 43.106C154.111 42.554 153.703 42.134 153.187 41.846C152.683 41.546 152.125 41.396 151.513 41.396C150.901 41.396 150.343 41.54 149.839 41.828C149.335 42.116 148.933 42.536 148.633 43.088C148.333 43.64 148.183 44.288 148.183 45.032C148.183 45.788 148.333 46.448 148.633 47.012C148.933 47.564 149.335 47.99 149.839 48.29C150.343 48.578 150.901 48.722 151.513 48.722C152.125 48.722 152.683 48.578 153.187 48.29C153.703 47.99 154.111 47.564 154.411 47.012C154.711 46.448 154.861 45.794 154.861 45.05ZM164.091 39.956C165.291 39.956 166.263 40.322 167.007 41.054C167.751 41.774 168.123 42.818 168.123 44.186V50H166.503V44.42C166.503 43.436 166.257 42.686 165.765 42.17C165.273 41.642 164.601 41.378 163.749 41.378C162.885 41.378 162.195 41.648 161.679 42.188C161.175 42.728 160.923 43.514 160.923 44.546V50H159.285V40.136H160.923V41.54C161.247 41.036 161.685 40.646 162.237 40.37C162.801 40.094 163.419 39.956 164.091 39.956ZM176.444 38.534C176.132 38.534 175.868 38.426 175.652 38.21C175.436 37.994 175.328 37.73 175.328 37.418C175.328 37.106 175.436 36.842 175.652 36.626C175.868 36.41 176.132 36.302 176.444 36.302C176.744 36.302 176.996 36.41 177.2 36.626C177.416 36.842 177.524 37.106 177.524 37.418C177.524 37.73 177.416 37.994 177.2 38.21C176.996 38.426 176.744 38.534 176.444 38.534ZM177.236 40.136V50H175.598V40.136H177.236ZM191.89 39.956C192.658 39.956 193.342 40.118 193.942 40.442C194.542 40.754 195.016 41.228 195.364 41.864C195.712 42.5 195.886 43.274 195.886 44.186V50H194.266V44.42C194.266 43.436 194.02 42.686 193.528 42.17C193.048 41.642 192.394 41.378 191.566 41.378C190.714 41.378 190.036 41.654 189.532 42.206C189.028 42.746 188.776 43.532 188.776 44.564V50H187.156V44.42C187.156 43.436 186.91 42.686 186.418 42.17C185.938 41.642 185.284 41.378 184.456 41.378C183.604 41.378 182.926 41.654 182.422 42.206C181.918 42.746 181.666 43.532 181.666 44.564V50H180.028V40.136H181.666V41.558C181.99 41.042 182.422 40.646 182.962 40.37C183.514 40.094 184.12 39.956 184.78 39.956C185.608 39.956 186.34 40.142 186.976 40.514C187.612 40.886 188.086 41.432 188.398 42.152C188.674 41.456 189.13 40.916 189.766 40.532C190.402 40.148 191.11 39.956 191.89 39.956ZM197.961 45.032C197.961 44.024 198.165 43.142 198.573 42.386C198.981 41.618 199.539 41.024 200.247 40.604C200.967 40.184 201.765 39.974 202.641 39.974C203.505 39.974 204.255 40.16 204.891 40.532C205.527 40.904 206.001 41.372 206.313 41.936V40.136H207.969V50H206.313V48.164C205.989 48.74 205.503 49.22 204.855 49.604C204.219 49.976 203.475 50.162 202.623 50.162C201.747 50.162 200.955 49.946 200.247 49.514C199.539 49.082 198.981 48.476 198.573 47.696C198.165 46.916 197.961 46.028 197.961 45.032ZM206.313 45.05C206.313 44.306 206.163 43.658 205.863 43.106C205.563 42.554 205.155 42.134 204.639 41.846C204.135 41.546 203.577 41.396 202.965 41.396C202.353 41.396 201.795 41.54 201.291 41.828C200.787 42.116 200.385 42.536 200.085 43.088C199.785 43.64 199.635 44.288 199.635 45.032C199.635 45.788 199.785 46.448 200.085 47.012C200.385 47.564 200.787 47.99 201.291 48.29C201.795 48.578 202.353 48.722 202.965 48.722C203.577 48.722 204.135 48.578 204.639 48.29C205.155 47.99 205.563 47.564 205.863 47.012C206.163 46.448 206.313 45.794 206.313 45.05ZM214.805 39.974C215.657 39.974 216.401 40.16 217.037 40.532C217.685 40.904 218.165 41.372 218.477 41.936V40.136H220.133V50.216C220.133 51.116 219.941 51.914 219.557 52.61C219.173 53.318 218.621 53.87 217.901 54.266C217.193 54.662 216.365 54.86 215.417 54.86C214.121 54.86 213.041 54.554 212.177 53.942C211.313 53.33 210.803 52.496 210.647 51.44H212.267C212.447 52.04 212.819 52.52 213.383 52.88C213.947 53.252 214.625 53.438 215.417 53.438C216.317 53.438 217.049 53.156 217.613 52.592C218.189 52.028 218.477 51.236 218.477 50.216V48.146C218.153 48.722 217.673 49.202 217.037 49.586C216.401 49.97 215.657 50.162 214.805 50.162C213.929 50.162 213.131 49.946 212.411 49.514C211.703 49.082 211.145 48.476 210.737 47.696C210.329 46.916 210.125 46.028 210.125 45.032C210.125 44.024 210.329 43.142 210.737 42.386C211.145 41.618 211.703 41.024 212.411 40.604C213.131 40.184 213.929 39.974 214.805 39.974ZM218.477 45.05C218.477 44.306 218.327 43.658 218.027 43.106C217.727 42.554 217.319 42.134 216.803 41.846C216.299 41.546 215.741 41.396 215.129 41.396C214.517 41.396 213.959 41.54 213.455 41.828C212.951 42.116 212.549 42.536 212.249 43.088C211.949 43.64 211.799 44.288 211.799 45.032C211.799 45.788 211.949 46.448 212.249 47.012C212.549 47.564 212.951 47.99 213.455 48.29C213.959 48.578 214.517 48.722 215.129 48.722C215.741 48.722 216.299 48.578 216.803 48.29C217.319 47.99 217.727 47.564 218.027 47.012C218.327 46.448 218.477 45.794 218.477 45.05ZM231.901 44.69C231.901 45.002 231.883 45.332 231.847 45.68H223.963C224.023 46.652 224.353 47.414 224.953 47.966C225.565 48.506 226.303 48.776 227.167 48.776C227.875 48.776 228.463 48.614 228.931 48.29C229.411 47.954 229.747 47.51 229.939 46.958H231.703C231.439 47.906 230.911 48.68 230.119 49.28C229.327 49.868 228.343 50.162 227.167 50.162C226.231 50.162 225.391 49.952 224.647 49.532C223.915 49.112 223.339 48.518 222.919 47.75C222.499 46.97 222.289 46.07 222.289 45.05C222.289 44.03 222.493 43.136 222.901 42.368C223.309 41.6 223.879 41.012 224.611 40.604C225.355 40.184 226.207 39.974 227.167 39.974C228.103 39.974 228.931 40.178 229.651 40.586C230.371 40.994 230.923 41.558 231.307 42.278C231.703 42.986 231.901 43.79 231.901 44.69ZM230.209 44.348C230.209 43.724 230.071 43.19 229.795 42.746C229.519 42.29 229.141 41.948 228.661 41.72C228.193 41.48 227.671 41.36 227.095 41.36C226.267 41.36 225.559 41.624 224.971 42.152C224.395 42.68 224.065 43.412 223.981 44.348H230.209ZM240.86 41.486V47.3C240.86 47.78 240.962 48.122 241.166 48.326C241.37 48.518 241.724 48.614 242.228 48.614H243.434V50H241.958C241.046 50 240.362 49.79 239.906 49.37C239.45 48.95 239.222 48.26 239.222 47.3V41.486H237.944V40.136H239.222V37.652H240.86V40.136H243.434V41.486H240.86ZM249.72 50.162C248.796 50.162 247.956 49.952 247.2 49.532C246.456 49.112 245.868 48.518 245.436 47.75C245.016 46.97 244.806 46.07 244.806 45.05C244.806 44.042 245.022 43.154 245.454 42.386C245.898 41.606 246.498 41.012 247.254 40.604C248.01 40.184 248.856 39.974 249.792 39.974C250.728 39.974 251.574 40.184 252.33 40.604C253.086 41.012 253.68 41.6 254.112 42.368C254.556 43.136 254.778 44.03 254.778 45.05C254.778 46.07 254.55 46.97 254.094 47.75C253.65 48.518 253.044 49.112 252.276 49.532C251.508 49.952 250.656 50.162 249.72 50.162ZM249.72 48.722C250.308 48.722 250.86 48.584 251.376 48.308C251.892 48.032 252.306 47.618 252.618 47.066C252.942 46.514 253.104 45.842 253.104 45.05C253.104 44.258 252.948 43.586 252.636 43.034C252.324 42.482 251.916 42.074 251.412 41.81C250.908 41.534 250.362 41.396 249.774 41.396C249.174 41.396 248.622 41.534 248.118 41.81C247.626 42.074 247.23 42.482 246.93 43.034C246.63 43.586 246.48 44.258 246.48 45.05C246.48 45.854 246.624 46.532 246.912 47.084C247.212 47.636 247.608 48.05 248.1 48.326C248.592 48.59 249.132 48.722 249.72 48.722ZM265.223 50.162C264.467 50.162 263.789 50.036 263.189 49.784C262.589 49.52 262.115 49.16 261.767 48.704C261.419 48.236 261.227 47.702 261.191 47.102H262.883C262.931 47.594 263.159 47.996 263.567 48.308C263.987 48.62 264.533 48.776 265.205 48.776C265.829 48.776 266.321 48.638 266.681 48.362C267.041 48.086 267.221 47.738 267.221 47.318C267.221 46.886 267.029 46.568 266.645 46.364C266.261 46.148 265.667 45.938 264.863 45.734C264.131 45.542 263.531 45.35 263.063 45.158C262.607 44.954 262.211 44.66 261.875 44.276C261.551 43.88 261.389 43.364 261.389 42.728C261.389 42.224 261.539 41.762 261.839 41.342C262.139 40.922 262.565 40.592 263.117 40.352C263.669 40.1 264.299 39.974 265.007 39.974C266.099 39.974 266.981 40.25 267.653 40.802C268.325 41.354 268.685 42.11 268.733 43.07H267.095C267.059 42.554 266.849 42.14 266.465 41.828C266.093 41.516 265.589 41.36 264.953 41.36C264.365 41.36 263.897 41.486 263.549 41.738C263.201 41.99 263.027 42.32 263.027 42.728C263.027 43.052 263.129 43.322 263.333 43.538C263.549 43.742 263.813 43.91 264.125 44.042C264.449 44.162 264.893 44.3 265.457 44.456C266.165 44.648 266.741 44.84 267.185 45.032C267.629 45.212 268.007 45.488 268.319 45.86C268.643 46.232 268.811 46.718 268.823 47.318C268.823 47.858 268.673 48.344 268.373 48.776C268.073 49.208 267.647 49.55 267.095 49.802C266.555 50.042 265.931 50.162 265.223 50.162ZM280.135 44.69C280.135 45.002 280.117 45.332 280.081 45.68H272.197C272.257 46.652 272.587 47.414 273.187 47.966C273.799 48.506 274.537 48.776 275.401 48.776C276.109 48.776 276.697 48.614 277.165 48.29C277.645 47.954 277.981 47.51 278.173 46.958H279.937C279.673 47.906 279.145 48.68 278.353 49.28C277.561 49.868 276.577 50.162 275.401 50.162C274.465 50.162 273.625 49.952 272.881 49.532C272.149 49.112 271.573 48.518 271.153 47.75C270.733 46.97 270.523 46.07 270.523 45.05C270.523 44.03 270.727 43.136 271.135 42.368C271.543 41.6 272.113 41.012 272.845 40.604C273.589 40.184 274.441 39.974 275.401 39.974C276.337 39.974 277.165 40.178 277.885 40.586C278.605 40.994 279.157 41.558 279.541 42.278C279.937 42.986 280.135 43.79 280.135 44.69ZM278.443 44.348C278.443 43.724 278.305 43.19 278.029 42.746C277.753 42.29 277.375 41.948 276.895 41.72C276.427 41.48 275.905 41.36 275.329 41.36C274.501 41.36 273.793 41.624 273.205 42.152C272.629 42.68 272.299 43.412 272.215 44.348H278.443ZM291.297 44.69C291.297 45.002 291.279 45.332 291.243 45.68H283.359C283.419 46.652 283.749 47.414 284.349 47.966C284.961 48.506 285.699 48.776 286.563 48.776C287.271 48.776 287.859 48.614 288.327 48.29C288.807 47.954 289.143 47.51 289.335 46.958H291.099C290.835 47.906 290.307 48.68 289.515 49.28C288.723 49.868 287.739 50.162 286.563 50.162C285.627 50.162 284.787 49.952 284.043 49.532C283.311 49.112 282.735 48.518 282.315 47.75C281.895 46.97 281.685 46.07 281.685 45.05C281.685 44.03 281.889 43.136 282.297 42.368C282.705 41.6 283.275 41.012 284.007 40.604C284.751 40.184 285.603 39.974 286.563 39.974C287.499 39.974 288.327 40.178 289.047 40.586C289.767 40.994 290.319 41.558 290.703 42.278C291.099 42.986 291.297 43.79 291.297 44.69ZM289.605 44.348C289.605 43.724 289.467 43.19 289.191 42.746C288.915 42.29 288.537 41.948 288.057 41.72C287.589 41.48 287.067 41.36 286.491 41.36C285.663 41.36 284.955 41.624 284.367 42.152C283.791 42.68 283.461 43.412 283.377 44.348H289.605ZM124.082 61.956C124.85 61.956 125.534 62.118 126.134 62.442C126.734 62.754 127.208 63.228 127.556 63.864C127.904 64.5 128.078 65.274 128.078 66.186V72H126.458V66.42C126.458 65.436 126.212 64.686 125.72 64.17C125.24 63.642 124.586 63.378 123.758 63.378C122.906 63.378 122.228 63.654 121.724 64.206C121.22 64.746 120.968 65.532 120.968 66.564V72H119.348V66.42C119.348 65.436 119.102 64.686 118.61 64.17C118.13 63.642 117.476 63.378 116.648 63.378C115.796 63.378 115.118 63.654 114.614 64.206C114.11 64.746 113.858 65.532 113.858 66.564V72H112.22V62.136H113.858V63.558C114.182 63.042 114.614 62.646 115.154 62.37C115.706 62.094 116.312 61.956 116.972 61.956C117.8 61.956 118.532 62.142 119.168 62.514C119.804 62.886 120.278 63.432 120.59 64.152C120.866 63.456 121.322 62.916 121.958 62.532C122.594 62.148 123.302 61.956 124.082 61.956ZM135.067 72.162C134.143 72.162 133.303 71.952 132.547 71.532C131.803 71.112 131.215 70.518 130.783 69.75C130.363 68.97 130.153 68.07 130.153 67.05C130.153 66.042 130.369 65.154 130.801 64.386C131.245 63.606 131.845 63.012 132.601 62.604C133.357 62.184 134.203 61.974 135.139 61.974C136.075 61.974 136.921 62.184 137.677 62.604C138.433 63.012 139.027 63.6 139.459 64.368C139.903 65.136 140.125 66.03 140.125 67.05C140.125 68.07 139.897 68.97 139.441 69.75C138.997 70.518 138.391 71.112 137.623 71.532C136.855 71.952 136.003 72.162 135.067 72.162ZM135.067 70.722C135.655 70.722 136.207 70.584 136.723 70.308C137.239 70.032 137.653 69.618 137.965 69.066C138.289 68.514 138.451 67.842 138.451 67.05C138.451 66.258 138.295 65.586 137.983 65.034C137.671 64.482 137.263 64.074 136.759 63.81C136.255 63.534 135.709 63.396 135.121 63.396C134.521 63.396 133.969 63.534 133.465 63.81C132.973 64.074 132.577 64.482 132.277 65.034C131.977 65.586 131.827 66.258 131.827 67.05C131.827 67.854 131.971 68.532 132.259 69.084C132.559 69.636 132.955 70.05 133.447 70.326C133.939 70.59 134.479 70.722 135.067 70.722ZM143.917 63.738C144.205 63.174 144.613 62.736 145.141 62.424C145.681 62.112 146.335 61.956 147.103 61.956V63.648H146.671C144.835 63.648 143.917 64.644 143.917 66.636V72H142.279V62.136H143.917V63.738ZM157.993 66.69C157.993 67.002 157.975 67.332 157.939 67.68H150.055C150.115 68.652 150.445 69.414 151.045 69.966C151.657 70.506 152.395 70.776 153.259 70.776C153.967 70.776 154.555 70.614 155.023 70.29C155.503 69.954 155.839 69.51 156.031 68.958H157.795C157.531 69.906 157.003 70.68 156.211 71.28C155.419 71.868 154.435 72.162 153.259 72.162C152.323 72.162 151.483 71.952 150.739 71.532C150.007 71.112 149.431 70.518 149.011 69.75C148.591 68.97 148.381 68.07 148.381 67.05C148.381 66.03 148.585 65.136 148.993 64.368C149.401 63.6 149.971 63.012 150.703 62.604C151.447 62.184 152.299 61.974 153.259 61.974C154.195 61.974 155.023 62.178 155.743 62.586C156.463 62.994 157.015 63.558 157.399 64.278C157.795 64.986 157.993 65.79 157.993 66.69ZM156.301 66.348C156.301 65.724 156.163 65.19 155.887 64.746C155.611 64.29 155.233 63.948 154.753 63.72C154.285 63.48 153.763 63.36 153.187 63.36C152.359 63.36 151.651 63.624 151.063 64.152C150.487 64.68 150.157 65.412 150.073 66.348H156.301ZM165.8 60.534C165.488 60.534 165.224 60.426 165.008 60.21C164.792 59.994 164.684 59.73 164.684 59.418C164.684 59.106 164.792 58.842 165.008 58.626C165.224 58.41 165.488 58.302 165.8 58.302C166.1 58.302 166.352 58.41 166.556 58.626C166.772 58.842 166.88 59.106 166.88 59.418C166.88 59.73 166.772 59.994 166.556 60.21C166.352 60.426 166.1 60.534 165.8 60.534ZM166.592 62.136V72H164.954V62.136H166.592ZM174.19 61.956C175.39 61.956 176.362 62.322 177.106 63.054C177.85 63.774 178.222 64.818 178.222 66.186V72H176.602V66.42C176.602 65.436 176.356 64.686 175.864 64.17C175.372 63.642 174.7 63.378 173.848 63.378C172.984 63.378 172.294 63.648 171.778 64.188C171.274 64.728 171.022 65.514 171.022 66.546V72H169.384V62.136H171.022V63.54C171.346 63.036 171.784 62.646 172.336 62.37C172.9 62.094 173.518 61.956 174.19 61.956ZM184.912 63.486H182.842V72H181.204V63.486H179.926V62.136H181.204V61.434C181.204 60.33 181.486 59.526 182.05 59.022C182.626 58.506 183.544 58.248 184.804 58.248V59.616C184.084 59.616 183.574 59.76 183.274 60.048C182.986 60.324 182.842 60.786 182.842 61.434V62.136H184.912V63.486ZM191.124 72.162C190.2 72.162 189.36 71.952 188.604 71.532C187.86 71.112 187.272 70.518 186.84 69.75C186.42 68.97 186.21 68.07 186.21 67.05C186.21 66.042 186.426 65.154 186.858 64.386C187.302 63.606 187.902 63.012 188.658 62.604C189.414 62.184 190.26 61.974 191.196 61.974C192.132 61.974 192.978 62.184 193.734 62.604C194.49 63.012 195.084 63.6 195.516 64.368C195.96 65.136 196.182 66.03 196.182 67.05C196.182 68.07 195.954 68.97 195.498 69.75C195.054 70.518 194.448 71.112 193.68 71.532C192.912 71.952 192.06 72.162 191.124 72.162ZM191.124 70.722C191.712 70.722 192.264 70.584 192.78 70.308C193.296 70.032 193.71 69.618 194.022 69.066C194.346 68.514 194.508 67.842 194.508 67.05C194.508 66.258 194.352 65.586 194.04 65.034C193.728 64.482 193.32 64.074 192.816 63.81C192.312 63.534 191.766 63.396 191.178 63.396C190.578 63.396 190.026 63.534 189.522 63.81C189.03 64.074 188.634 64.482 188.334 65.034C188.034 65.586 187.884 66.258 187.884 67.05C187.884 67.854 188.028 68.532 188.316 69.084C188.616 69.636 189.012 70.05 189.504 70.326C189.996 70.59 190.536 70.722 191.124 70.722ZM199.973 63.738C200.261 63.174 200.669 62.736 201.197 62.424C201.737 62.112 202.391 61.956 203.159 61.956V63.648H202.727C200.891 63.648 199.973 64.644 199.973 66.636V72H198.335V62.136H199.973V63.738ZM216.912 61.956C217.68 61.956 218.364 62.118 218.964 62.442C219.564 62.754 220.038 63.228 220.386 63.864C220.734 64.5 220.908 65.274 220.908 66.186V72H219.288V66.42C219.288 65.436 219.042 64.686 218.55 64.17C218.07 63.642 217.416 63.378 216.588 63.378C215.736 63.378 215.058 63.654 214.554 64.206C214.05 64.746 213.798 65.532 213.798 66.564V72H212.178V66.42C212.178 65.436 211.932 64.686 211.44 64.17C210.96 63.642 210.306 63.378 209.478 63.378C208.626 63.378 207.948 63.654 207.444 64.206C206.94 64.746 206.688 65.532 206.688 66.564V72H205.05V62.136H206.688V63.558C207.012 63.042 207.444 62.646 207.984 62.37C208.536 62.094 209.142 61.956 209.802 61.956C210.63 61.956 211.362 62.142 211.998 62.514C212.634 62.886 213.108 63.432 213.42 64.152C213.696 63.456 214.152 62.916 214.788 62.532C215.424 62.148 216.132 61.956 216.912 61.956ZM222.983 67.032C222.983 66.024 223.187 65.142 223.595 64.386C224.003 63.618 224.561 63.024 225.269 62.604C225.989 62.184 226.787 61.974 227.663 61.974C228.527 61.974 229.277 62.16 229.913 62.532C230.549 62.904 231.023 63.372 231.335 63.936V62.136H232.991V72H231.335V70.164C231.011 70.74 230.525 71.22 229.877 71.604C229.241 71.976 228.497 72.162 227.645 72.162C226.769 72.162 225.977 71.946 225.269 71.514C224.561 71.082 224.003 70.476 223.595 69.696C223.187 68.916 222.983 68.028 222.983 67.032ZM231.335 67.05C231.335 66.306 231.185 65.658 230.885 65.106C230.585 64.554 230.177 64.134 229.661 63.846C229.157 63.546 228.599 63.396 227.987 63.396C227.375 63.396 226.817 63.54 226.313 63.828C225.809 64.116 225.407 64.536 225.107 65.088C224.807 65.64 224.657 66.288 224.657 67.032C224.657 67.788 224.807 68.448 225.107 69.012C225.407 69.564 225.809 69.99 226.313 70.29C226.817 70.578 227.375 70.722 227.987 70.722C228.599 70.722 229.157 70.578 229.661 70.29C230.177 69.99 230.585 69.564 230.885 69.012C231.185 68.448 231.335 67.794 231.335 67.05ZM237.757 63.486V69.3C237.757 69.78 237.859 70.122 238.063 70.326C238.267 70.518 238.621 70.614 239.125 70.614H240.331V72H238.855C237.943 72 237.259 71.79 236.803 71.37C236.347 70.95 236.119 70.26 236.119 69.3V63.486H234.841V62.136H236.119V59.652H237.757V62.136H240.331V63.486H237.757ZM243.162 60.534C242.85 60.534 242.586 60.426 242.37 60.21C242.154 59.994 242.046 59.73 242.046 59.418C242.046 59.106 242.154 58.842 242.37 58.626C242.586 58.41 242.85 58.302 243.162 58.302C243.462 58.302 243.714 58.41 243.918 58.626C244.134 58.842 244.242 59.106 244.242 59.418C244.242 59.73 244.134 59.994 243.918 60.21C243.714 60.426 243.462 60.534 243.162 60.534ZM243.954 62.136V72H242.316V62.136H243.954ZM251.047 72.162C250.123 72.162 249.283 71.952 248.527 71.532C247.783 71.112 247.195 70.518 246.763 69.75C246.343 68.97 246.133 68.07 246.133 67.05C246.133 66.042 246.349 65.154 246.781 64.386C247.225 63.606 247.825 63.012 248.581 62.604C249.337 62.184 250.183 61.974 251.119 61.974C252.055 61.974 252.901 62.184 253.657 62.604C254.413 63.012 255.007 63.6 255.439 64.368C255.883 65.136 256.105 66.03 256.105 67.05C256.105 68.07 255.877 68.97 255.421 69.75C254.977 70.518 254.371 71.112 253.603 71.532C252.835 71.952 251.983 72.162 251.047 72.162ZM251.047 70.722C251.635 70.722 252.187 70.584 252.703 70.308C253.219 70.032 253.633 69.618 253.945 69.066C254.269 68.514 254.431 67.842 254.431 67.05C254.431 66.258 254.275 65.586 253.963 65.034C253.651 64.482 253.243 64.074 252.739 63.81C252.235 63.534 251.689 63.396 251.101 63.396C250.501 63.396 249.949 63.534 249.445 63.81C248.953 64.074 248.557 64.482 248.257 65.034C247.957 65.586 247.807 66.258 247.807 67.05C247.807 67.854 247.951 68.532 248.239 69.084C248.539 69.636 248.935 70.05 249.427 70.326C249.919 70.59 250.459 70.722 251.047 70.722ZM263.065 61.956C264.265 61.956 265.237 62.322 265.981 63.054C266.725 63.774 267.097 64.818 267.097 66.186V72H265.477V66.42C265.477 65.436 265.231 64.686 264.739 64.17C264.247 63.642 263.575 63.378 262.723 63.378C261.859 63.378 261.169 63.648 260.653 64.188C260.149 64.728 259.897 65.514 259.897 66.546V72H258.259V62.136H259.897V63.54C260.221 63.036 260.659 62.646 261.211 62.37C261.775 62.094 262.393 61.956 263.065 61.956ZM270.295 72.108C269.983 72.108 269.719 72 269.503 71.784C269.287 71.568 269.179 71.304 269.179 70.992C269.179 70.68 269.287 70.416 269.503 70.2C269.719 69.984 269.983 69.876 270.295 69.876C270.595 69.876 270.847 69.984 271.051 70.2C271.267 70.416 271.375 70.68 271.375 70.992C271.375 71.304 271.267 71.568 271.051 71.784C270.847 72 270.595 72.108 270.295 72.108Z" fill="#716B6B"/>
<path fill-rule="evenodd" clip-rule="evenodd" d="M178.586 15.1422C177.805 14.3611 177.805 13.0948 178.586 12.3137L190.899 4.19261e-06L203.213 12.3137C203.994 13.0948 203.994 14.3611 203.213 15.1422C202.432 15.9232 201.166 15.9232 200.385 15.1422L190.899 5.65686L181.414 15.1422C180.633 15.9232 179.367 15.9232 178.586 15.1422Z" fill="black"/>
</svg>
