<?xml version="1.0" encoding="utf-8"?>
<!-- Generator: Adobe Illustrator 25.4.1, SVG Export Plug-In . SVG Version: 6.00 Build 0)  -->
<svg version="1.1" id="Layer_1" xmlns="http://www.w3.org/2000/svg" xmlns:xlink="http://www.w3.org/1999/xlink" x="0px" y="0px"
	 viewBox="0 0 265.4 107.1" style="enable-background:new 0 0 265.4 107.1;" xml:space="preserve">
<g>
	<path d="M147.5,73.1c0.1,0,0.2-0.1,0.2-0.3c-1.2-4.4-1.9-11.2-1.9-19.3V30.1c0-20.3-10.1-29.2-32.8-29.2
		c-19.9,0-32.6,9.2-33.8,24.7c0,0.1,0.1,0.2,0.2,0.2h22.2c0.4-6.8,4.4-10.4,11.3-10.4c7,0,10.4,3.5,10.4,11.6v2.4l-17.1,2.4
		c-10.7,1.4-17.5,3.7-22.1,6.9c-4.8,3.4-7.2,8.6-7.2,15.2c0,12.5,9.7,20.9,24.2,20.9c11,0,20-4.9,23.5-12.8c0.1,3.9,0.4,7.6,1.1,11
		c0,0.1,0.1,0.2,0.2,0.2H147.5z M123.9,46.2c0,8.5-5.8,14.2-14.4,14.2c-5.9,0-9.9-3.2-9.9-8.2c0-5.2,3.8-8.2,12.1-9.7l11.9-1.9
		c0.1,0,0.2,0.1,0.2,0.2L123.9,46.2L123.9,46.2z"/>
	<path d="M156.7,73.1h22.1c0.1,0,0.2-0.1,0.2-0.2V32.8c0-9.4,3.8-14.7,10.7-14.7c6.2,0,9.3,4.4,9.3,13.5v41.2c0,0.1,0.1,0.2,0.2,0.2
		h22.1c0.1,0,0.2-0.1,0.2-0.2V32.7c0-9.4,3.7-14.5,10.6-14.5c6.3,0,9.3,4.2,9.3,13.7v41.1c0,0.1,0.1,0.2,0.2,0.2H264
		c0.1,0,0.2-0.1,0.2-0.2V27c0-16.5-8-26.1-21.7-26.1c-10,0-17.3,4.5-22.3,14.1c-0.1,0.2-0.3,0.1-0.4,0c-3.7-9.7-10-14.1-20-14.1
		c-10,0-16.8,4.4-21.2,13.5c-0.1,0.2-0.4,0.1-0.4-0.1V2.8c0-0.1-0.1-0.2-0.2-0.2h-21.3c-0.1,0-0.2,0.1-0.2,0.2v70.1
		C156.5,73,156.6,73.1,156.7,73.1"/>
	<path d="M44.6,24.6c-0.1,0-0.2-0.1-0.2-0.2c0.8-7.1-3.8-10.5-9.7-10.5c-6,0-9.1,2.4-9.1,6.4c0,3.6,4.8,6.1,13.7,7.4
		c12.9,1.8,30.2,5.6,30.2,22.4c0,16.7-11.9,24.7-35,24.7c-20.6,0-33.2-9.2-33.2-21.2c0-1.5,0-3.4,0.8-5.6c0-0.1,0.1-0.1,0.2-0.1
		l22.6-0.7c0.1,0,0.2,0.1,0.2,0.2C23.9,56.9,29.4,61,36.1,61c6.5,0,10.7-2.8,10.7-7.8c0-5.6-8.4-7.8-16.5-9.1
		c-12.2-2-26.4-5.9-26.4-21.6C3.8,9.3,13.9,0.9,34.3,0.9C52.7,0.9,67,6.8,67,17.4c0,1.8-0.3,3.8-1.1,6c0,0.1-0.1,0.1-0.2,0.1
		L44.6,24.6z"/>
	<path d="M261.7,101.6h2.3v-8.8c0-2.5-1.2-3.7-3.5-3.7c-1.8,0-3.4,1.1-4.1,2.3c-0.4-1.3-1.5-2.3-3.3-2.3c-1.8,0-3.4,1.3-3.9,2v-1.7
		h-2.3v12.2h2.3v-8.7c0.6-0.9,1.8-1.8,3-1.8c1.5,0,2.1,0.9,2.1,2.3v8.1h2.3v-8.7c0.6-0.9,1.8-1.7,3-1.7c1.5,0,2.1,0.9,2.1,2.3
		L261.7,101.6L261.7,101.6z M241.5,101.6h2.3V89.4h-2.3v8.8c-0.7,0.9-2,1.7-3.4,1.7c-1.6,0-2.6-0.6-2.6-2.6v-7.9h-2.3V98
		c0,2.6,1.3,3.9,3.9,3.9c1.9,0,3.4-1,4.3-2V101.6z M224.8,90.9c2.6,0,3.7,2,3.7,3.6H221C221.1,92.9,222.3,90.9,224.8,90.9
		 M218.6,95.4c0,3.8,2.7,6.4,6.3,6.4c2,0,3.7-0.6,4.9-1.8l-1.1-1.5c-0.9,0.9-2.3,1.4-3.6,1.4c-2.5,0-4-1.7-4.1-3.8h9.6v-0.6
		c0-3.7-2.3-6.6-5.9-6.6C221.2,89.1,218.6,91.9,218.6,95.4 M206.8,100c1.2,1.3,3,1.9,5.1,1.9c3.2,0,4.9-1.6,4.9-3.7
		c0-2.8-2.5-3.4-4.6-3.9c-1.5-0.4-2.8-0.7-2.8-1.8c0-1,1-1.6,2.5-1.6c1.5,0,2.9,0.6,3.6,1.5l1-1.6c-1-1-2.6-1.7-4.6-1.7
		c-3,0-4.6,1.7-4.6,3.6c0,2.6,2.4,3.2,4.5,3.7c1.6,0.4,3,0.8,3,2c0,1-0.9,1.7-2.6,1.7c-1.6,0-3.3-0.8-4.1-1.7L206.8,100z
		 M202.1,101.6h2.3V89.4h-2.3v8.8c-0.7,0.9-2,1.7-3.4,1.7c-1.6,0-2.6-0.6-2.6-2.6v-7.9h-2.3V98c0,2.6,1.3,3.9,3.9,3.9
		c1.9,0,3.4-1,4.3-2L202.1,101.6L202.1,101.6z M188.3,101.6h2.5V84.7h-3.6l-4.9,12.1l-4.9-12.1h-3.6v16.8h2.5V88.2l5.5,13.4h1.1
		l5.5-13.4L188.3,101.6L188.3,101.6z M162.8,101.9c1.2,0,1.9-0.3,2.4-0.8l-0.6-1.7c-0.2,0.3-0.7,0.5-1.2,0.5c-0.8,0-1.2-0.6-1.2-1.5
		v-7h2.5v-2h-2.5V86h-2.3v3.3h-2v2h2v7.5C159.9,100.8,160.9,101.9,162.8,101.9 M150.3,101.6h2.3v-8.5c0.5-0.9,2.1-1.8,3.2-1.8
		c0.3,0,0.6,0,0.8,0.1v-2.3c-1.6,0-3.1,0.9-4,2.1v-1.9h-2.3V101.6z M140.4,86.9l3.4,8.9H137L140.4,86.9z M145.9,101.6h2.8L142,84.7
		h-3.2l-6.7,16.8h2.8l1.4-3.5h8.3L145.9,101.6z M122.1,101.6h1.3V93c0-2.8-1.4-4-3.8-4c-1.8,0-3.5,1.1-4.4,2.1v-1.8h-1.3v12.2h1.3
		v-9.2c0.8-1.1,2.4-2.1,4-2.1c1.8,0,3,0.7,3,3.1V101.6z M105.3,100.7c-2.8,0-4.4-2.5-4.4-5.2c0-2.7,1.6-5.2,4.4-5.2
		c2.9,0,4.5,2.5,4.5,5.2C109.7,98.2,108.1,100.7,105.3,100.7 M105.3,101.9c3.6,0,5.9-2.9,5.9-6.4c0-3.6-2.3-6.4-5.9-6.4
		c-3.6,0-5.9,2.8-5.9,6.4C99.4,99,101.7,101.9,105.3,101.9 M96.2,101.9c1,0,1.6-0.3,2.1-0.8l-0.5-1c-0.3,0.3-0.8,0.6-1.4,0.6
		c-0.9,0-1.3-0.7-1.3-1.7v-8.5h2.5v-1.2h-2.5V86h-1.3v3.3h-2v1.2h2v8.7C93.8,100.9,94.6,101.9,96.2,101.9 M84.6,101.6H86v-8.9
		c0.6-1.1,2.2-2.2,3.5-2.2c0.3,0,0.4,0,0.7,0.1v-1.4c-1.7,0-3.1,1-4.1,2.3v-2.1h-1.3L84.6,101.6L84.6,101.6z M79.7,99.2
		c-0.9,1.1-2.2,1.7-3.7,1.7c-2,0-3.3-1.3-3.3-3s1.3-3,3.3-3c1.5,0,2.8,0.6,3.7,1.7V99.2z M79.7,101.6h1.3V93c0-2.7-2-3.9-4.5-3.9
		c-2,0-3.4,0.7-4.7,2.1l0.7,0.9c1.1-1.3,2.3-1.8,3.8-1.8c1.8,0,3.3,1,3.3,2.8v2.5c-1.1-1.2-2.5-1.7-4.1-1.7c-2.1,0-4.3,1.4-4.3,4
		c0,2.6,2.2,4.1,4.3,4.1c1.7,0,3.1-0.6,4.1-1.7L79.7,101.6L79.7,101.6z M67.4,95.4c0,3-1.5,5.2-4.3,5.2c-1.7,0-3.3-1.1-4-2.2v-6
		c0.7-1.2,2.3-2.2,4-2.2C65.9,90.2,67.4,92.5,67.4,95.4 M59.2,106.2v-6.6c1,1.4,2.5,2.3,4.2,2.3c3.3,0,5.5-2.5,5.5-6.4
		c0-3.9-2.2-6.4-5.5-6.4c-1.8,0-3.4,1-4.2,2.2v-1.9h-1.3v16.8L59.2,106.2L59.2,106.2z M53.4,95.4c0,3-1.5,5.2-4.3,5.2
		c-1.7,0-3.3-1.1-4-2.2v-6c0.7-1.2,2.3-2.2,4-2.2C51.9,90.2,53.4,92.5,53.4,95.4 M45.1,106.2v-6.6c1,1.4,2.5,2.3,4.2,2.3
		c3.3,0,5.5-2.5,5.5-6.4c0-3.9-2.2-6.4-5.5-6.4c-1.8,0-3.4,1-4.2,2.2v-1.9h-1.3v16.8L45.1,106.2L45.1,106.2z M35,90.2
		c3.1,0,4.4,2.6,4.4,4.6h-8.9C30.7,92.7,32.2,90.2,35,90.2 M29.2,95.4c0,3.8,2.6,6.4,6.1,6.4c2,0,3.6-0.7,4.8-2L39.4,99
		c-1.1,1.1-2.5,1.7-4,1.7c-2.9,0-4.6-2.2-4.7-4.9h10.2v-0.4c0-3.5-2-6.5-5.8-6.5C31.7,89.1,29.2,91.9,29.2,95.4 M24.9,101.6h1.3V93
		c0-2.8-1.4-3.9-3.8-3.9c-1.8,0-3.5,1.1-4.4,2.1v-6.5h-1.3v16.8h1.3v-9.2c0.8-1.1,2.4-2.1,4-2.1c1.8,0,3,0.7,3,3L24.9,101.6
		L24.9,101.6z M1.4,99.2c1.3,1.6,3.4,2.7,6.2,2.7c4.5,0,6-2.6,6-4.7c0-3.4-3-4.3-5.7-5.1c-2.3-0.6-4.4-1.2-4.4-3.2
		c0-1.8,1.7-3.1,3.9-3.1c1.9,0,3.6,0.7,4.8,2.1l1-1.1c-1.3-1.5-3.2-2.4-5.7-2.4c-3.1,0-5.5,1.7-5.5,4.5c0,3.1,2.8,3.9,5.5,4.6
		c2.3,0.6,4.6,1.3,4.6,3.7c0,1.4-1,3.4-4.4,3.4c-2.4,0-4.2-1.2-5.3-2.5L1.4,99.2z"/>
</g>
</svg>
